<?xml version="1.0" encoding="UTF-8" standalone="no"?>
<svg
   width="24"
   height="24"
   version="1.1"
   id="svg18510"
   sodipodi:docname="maximize.svg"
   inkscape:version="1.2.2 (b0a8486541, 2022-12-01)"
   xmlns:inkscape="http://www.inkscape.org/namespaces/inkscape"
   xmlns:sodipodi="http://sodipodi.sourceforge.net/DTD/sodipodi-0.dtd"
   xmlns:xlink="http://www.w3.org/1999/xlink"
   xmlns="http://www.w3.org/2000/svg"
   xmlns:svg="http://www.w3.org/2000/svg">
  <defs
     id="defs18514">
    <linearGradient
       inkscape:collect="always"
       xlink:href="#linearGradient2265"
       id="linearGradient2267"
       x1="11.243627"
       y1="21.049887"
       x2="11.243627"
       y2="0.74593043"
       gradientUnits="userSpaceOnUse"
       gradientTransform="matrix(1.0909091,0,0,1.0909091,1.7235107e-6,5.9719854e-8)" />
    <linearGradient
       inkscape:collect="always"
       id="linearGradient2265">
      <stop
         style="stop-color:#8a5f91;stop-opacity:1;"
         offset="0"
         id="stop2261" />
      <stop
         style="stop-color:#a06ea8;stop-opacity:1;"
         offset="1"
         id="stop2263" />
    </linearGradient>
    <linearGradient
       inkscape:collect="always"
       xlink:href="#linearGradient3879"
       id="linearGradient3869"
       gradientUnits="userSpaceOnUse"
       x1="11.243627"
       y1="21.049887"
       x2="11.243627"
       y2="0.74593043"
       gradientTransform="matrix(1.0909091,0,0,1.0909091,72.000001,5.9719854e-8)" />
    <linearGradient
       inkscape:collect="always"
       id="linearGradient3879">
      <stop
         style="stop-color:#68496f;stop-opacity:1;"
         offset="0"
         id="stop3875" />
      <stop
         style="stop-color:#825289;stop-opacity:1;"
         offset="1"
         id="stop3877" />
    </linearGradient>
  </defs>
  <sodipodi:namedview
     id="namedview18512"
     pagecolor="#ffffff"
     bordercolor="#000000"
     borderopacity="0.25"
     inkscape:showpageshadow="2"
     inkscape:pageopacity="0.0"
     inkscape:pagecheckerboard="0"
     inkscape:deskcolor="#d1d1d1"
     showgrid="false"
     inkscape:zoom="3.896453"
     inkscape:cx="31.310528"
     inkscape:cy="35.160183"
     inkscape:window-width="1366"
     inkscape:window-height="712"
     inkscape:window-x="0"
     inkscape:window-y="27"
     inkscape:window-maximized="1"
     inkscape:current-layer="svg18510" />
  <g
     id="pressed-center"
     transform="matrix(1.0909091,0,0,1.0909091,-2.1818182,0)">
    <rect
       style="opacity:0.001"
       width="22"
       height="22"
       x="46"
       y="0"
       id="rect18481" />
    <rect
       style="fill:#5c3566;fill-opacity:1;stroke-width:9.57446;stroke-linecap:square"
       id="rect1271-9"
       width="24"
       height="24"
       x="48"
       y="2.3841858e-07"
       ry="3.8935676"
       transform="matrix(0.91666666,0,0,0.91666666,2,0)" />
    <rect
       style="fill:#75507b;fill-opacity:1;stroke-width:8.72269;stroke-linecap:square"
       id="rect1271-6-1"
       width="21.864902"
       height="21.864902"
       x="49.014702"
       y="1.1323663"
       ry="3.5471864"
       transform="matrix(0.91666666,0,0,0.91666666,2,0)" />
    <path
       style="fill:#ffffff;fill-opacity:1"
       d="m 53.333333,7.3333333 c 0,2.4444446 0,4.8888887 0,7.3333337 h 7.333333 c 0,-2.444445 0,-4.8888891 0,-7.3333337 z m 1.833333,1.8333333 h 3.666667 c 0,1.2222224 0,2.4444454 0,3.6666674 h -3.666667 c 0,-1.222222 0,-2.444445 0,-3.6666674 z"
       id="path18485" />
  </g>
  <g
     id="hover-center"
     transform="matrix(1.0909091,0,0,1.0909091,-1.0909091,0)">
    <rect
       style="opacity:0.001"
       width="22"
       height="22"
       x="23"
       y="0"
       id="rect18488" />
    <rect
       style="fill:#5c3566;fill-opacity:1;stroke-width:9.57446;stroke-linecap:square"
       id="rect1271-3"
       width="24"
       height="24"
       x="24.000002"
       y="2.3841858e-07"
       ry="3.8935676"
       transform="matrix(0.91666666,0,0,0.91666666,1,0)" />
    <rect
       style="fill:#ad7fa8;fill-opacity:1;stroke-width:8.72269;stroke-linecap:square"
       id="rect1271-6-5"
       width="21.864902"
       height="21.864902"
       x="25.0147"
       y="1.1323663"
       ry="3.5471864"
       transform="matrix(0.91666666,0,0,0.91666666,1,0)" />
    <path
       style="fill:#ffffff;fill-opacity:1"
       d="m 30.333333,7.3333333 c 0,2.4444446 0,4.8888887 0,7.3333337 h 7.333334 c 0,-2.444445 0,-4.8888891 0,-7.3333337 z m 1.833334,1.8333333 h 3.666666 c 0,1.2222224 0,2.4444454 0,3.6666674 h -3.666666 c 0,-1.222222 0,-2.444445 0,-3.6666674 z"
       id="path18492" />
  </g>
  <g
     id="active-center"
     transform="scale(1.0909091)">
    <rect
       style="opacity:0.001"
       width="22"
       height="22"
       x="0"
       y="0"
       id="rect18495" />
    <rect
       style="fill:#5c3566;fill-opacity:1;stroke-width:9.57446;stroke-linecap:square"
       id="rect1271"
       width="24"
       height="24"
       x="0"
       y="0"
       ry="3.8935676"
       transform="scale(0.91666666)" />
    <rect
       style="fill:url(#linearGradient2267);fill-opacity:1;stroke-width:8.72269;stroke-linecap:square"
       id="rect1271-6"
       width="21.864902"
       height="21.864902"
       x="1.0146979"
       y="1.1323667"
       ry="3.5471864"
       transform="scale(0.91666666)" />
    <path
       style="fill:#ffffff;fill-opacity:1"
       d="m 7.3333335,7.3333333 c 0,2.4444446 0,4.8888887 0,7.3333337 h 7.3333325 c 0,-2.444445 0,-4.8888891 0,-7.3333337 z m 1.8333333,1.8333333 h 3.6666662 c 0,1.2222224 0,2.4444454 0,3.6666674 H 9.1666668 c 0,-1.222222 0,-2.444445 0,-3.6666674 z"
       id="path18497" />
  </g>
  <g
     id="inactive-center"
     transform="matrix(1.0909091,0,0,1.0909091,72.000001,0)">
    <rect
       style="opacity:0.001"
       width="22"
       height="22"
       x="0"
       y="0"
       id="rect18500" />
    <rect
       style="fill:#5c3566;fill-opacity:1;stroke-width:9.57446;stroke-linecap:square"
       id="rect1271-0"
       width="24"
       height="24"
       x="72"
       y="0"
       ry="3.8935676"
       transform="matrix(0.91666666,0,0,0.91666666,-66,0)" />
    <rect
       style="fill:url(#linearGradient3869);fill-opacity:1;stroke-width:8.72269;stroke-linecap:square"
       id="rect1271-6-9"
       width="21.864902"
       height="21.864902"
       x="73.014709"
       y="1.132367"
       ry="3.5471864"
       transform="matrix(0.91666666,0,0,0.91666666,-66,0)" />
    <path
       style="opacity:0.7;fill:#ffffff;fill-opacity:1"
       d="m 7.3333334,7.3333333 c 0,2.4444446 0,4.8888887 0,7.3333337 h 7.3333336 c 0,-2.444445 0,-4.8888891 0,-7.3333337 z m 1.8333333,1.8333333 h 3.6666663 c 0,1.2222224 0,2.4444454 0,3.6666674 H 9.1666667 c 0,-1.222222 0,-2.444445 0,-3.6666674 z"
       id="path18502" />
  </g>
  <g
     id="deactivated-center"
     transform="matrix(1.0909091,0,0,1.0909091,96.000001,0)">
    <rect
       style="opacity:0.001"
       width="22"
       height="22"
       x="0"
       y="0"
       id="rect18505" />
    <rect
       style="fill:#5c3566;fill-opacity:1;stroke-width:9.57446;stroke-linecap:square"
       id="rect1271-06"
       width="24"
       height="24"
       x="96"
       y="0"
       ry="3.8935676"
       transform="matrix(0.91666666,0,0,0.91666666,-88,0)" />
    <rect
       style="fill:#302136;fill-opacity:1;stroke-width:8.72269;stroke-linecap:square"
       id="rect1271-6-2"
       width="21.864902"
       height="21.864902"
       x="97.014702"
       y="1.1323667"
       ry="3.5471864"
       transform="matrix(0.91666666,0,0,0.91666666,-88,0)" />
    <path
       style="opacity:0.7;fill:#ffffff;fill-opacity:1"
       d="m 7.3333333,7.3333333 c 0,2.4444446 0,4.8888887 0,7.3333337 h 7.3333337 c 0,-2.444445 0,-4.8888891 0,-7.3333337 z m 1.8333334,1.8333333 h 3.6666663 c 0,1.2222224 0,2.4444454 0,3.6666674 H 9.1666667 c 0,-1.222222 0,-2.444445 0,-3.6666674 z"
       id="path18507" />
  </g>
</svg>
