<?xml version="1.0" encoding="UTF-8" standalone="no"?>
<svg
   width="24"
   height="24"
   version="1.1"
   id="svg22887"
   sodipodi:docname="keepbelow.svg"
   inkscape:version="1.2.2 (b0a8486541, 2022-12-01)"
   xmlns:inkscape="http://www.inkscape.org/namespaces/inkscape"
   xmlns:sodipodi="http://sodipodi.sourceforge.net/DTD/sodipodi-0.dtd"
   xmlns:xlink="http://www.w3.org/1999/xlink"
   xmlns="http://www.w3.org/2000/svg"
   xmlns:svg="http://www.w3.org/2000/svg">
  <defs
     id="defs22891">
    <linearGradient
       inkscape:collect="always"
       xlink:href="#linearGradient3879"
       id="linearGradient3869"
       gradientUnits="userSpaceOnUse"
       x1="11.243627"
       y1="21.049887"
       x2="11.243627"
       y2="0.74593043"
       gradientTransform="matrix(1.0909091,0,0,1.0909091,72,-1.8586426e-7)" />
    <linearGradient
       inkscape:collect="always"
       id="linearGradient3879">
      <stop
         style="stop-color:#68496f;stop-opacity:1;"
         offset="0"
         id="stop3875" />
      <stop
         style="stop-color:#825289;stop-opacity:1;"
         offset="1"
         id="stop3877" />
    </linearGradient>
    <linearGradient
       inkscape:collect="always"
       xlink:href="#linearGradient2265"
       id="linearGradient2267"
       x1="11.243627"
       y1="21.049887"
       x2="11.243627"
       y2="0.74593043"
       gradientUnits="userSpaceOnUse"
       gradientTransform="scale(1.0909091)" />
    <linearGradient
       inkscape:collect="always"
       id="linearGradient2265">
      <stop
         style="stop-color:#8a5f91;stop-opacity:1;"
         offset="0"
         id="stop2261" />
      <stop
         style="stop-color:#a06ea8;stop-opacity:1;"
         offset="1"
         id="stop2263" />
    </linearGradient>
  </defs>
  <sodipodi:namedview
     id="namedview22889"
     pagecolor="#ffffff"
     bordercolor="#000000"
     borderopacity="0.25"
     inkscape:showpageshadow="2"
     inkscape:pageopacity="0.0"
     inkscape:pagecheckerboard="0"
     inkscape:deskcolor="#d1d1d1"
     showgrid="false"
     inkscape:zoom="5.6568543"
     inkscape:cx="52.149125"
     inkscape:cy="19.091883"
     inkscape:window-width="1366"
     inkscape:window-height="712"
     inkscape:window-x="0"
     inkscape:window-y="27"
     inkscape:window-maximized="1"
     inkscape:current-layer="svg22887" />
  <g
     id="active-center"
     transform="matrix(1.0909091,0,0,-1.0909091,0,24)">
    <rect
       style="opacity:0.001"
       width="22"
       height="22"
       x="0"
       y="0"
       id="rect22858" />
    <rect
       style="fill:#5c3566;fill-opacity:1;stroke-width:9.57446;stroke-linecap:square"
       id="rect1271"
       width="24"
       height="24"
       x="3.0000001e-07"
       y="-2e-07"
       ry="3.8935676"
       transform="matrix(0.91666666,0,0,-0.91666666,0,22)" />
    <rect
       style="fill:url(#linearGradient2267);fill-opacity:1;stroke-width:8.72269;stroke-linecap:square"
       id="rect1271-6"
       width="21.864902"
       height="21.864902"
       x="1.0146984"
       y="1.1323664"
       ry="3.5471864"
       transform="matrix(0.91666666,0,0,-0.91666666,0,22)" />
    <path
       style="fill:#fafafa;fill-opacity:1"
       d="M 10.999999,7.3333332 C 12.527777,9.1666664 14.055555,11 15.583333,12.833333 c -3.055556,0 -6.111111,0 -9.1666665,0 C 7.9444445,11 9.4722217,9.1666667 10.999999,7.3333332 Z"
       id="path22860" />
  </g>
  <g
     id="hover-center"
     transform="matrix(1.0909091,0,0,-1.0909091,-1.0909091,24)">
    <rect
       style="opacity:0.001"
       width="22"
       height="22"
       x="23"
       y="0"
       id="rect22863" />
    <rect
       style="fill:#5c3566;fill-opacity:1;stroke-width:9.57446;stroke-linecap:square"
       id="rect1271-3"
       width="24"
       height="24"
       x="24"
       y="-2e-07"
       ry="3.8935676"
       transform="matrix(0.91666666,0,0,-0.91666666,1,22)" />
    <rect
       style="fill:#ad7fa8;fill-opacity:1;stroke-width:8.72269;stroke-linecap:square"
       id="rect1271-6-5"
       width="21.864902"
       height="21.864902"
       x="25.014698"
       y="1.1323661"
       ry="3.5471864"
       transform="matrix(0.91666666,0,0,-0.91666666,1,22)" />
    <path
       style="fill:#fafafa;fill-opacity:1"
       d="m 34.000002,7.3333332 4.583331,5.4999998 h -9.166666 z"
       id="path22867" />
  </g>
  <g
     id="pressed-center"
     transform="matrix(1.0909091,0,0,-1.0909091,-2.1818182,24)">
    <rect
       style="opacity:0.001"
       width="22"
       height="22"
       x="46"
       y="0"
       id="rect22870" />
    <rect
       style="fill:#5c3566;fill-opacity:1;stroke-width:9.57446;stroke-linecap:square"
       id="rect1271-9"
       width="24"
       height="24"
       x="48"
       y="-2e-07"
       ry="3.8935676"
       transform="matrix(0.91666666,0,0,-0.91666666,2,22)" />
    <rect
       style="fill:#75507b;fill-opacity:1;stroke-width:8.72269;stroke-linecap:square"
       id="rect1271-6-1"
       width="21.864902"
       height="21.864902"
       x="49.014702"
       y="1.1323661"
       ry="3.5471864"
       transform="matrix(0.91666666,0,0,-0.91666666,2,22)" />
    <path
       style="fill:#fafafa;fill-opacity:1"
       d="M 57,7.3333332 C 58.527777,9.1666668 60.055555,11 61.583333,12.833333 c -3.055556,0 -6.111111,0 -9.166667,0 C 53.944445,11 55.472222,9.1666668 57,7.3333332 Z"
       id="path22874" />
  </g>
  <g
     id="inactive-center"
     transform="matrix(1.0909091,0,0,-1.0909091,-3.2727273,24)">
    <rect
       style="opacity:0.001"
       width="22"
       height="22"
       x="69"
       y="0"
       id="rect22877" />
    <rect
       style="fill:#5c3566;fill-opacity:1;stroke-width:9.57446;stroke-linecap:square"
       id="rect1271-0"
       width="24"
       height="24"
       x="72"
       y="-2e-07"
       ry="3.8935676"
       transform="matrix(0.91666666,0,0,-0.91666666,3,22)" />
    <rect
       style="fill:url(#linearGradient3869);fill-opacity:1;stroke-width:8.72269;stroke-linecap:square"
       id="rect1271-6-9"
       width="21.864902"
       height="21.864902"
       x="73.014702"
       y="1.1323668"
       ry="3.5471864"
       transform="matrix(0.91666666,0,0,-0.91666666,3,22)" />
    <path
       style="opacity:0.7;fill:#fafafa;fill-opacity:1"
       d="M 80,7.3333332 C 81.527778,9.166666 83.055556,11 84.583333,12.833333 c -3.055555,0 -6.111111,0 -9.166666,0 C 76.944445,11 78.472222,9.1666666 80,7.3333332 Z"
       id="path22879" />
  </g>
  <g
     id="deactivated-center"
     transform="matrix(1.0909091,0,0,-1.0909091,-4.3636364,24)">
    <rect
       style="opacity:0.001"
       width="22"
       height="22"
       x="92"
       y="0"
       id="rect22882" />
    <rect
       style="fill:#5c3566;fill-opacity:1;stroke-width:9.57446;stroke-linecap:square"
       id="rect1271-06"
       width="24"
       height="24"
       x="96"
       y="-2e-07"
       ry="3.8935676"
       transform="matrix(0.91666666,0,0,-0.91666666,4,22)" />
    <rect
       style="fill:#302136;fill-opacity:1;stroke-width:8.72269;stroke-linecap:square"
       id="rect1271-6-2"
       width="21.864902"
       height="21.864902"
       x="97.014702"
       y="1.1323663"
       ry="3.5471864"
       transform="matrix(0.91666666,0,0,-0.91666666,4,22)" />
    <path
       style="opacity:0.7;fill:#fafafa;fill-opacity:1"
       d="m 103,7.3333332 4.58333,5.4999998 h -9.166664 z"
       id="path22884" />
  </g>
</svg>
