<?xml version="1.0" encoding="UTF-8" standalone="no"?>
<svg
   width="24"
   height="24"
   version="1.1"
   id="svg18510"
   sodipodi:docname="shade.svg"
   inkscape:version="1.2.2 (b0a8486541, 2022-12-01)"
   xmlns:inkscape="http://www.inkscape.org/namespaces/inkscape"
   xmlns:sodipodi="http://sodipodi.sourceforge.net/DTD/sodipodi-0.dtd"
   xmlns:xlink="http://www.w3.org/1999/xlink"
   xmlns="http://www.w3.org/2000/svg"
   xmlns:svg="http://www.w3.org/2000/svg">
  <defs
     id="defs18514">
    <linearGradient
       inkscape:collect="always"
       xlink:href="#linearGradient2265"
       id="linearGradient2267"
       x1="11.243627"
       y1="21.049887"
       x2="11.243627"
       y2="0.74593043"
       gradientUnits="userSpaceOnUse"
       gradientTransform="matrix(1.0909091,0,0,1.0909091,1.7235107e-6,5.9719854e-8)" />
    <linearGradient
       inkscape:collect="always"
       id="linearGradient2265">
      <stop
         style="stop-color:#8a5f91;stop-opacity:1;"
         offset="0"
         id="stop2261" />
      <stop
         style="stop-color:#a06ea8;stop-opacity:1;"
         offset="1"
         id="stop2263" />
    </linearGradient>
    <linearGradient
       inkscape:collect="always"
       xlink:href="#linearGradient3879"
       id="linearGradient3869"
       gradientUnits="userSpaceOnUse"
       x1="11.243627"
       y1="21.049887"
       x2="11.243627"
       y2="0.74593043"
       gradientTransform="matrix(1.0909091,0,0,1.0909091,72.000001,5.9719854e-8)" />
    <linearGradient
       inkscape:collect="always"
       id="linearGradient3879">
      <stop
         style="stop-color:#68496f;stop-opacity:1;"
         offset="0"
         id="stop3875" />
      <stop
         style="stop-color:#825289;stop-opacity:1;"
         offset="1"
         id="stop3877" />
    </linearGradient>
  </defs>
  <sodipodi:namedview
     id="namedview18512"
     pagecolor="#ffffff"
     bordercolor="#000000"
     borderopacity="0.25"
     inkscape:showpageshadow="2"
     inkscape:pageopacity="0.0"
     inkscape:pagecheckerboard="0"
     inkscape:deskcolor="#d1d1d1"
     showgrid="false"
     inkscape:zoom="8"
     inkscape:cx="51.4375"
     inkscape:cy="9.25"
     inkscape:window-width="1366"
     inkscape:window-height="712"
     inkscape:window-x="0"
     inkscape:window-y="27"
     inkscape:window-maximized="1"
     inkscape:current-layer="pressed-center" />
  <g
     id="pressed-center"
     transform="matrix(1.0909091,0,0,1.0909091,-2.1818182,0)">
    <rect
       style="opacity:0.001"
       width="22"
       height="22"
       x="46"
       y="0"
       id="rect18481" />
    <rect
       style="fill:#5c3566;fill-opacity:1;stroke-width:9.57446;stroke-linecap:square"
       id="rect1271-9"
       width="24"
       height="24"
       x="48"
       y="2.3841858e-07"
       ry="3.8935676"
       transform="matrix(0.91666666,0,0,0.91666666,2,0)" />
    <rect
       style="fill:#75507b;fill-opacity:1;stroke-width:8.72269;stroke-linecap:square"
       id="rect1271-6-1"
       width="21.864902"
       height="21.864902"
       x="49.014702"
       y="1.1323663"
       ry="3.5471864"
       transform="matrix(0.91666666,0,0,0.91666666,2,0)" />
    <rect
       style="fill:#fbfbfb;fill-opacity:1;stroke-width:8.68666;stroke-linecap:square"
       id="rect49047-4-4"
       width="7.3333335"
       height="1.8776188"
       x="-60.784634"
       y="-9.701026"
       transform="scale(-1)" />
    <path
       style="fill:#fbfbfb;fill-opacity:1;stroke-width:6.39569;stroke-linecap:square"
       d="m 57.773653,14.850396 1.938572,-4.213768 h -1.959616 l -0.826727,4.213768 z"
       id="path50943-6-7"
       sodipodi:nodetypes="ccccc" />
    <path
       style="fill:#fbfbfb;fill-opacity:1;stroke-width:6.39569;stroke-linecap:square"
       d="m 56.251667,14.850395 -1.938569,-4.213767 h 1.959615 l 0.826728,4.213768 z"
       id="path50943-0-2-2"
       sodipodi:nodetypes="ccccc" />
    <path
       style="fill:#fbfbfb;fill-opacity:1;stroke-width:5.30575;stroke-linecap:square"
       d="m 57.528774,13.269257 -0.51619,1.363477 -0.568332,-1.363477 z"
       id="path51693-5-4"
       sodipodi:nodetypes="cccc" />
    <path
       style="opacity:1;fill:#fbfbfb;fill-opacity:1;stroke-width:5.78809;stroke-linecap:square"
       d="m 58.613103,14.96029 1.420044,3.089888 1.375846,-3.077871 z"
       id="path51889"
       sodipodi:nodetypes="cccc"
       transform="matrix(0.91666666,0,0,0.91666666,2,0)" />
  </g>
  <g
     id="hover-center"
     transform="matrix(1.0909091,0,0,1.0909091,-1.0909091,0)">
    <rect
       style="opacity:0.001"
       width="22"
       height="22"
       x="23"
       y="0"
       id="rect18488" />
    <rect
       style="fill:#5c3566;fill-opacity:1;stroke-width:9.57446;stroke-linecap:square"
       id="rect1271-3"
       width="24"
       height="24"
       x="24.000002"
       y="2.3841858e-07"
       ry="3.8935676"
       transform="matrix(0.91666666,0,0,0.91666666,1,0)" />
    <rect
       style="fill:#ad7fa8;fill-opacity:1;stroke-width:8.72269;stroke-linecap:square"
       id="rect1271-6-5"
       width="21.864902"
       height="21.864902"
       x="25.0147"
       y="1.1323663"
       ry="3.5471864"
       transform="matrix(0.91666666,0,0,0.91666666,1,0)" />
    <rect
       style="fill:#fbfbfb;fill-opacity:1;stroke-width:8.68666;stroke-linecap:square"
       id="rect49047-4"
       width="7.3333335"
       height="1.8776188"
       x="30.451302"
       y="7.8234072" />
    <path
       style="fill:#fbfbfb;fill-opacity:1;stroke-width:8.68666;stroke-linecap:square"
       d="m 33.084279,9.4053959 -2.632978,5.7231631 h 2.661561 l 1.122866,-5.7231631 z"
       id="path50943-6"
       sodipodi:nodetypes="ccccc" />
    <path
       style="fill:#fbfbfb;fill-opacity:1;stroke-width:8.68666;stroke-linecap:square"
       d="m 35.15145,9.4053968 2.632977,5.7231622 H 35.122866 L 34,9.4053959 Z"
       id="path50943-0-2"
       sodipodi:nodetypes="ccccc" />
    <path
       style="fill:#fbfbfb;fill-opacity:1;stroke-width:7.2063;stroke-linecap:square"
       d="M 33.416877,11.552908 34.117968,9.7010255 34.88988,11.552908 Z"
       id="path51693-5"
       sodipodi:nodetypes="cccc" />
  </g>
  <g
     id="active-center"
     transform="scale(1.0909091)">
    <rect
       style="opacity:0.001"
       width="22"
       height="22"
       x="0"
       y="0"
       id="rect18495" />
    <rect
       style="fill:#5c3566;fill-opacity:1;stroke-width:9.57446;stroke-linecap:square"
       id="rect1271"
       width="24"
       height="24"
       x="0"
       y="0"
       ry="3.8935676"
       transform="scale(0.91666666)" />
    <rect
       style="fill:url(#linearGradient2267);fill-opacity:1;stroke-width:8.72269;stroke-linecap:square"
       id="rect1271-6"
       width="21.864902"
       height="21.864902"
       x="1.0146979"
       y="1.1323667"
       ry="3.5471864"
       transform="scale(0.91666666)" />
    <rect
       style="opacity:1;fill:#fbfbfb;fill-opacity:1;stroke-width:9.47636;stroke-linecap:square"
       id="rect49047"
       width="8"
       height="2.0483115"
       x="8"
       y="8.534626"
       transform="scale(0.91666666)" />
    <path
       style="opacity:1;fill:#fbfbfb;fill-opacity:1;stroke-width:9.47636;stroke-linecap:square"
       d="M 10.872339,10.260432 8,16.503882 h 2.903521 l 1.224945,-6.24345 z"
       id="path50943"
       sodipodi:nodetypes="ccccc"
       transform="scale(0.91666666)" />
    <path
       style="fill:#fbfbfb;fill-opacity:1;stroke-width:9.47636;stroke-linecap:square"
       d="m 13.127435,10.260433 2.872339,6.243449 h -2.903521 l -1.224945,-6.24345 z"
       id="path50943-0"
       sodipodi:nodetypes="ccccc"
       transform="scale(0.91666666)" />
    <path
       style="opacity:1;fill:#fbfbfb;fill-opacity:1;stroke-width:7.86142;stroke-linecap:square"
       d="M 11.235174,12.603172 12,10.582937 l 0.842086,2.020235 z"
       id="path51693"
       sodipodi:nodetypes="cccc"
       transform="scale(0.91666666)" />
  </g>
  <g
     id="inactive-center"
     transform="matrix(1.0909091,0,0,1.0909091,72.000001,0)">
    <rect
       style="opacity:0.001"
       width="22"
       height="22"
       x="0"
       y="0"
       id="rect18500" />
    <rect
       style="fill:#5c3566;fill-opacity:1;stroke-width:9.57446;stroke-linecap:square"
       id="rect1271-0"
       width="24"
       height="24"
       x="72"
       y="0"
       ry="3.8935676"
       transform="matrix(0.91666666,0,0,0.91666666,-66,0)" />
    <rect
       style="fill:url(#linearGradient3869);fill-opacity:1;stroke-width:8.72269;stroke-linecap:square"
       id="rect1271-6-9"
       width="21.864902"
       height="21.864902"
       x="73.014709"
       y="1.132367"
       ry="3.5471864"
       transform="matrix(0.91666666,0,0,0.91666666,-66,0)" />
    <rect
       style="fill:#d6d6d6;fill-opacity:1;stroke-width:9.47636;stroke-linecap:square"
       id="rect49047-4-0"
       width="8"
       height="2.0483115"
       x="79.871544"
       y="8.534626"
       transform="matrix(0.91666666,0,0,0.91666666,-66,0)" />
    <path
       style="fill:#d6d6d6;fill-opacity:1;stroke-width:9.47636;stroke-linecap:square"
       d="m 82.743874,10.260432 -2.87234,6.243451 h 2.903521 L 84,10.260432 Z"
       id="path50943-6-6"
       sodipodi:nodetypes="ccccc"
       transform="matrix(0.91666666,0,0,0.91666666,-66,0)" />
    <path
       style="fill:#d6d6d6;fill-opacity:1;stroke-width:9.47636;stroke-linecap:square"
       d="m 84.99897,10.260433 2.872338,6.24345 h -2.903521 l -1.224945,-6.243451 z"
       id="path50943-0-2-29"
       sodipodi:nodetypes="ccccc"
       transform="matrix(0.91666666,0,0,0.91666666,-66,0)" />
    <path
       style="fill:#d6d6d6;fill-opacity:1;stroke-width:7.86142;stroke-linecap:square"
       d="m 83.106708,12.603173 0.764827,-2.020236 0.842086,2.020236 z"
       id="path51693-5-9"
       sodipodi:nodetypes="cccc"
       transform="matrix(0.91666666,0,0,0.91666666,-66,0)" />
  </g>
  <g
     id="deactivated-center"
     transform="matrix(1.0909091,0,0,1.0909091,96.000001,0)">
    <rect
       style="opacity:0.001"
       width="22"
       height="22"
       x="0"
       y="0"
       id="rect18505" />
    <rect
       style="fill:#5c3566;fill-opacity:1;stroke-width:9.57446;stroke-linecap:square"
       id="rect1271-06"
       width="24"
       height="24"
       x="96"
       y="0"
       ry="3.8935676"
       transform="matrix(0.91666666,0,0,0.91666666,-88,0)" />
    <rect
       style="fill:#302136;fill-opacity:1;stroke-width:8.72269;stroke-linecap:square"
       id="rect1271-6-2"
       width="21.864902"
       height="21.864902"
       x="97.014702"
       y="1.1323667"
       ry="3.5471864"
       transform="matrix(0.91666666,0,0,0.91666666,-88,0)" />
    <rect
       style="fill:#d6d6d6;fill-opacity:1;stroke-width:9.47636;stroke-linecap:square"
       id="rect49047-4-0-0"
       width="8"
       height="2.0483115"
       x="103.87154"
       y="8.534626"
       transform="matrix(0.91666666,0,0,0.91666666,-88,0)" />
    <path
       style="fill:#d6d6d6;fill-opacity:1;stroke-width:9.47636;stroke-linecap:square"
       d="m 106.74387,10.260432 -2.87234,6.243451 h 2.90352 L 108,10.260432 Z"
       id="path50943-6-6-8"
       sodipodi:nodetypes="ccccc"
       transform="matrix(0.91666666,0,0,0.91666666,-88,0)" />
    <path
       style="fill:#d6d6d6;fill-opacity:1;stroke-width:9.47636;stroke-linecap:square"
       d="m 108.99897,10.260433 2.87233,6.24345 h -2.90352 l -1.22494,-6.243451 z"
       id="path50943-0-2-29-1"
       sodipodi:nodetypes="ccccc"
       transform="matrix(0.91666666,0,0,0.91666666,-88,0)" />
    <path
       style="fill:#d6d6d6;fill-opacity:1;stroke-width:7.86142;stroke-linecap:square"
       d="m 107.1067,12.603173 0.76483,-2.020236 0.84209,2.020236 z"
       id="path51693-5-9-3"
       sodipodi:nodetypes="cccc"
       transform="matrix(0.91666666,0,0,0.91666666,-88,0)" />
  </g>
</svg>
