<?xml version="1.0" encoding="UTF-8" standalone="no"?>
<svg
   width="32"
   height="32"
   version="1.1"
   viewBox="0 0 32 32"
   id="svg12"
   sodipodi:docname="applications.svg"
   inkscape:version="1.2.2 (b0a8486541, 2022-12-01)"
   xml:space="preserve"
   xmlns:inkscape="http://www.inkscape.org/namespaces/inkscape"
   xmlns:sodipodi="http://sodipodi.sourceforge.net/DTD/sodipodi-0.dtd"
   xmlns="http://www.w3.org/2000/svg"
   xmlns:svg="http://www.w3.org/2000/svg"
   xmlns:rdf="http://www.w3.org/1999/02/22-rdf-syntax-ns#"
   xmlns:cc="http://creativecommons.org/ns#"
   xmlns:dc="http://purl.org/dc/elements/1.1/"><metadata
     id="metadata16"><rdf:RDF><cc:Work
         rdf:about=""><dc:format>image/svg+xml</dc:format><dc:type
           rdf:resource="http://purl.org/dc/dcmitype/StillImage" /></cc:Work></rdf:RDF></metadata><sodipodi:namedview
     pagecolor="#ffffff"
     bordercolor="#666666"
     borderopacity="1"
     objecttolerance="10"
     gridtolerance="10"
     guidetolerance="10"
     inkscape:pageopacity="0"
     inkscape:pageshadow="2"
     inkscape:window-width="1920"
     inkscape:window-height="1021"
     id="namedview14"
     showgrid="false"
     inkscape:zoom="11.159029"
     inkscape:cx="0.6721015"
     inkscape:cy="12.366668"
     inkscape:window-x="0"
     inkscape:window-y="32"
     inkscape:window-maximized="1"
     inkscape:current-layer="svg12"
     inkscape:showpageshadow="2"
     inkscape:pagecheckerboard="0"
     inkscape:deskcolor="#d1d1d1" /><defs
     id="defs5"><style
       id="current-color-scheme"
       type="text/css">.ColorScheme-Text { color:#333333; } .ColorScheme-Highlight { color:#5294e2; } .ColorScheme-ButtonBackground { color:#333333; }</style><style
       type="text/css"
       id="style3" /></defs><g
     id="22-22-applications-other"><rect
       x="-29"
       y="6"
       width="22"
       height="22"
       rx="0"
       ry="0"
       opacity="0"
       id="rect14" /><g
       transform="translate(-26,10)"
       class="ColorScheme-Text"
       fill="currentColor"
       id="g20"><path
         d="M 1,0 C 0.446,0 0,0.446 0,1 V 6 C 0,6.554 0.446,7 1,7 H 6 C 6.554,7 7,6.554 7,6 V 1 C 7,0.446 6.554,0 6,0 Z"
         style="paint-order:stroke fill markers"
         id="path16" /><path
         d="M 9,0 C 8.446,0 8,0.446 8,1 v 5 c 0,0.554 0.446,1 1,1 h 5 c 0.554,0 1,-0.446 1,-1 V 1 C 15,0.446 14.554,0 14,0 Z m 1,2 h 3 V 5 H 10 Z M 1,8 C 0.446,8 0,8.446 0,9 v 5 c 0,0.554 0.446,1 1,1 h 5 c 0.554,0 1,-0.446 1,-1 V 9 C 7,8.446 6.554,8 6,8 Z M 9,8 C 8.446,8 8,8.446 8,9 v 5 c 0,0.554 0.446,1 1,1 h 5 c 0.554,0 1,-0.446 1,-1 V 9 C 15,8.446 14.554,8 14,8 Z m -7,2 h 3 v 3 H 2 Z m 8,0 h 3 v 3 h -3 z"
         opacity="0.5"
         id="path18" /></g></g><g
     inkscape:label="applications-other"
     id="layer1"
     transform="matrix(1.8917544,0,0,1.8917544,3.4849202e-5,-0.03374365)"><circle
       style="fill:none;stroke:#ffffff;stroke-width:1.2;stroke-linecap:square;stroke-dasharray:none;stroke-opacity:1"
       id="path234"
       cx="8.4577389"
       cy="8.4755945"
       r="7.8755946" /><path
       style="fill:#ffffff;fill-opacity:1;stroke:none;stroke-width:1.2;stroke-linecap:square;stroke-dasharray:none;stroke-opacity:1"
       d="M 8.7332051,6.7587694 C 12.587829,5.7627049 12.537447,15.67672 7.2057546,14.388146 1.2595856,12.951065 5.9109892,4.7280999 8.7332051,6.7587694 Z"
       id="path4010"
       sodipodi:nodetypes="csc" /><path
       style="fill:#ffffff;fill-opacity:1;stroke:none;stroke-width:1.2;stroke-linecap:square;stroke-dasharray:none;stroke-opacity:1"
       d="M 8.1464513,6.749883 C 8.9589604,5.9252215 8.8957631,4.6170139 8.7171017,3.2194333 L 8.4130814,2.986126 C 8.3417968,2.9180893 8.3404609,2.8683108 8.3906333,2.8373766 L 9.35975,2.8019008 c 0.060586,0.010539 0.034123,0.069834 -0.014599,0.1334158 L 9.1534523,3.2014824 c 0.3003801,1.390649 0.077958,2.6304684 -0.1754179,3.8613575 z"
       id="path5520"
       sodipodi:nodetypes="ccccccccc" /><path
       style="fill:#ffffff;fill-opacity:1;stroke:none;stroke-width:1.06365;stroke-linecap:square;stroke-dasharray:none;stroke-opacity:1"
       d="M 8.9358651,5.1154563 C 8.8613148,4.9196145 8.9292475,4.9279451 8.8558009,4.75082 6.7611689,-0.30063009 4.9646181,1.9152624 3.2471026,3.2593361 5.4722826,1.6406317 7.439176,1.6133164 8.9358651,5.1154563 Z"
       id="path8489"
       sodipodi:nodetypes="cscc" /><path
       style="fill:#ffffff;fill-opacity:1;stroke:none;stroke-width:1.06365;stroke-linecap:square;stroke-dasharray:none;stroke-opacity:1"
       d="M 8.9358651,5.1154563 C 7.0160611,1.4375503 5.0394044,2.3628824 3.2471026,3.2593361 5.6740263,2.976914 7.3636842,5.1569085 8.9358651,5.1154563 Z"
       id="path8491"
       sodipodi:nodetypes="ccc" /><path
       style="mix-blend-mode:normal;fill:#ffffff;fill-opacity:1;stroke:none;stroke-width:1.2;stroke-linecap:square;stroke-dasharray:none;stroke-opacity:1"
       d="M 15.672996,5.0496389 C 10.442177,1.3206849 9.7473967,4.5881649 8.4293154,6.894256 10.13798,4.11536 12.321547,2.8905128 15.672996,5.0496389 Z"
       id="path8489-3"
       sodipodi:nodetypes="ccc" /><path
       style="mix-blend-mode:normal;fill:#ffffff;fill-opacity:1;stroke:none;stroke-width:1.2;stroke-linecap:square;stroke-dasharray:none;stroke-opacity:1"
       d="M 15.672996,5.0496389 C 11.764691,2.9946195 10.000984,5.013387 8.4293154,6.894256 11.004283,5.1646968 13.937035,6.0459036 15.672996,5.0496389 Z"
       id="path8491-6"
       sodipodi:nodetypes="ccc" /></g></svg>
