/* XPM */
static char * closeI_xpm[] = {
"26 54 128 2",
"  	c #845B8B",
". 	c #845C8B",
"+ 	c #845C8C",
"@ 	c #855B8B",
"# 	c #855B8C",
"$ 	c #855C8B",
"% 	c #835B8B",
"& 	c #835B8A",
"* 	c #845B8A",
"= 	c #835C8B",
"- 	c #845C8A",
"; 	c #835A8A",
"> 	c #7A5082",
", 	c #673F70",
"' 	c #5C3566",
") 	c #7A5182",
"! 	c #835A89",
"~ 	c #825A89",
"{ 	c #825B89",
"] 	c #774C7F",
"^ 	c #643C6D",
"/ 	c #6D4874",
"( 	c #75507B",
"_ 	c #663D6F",
": 	c #774D7F",
"< 	c #825A88",
"[ 	c #7A5081",
"} 	c #633B6D",
"| 	c #734E7A",
"1 	c #795181",
"2 	c #825988",
"3 	c #815A88",
"4 	c #815988",
"5 	c #663F6F",
"6 	c #673E70",
"7 	c #805888",
"8 	c #815987",
"9 	c #805987",
"0 	c #805886",
"a 	c #805986",
"b 	c #7F5886",
"c 	c #7F5786",
"d 	c #7F5785",
"e 	c #836389",
"f 	c #D0C7D0",
"g 	c #84648A",
"h 	c #836288",
"i 	c #CFC6D0",
"j 	c #85658A",
"k 	c #7F5885",
"l 	c #7E5785",
"m 	c #EEEEEC",
"n 	c #DCD7DC",
"o 	c #815F86",
"p 	c #DED9DD",
"q 	c #CFC5CF",
"r 	c #7E5784",
"s 	c #7E5684",
"t 	c #DAD4D9",
"u 	c #DDD8DD",
"v 	c #DCD6DB",
"w 	c #826187",
"x 	c #7D5684",
"y 	c #7D5683",
"z 	c #7F5E85",
"A 	c #D9D2D8",
"B 	c #816086",
"C 	c #7C5683",
"D 	c #DBD6DA",
"E 	c #7C5682",
"F 	c #7C5583",
"G 	c #7C5582",
"H 	c #7B5582",
"I 	c #7B5481",
"J 	c #7B5482",
"K 	c #7B5480",
"L 	c #7A5480",
"M 	c #7A5381",
"N 	c #795380",
"O 	c #79537F",
"P 	c #7A5380",
"Q 	c #5D3768",
"R 	c #78527E",
"S 	c #78537E",
"T 	c #643C6C",
"U 	c #78527F",
"V 	c #77537E",
"W 	c #6F4976",
"X 	c #633C6D",
"Y 	c #77527D",
"Z 	c #78517D",
"` 	c #77517E",
" .	c #6D4676",
"..	c #61396A",
"+.	c #6E4677",
"@.	c #77527E",
"#.	c #77517D",
"$.	c #76517D",
"%.	c #76517C",
"&.	c #6C4774",
"*.	c #633C6C",
"=.	c #5D3667",
"-.	c #6D4775",
";.	c #76527D",
">.	c #77527C",
",.	c #76507C",
"'.	c #734E79",
").	c #724E78",
"!.	c #714D77",
"~.	c #75507C",
"{.	c #75517B",
"].	c #76507B",
"^.	c #76517B",
"/.	c #75517C",
"(.	c #5E3768",
"_.	c #855C8C",
":.	c #835C8A",
"<.	c #835A8B",
"[.	c #845A8A",
"}.	c #825A8A",
"|.	c #815888",
"1.	c #805887",
"2.	c #7D5685",
"3.	c #7D5784",
"4.	c #7B5581",
"5.	c #7A5481",
"6.	c #79527E",
"7.	c #77517C",
"  . + @       @ . # + $ + . @     @   .   #     . . ",
"%       & * % &       =     & * * &   * - * %       ",
"; & ; & > , ' ' ' ' ' ' ' ' ' ' ' ' ' ' , ) & & ; & ",
"! ~ { ] ^ / ( ( ( ( ( ( ( ( ( ( ( ( ( ( / _ : { ! ! ",
"< < [ } | ( ( ( ( ( ( ( ( ( ( ( ( ( ( ( ( | } 1 2 2 ",
"3 4 5 / ( ( ( ( ( ( ( ( ( ( ( ( ( ( ( ( ( ( / 6 3 3 ",
"7 4 ' ( ( ( ( ( ( ( ( ( ( ( ( ( ( ( ( ( ( ( ( ' 8 9 ",
"9 0 ' ( ( ( ( ( ( ( ( ( ( ( ( ( ( ( ( ( ( ( ( ' a 0 ",
"0 b ' ( ( ( ( ( ( ( ( ( ( ( ( ( ( ( ( ( ( ( ( ' b 0 ",
"c d ' ( ( ( ( ( ( e f g ( ( h i j ( ( ( ( ( ( ' k b ",
"l l ' ( ( ( ( ( ( i m n o e p m q ( ( ( ( ( ( ' d l ",
"r s ' ( ( ( ( ( ( h n m t u m v w ( ( ( ( ( ( ' s l ",
"x y ' ( ( ( ( ( ( ( z A m m t B ( ( ( ( ( ( ( ' x x ",
"C C ' ( ( ( ( ( ( ( z A m m D w ( ( ( ( ( ( ( ' E F ",
"G G ' ( ( ( ( ( ( h n m A t m n h ( ( ( ( ( ( ' F G ",
"H I ' ( ( ( ( ( ( i m v z o n m i ( ( ( ( ( ( ' J H ",
"I K ' ( ( ( ( ( ( g q w ( ( h q g ( ( ( ( ( ( ' I I ",
"L L ' ( ( ( ( ( ( ( ( ( ( ( ( ( ( ( ( ( ( ( ( ' L M ",
"N O ' ( ( ( ( ( ( ( ( ( ( ( ( ( ( ( ( ( ( ( ( ' P L ",
"O O Q ( ( ( ( ( ( ( ( ( ( ( ( ( ( ( ( ( ( ( ( ' O O ",
"R S T / ( ( ( ( ( ( ( ( ( ( ( ( ( ( ( ( ( ( / T S U ",
"R V W } | ( ( ( ( ( ( ( ( ( ( ( ( ( ( ( ( | X W R R ",
"Y Z `  .../ ( ( ( ( ( ( ( ( ( ( ( ( ( ( / } +.Y Y @.",
"#.$.#.%.&.*.=.' ' ' ' ' ' ' ' ' ' ' ' =.*.-.;.#.>.$.",
"%.%.,.%.%.'.).!.!.!.!.!.!.!.!.!.!.!.!.).'.,.%.%.%.%.",
"~.{.].~.,.( ( ].~.( ( ( ( ( %.^.{.].( ].{./.~.( ].( ",
"' ' ' ' ' ' ' ' ' ' ' ' ' ' (.' ' ' ' ' ' ' ' (.' ' ",
"_._.$ + + @ . $ @ # # + $ $ @ $ + + . $ # . _.$ . _.",
"      *   :.    *     .   * *     *   .           . ",
"& <.* & > , ' ' ' ' ' ' ' ' ' ' ' ' ' ' , ) [.; [.; ",
"; ! ! ] ^ / ( ( ( ( ( ( ( ( ( ( ( ( ( ( / _ : }.! ! ",
"! ~ [ } | ( ( ( ( ( ( ( ( ( ( ( ( ( ( ( ( | } 1 ~ < ",
"4 4 5 / ( ( ( ( ( ( ( ( ( ( ( ( ( ( ( ( ( ( / 6 4 < ",
"9 |.' ( ( ( ( ( ( ( ( ( ( ( ( ( ( ( ( ( ( ( ( ' 4 8 ",
"1.9 ' ( ( ( ( ( ( ( ( ( ( ( ( ( ( ( ( ( ( ( ( ' 9 1.",
"0 0 ' ( ( ( ( ( ( ( ( ( ( ( ( ( ( ( ( ( ( ( ( ' 0 0 ",
"d b ' ( ( ( ( ( ( e f g ( ( h i j ( ( ( ( ( ( ' c d ",
"l l ' ( ( ( ( ( ( i m n o e p m q ( ( ( ( ( ( ' l d ",
"2.s ' ( ( ( ( ( ( h n m t u m v w ( ( ( ( ( ( ' r 3.",
"y x ' ( ( ( ( ( ( ( z A m m t B ( ( ( ( ( ( ( ' x 3.",
"C y ' ( ( ( ( ( ( ( z A m m D w ( ( ( ( ( ( ( ' F G ",
"E G ' ( ( ( ( ( ( h n m A t m n h ( ( ( ( ( ( ' G G ",
"H 4.' ( ( ( ( ( ( i m v z o n m i ( ( ( ( ( ( ' H 4.",
"I I ' ( ( ( ( ( ( g q w ( ( h q g ( ( ( ( ( ( ' L 5.",
"P P ' ( ( ( ( ( ( ( ( ( ( ( ( ( ( ( ( ( ( ( ( ' 5.5.",
"O N ' ( ( ( ( ( ( ( ( ( ( ( ( ( ( ( ( ( ( ( ( ' L P ",
"O O Q ( ( ( ( ( ( ( ( ( ( ( ( ( ( ( ( ( ( ( ( ' O O ",
"6.S T / ( ( ( ( ( ( ( ( ( ( ( ( ( ( ( ( ( ( / T S U ",
"R R W } | ( ( ( ( ( ( ( ( ( ( ( ( ( ( ( ( | X W R @.",
"#.#.#. .../ ( ( ( ( ( ( ( ( ( ( ( ( ( ( / } +.Y Y @.",
"%.$.7.$.&.*.=.' ' ' ' ' ' ' ' ' ' ' ' =.*.-.%.#.%.$.",
"%.^.%.%.].'.).!.!.!.!.!.!.!.!.!.!.!.!.).'.%.].~.%.%.",
"( ( {.( ( ].].( ( ~.{.~.( ( ( ( ( ( {.( ( {.( ,.( {.",
"' ' ' ' ' ' ' ' ' ' ' ' ' ' ' ' ' ' ' ' ' ' ' ' ' ' "};
