/* XPM */
static char * closeA_xpm[] = {
"26 54 202 2",
"  	c #845B8B",
". 	c #845C8B",
"+ 	c #845C8C",
"@ 	c #855B8B",
"# 	c #855B8C",
"$ 	c #855C8B",
"% 	c #835B8B",
"& 	c #835B8A",
"* 	c #845B8A",
"= 	c #835C8B",
"- 	c #845C8A",
"; 	c #835A8A",
"> 	c #7A5082",
", 	c #673F70",
"' 	c #5E3768",
") 	c #5C3566",
"! 	c #7A5182",
"~ 	c #835A89",
"{ 	c #825A89",
"] 	c #825B89",
"^ 	c #774C7F",
"/ 	c #643C6D",
"( 	c #8C5F94",
"_ 	c #A274A9",
": 	c #A578AD",
"< 	c #8D6095",
"[ 	c #663D6F",
"} 	c #774D7F",
"| 	c #825A88",
"1 	c #7A5081",
"2 	c #633B6D",
"3 	c #9D71A6",
"4 	c #A070A8",
"5 	c #9E6EA6",
"6 	c #9E6DA6",
"7 	c #9D70A6",
"8 	c #795181",
"9 	c #825988",
"0 	c #815A88",
"a 	c #815988",
"b 	c #663F6F",
"c 	c #8A5D93",
"d 	c #9D6DA5",
"e 	c #9D6CA5",
"f 	c #8A5D92",
"g 	c #673E70",
"h 	c #805888",
"i 	c #9B6BA3",
"j 	c #9C6BA4",
"k 	c #9A6BA3",
"l 	c #815987",
"m 	c #805987",
"n 	c #805886",
"o 	c #9B6CA3",
"p 	c #805986",
"q 	c #7F5886",
"r 	c #9A6AA2",
"s 	c #7F5786",
"t 	c #7F5785",
"u 	c #9969A1",
"v 	c #A379AA",
"w 	c #D9CDDA",
"x 	c #A47AAB",
"y 	c #A378AA",
"z 	c #D8CCD9",
"A 	c #A57BAB",
"B 	c #7F5885",
"C 	c #7E5785",
"D 	c #98689F",
"E 	c #EEEEEC",
"F 	c #E1DAE1",
"G 	c #A075A6",
"H 	c #A278A8",
"I 	c #E3DCE2",
"J 	c #7E5784",
"K 	c #7E5684",
"L 	c #97689E",
"M 	c #A177A7",
"N 	c #E0D8DF",
"O 	c #E2DBE2",
"P 	c #E1DAE0",
"Q 	c #A077A7",
"R 	c #7D5684",
"S 	c #7D5683",
"T 	c #96679D",
"U 	c #9D73A4",
"V 	c #DED6DE",
"W 	c #9F74A5",
"X 	c #7C5683",
"Y 	c #94669C",
"Z 	c #9C72A3",
"` 	c #E0D9DF",
" .	c #9D74A4",
"..	c #7C5682",
"+.	c #7C5583",
"@.	c #7C5582",
"#.	c #93659B",
"$.	c #9D75A4",
"%.	c #E0DAE0",
"&.	c #DED6DD",
"*.	c #DFD8DF",
"=.	c #7B5582",
"-.	c #7B5481",
";.	c #92659A",
">.	c #D7CBD8",
",.	c #E0D9E0",
"'.	c #9A71A1",
").	c #9B72A2",
"!.	c #7B5482",
"~.	c #7B5480",
"{.	c #916498",
"].	c #9D75A3",
"^.	c #D6CAD7",
"/.	c #9B73A1",
"(.	c #9C74A2",
"_.	c #7A5480",
":.	c #906397",
"<.	c #7A5381",
"[.	c #795380",
"}.	c #79537F",
"|.	c #8F6296",
"1.	c #7A5380",
"2.	c #5D3768",
"3.	c #8C6092",
"4.	c #8E6295",
"5.	c #8B6093",
"6.	c #5D3668",
"7.	c #78527E",
"8.	c #78537E",
"9.	c #643C6C",
"0.	c #7E5385",
"a.	c #8D6194",
"b.	c #7D5285",
"c.	c #78527F",
"d.	c #77537E",
"e.	c #6F4976",
"f.	c #895E90",
"g.	c #8C6093",
"h.	c #633C6D",
"i.	c #77527D",
"j.	c #78517D",
"k.	c #77517E",
"l.	c #6D4676",
"m.	c #61396A",
"n.	c #7C5183",
"o.	c #885D90",
"p.	c #8B5F92",
"q.	c #885C8F",
"r.	c #6E4677",
"s.	c #77527E",
"t.	c #77517D",
"u.	c #76517D",
"v.	c #76517C",
"w.	c #6C4774",
"x.	c #633C6C",
"y.	c #5D3667",
"z.	c #6D4775",
"A.	c #76527D",
"B.	c #77527C",
"C.	c #76507C",
"D.	c #734E79",
"E.	c #724E78",
"F.	c #714D77",
"G.	c #75507C",
"H.	c #75517B",
"I.	c #76507B",
"J.	c #75507B",
"K.	c #76517B",
"L.	c #75517C",
"M.	c #855C8C",
"N.	c #835C8A",
"O.	c #835A8B",
"P.	c #845A8A",
"Q.	c #6D4874",
"R.	c #825A8A",
"S.	c #734E7A",
"T.	c #815888",
"U.	c #805887",
"V.	c #836389",
"W.	c #D0C7D0",
"X.	c #84648A",
"Y.	c #836288",
"Z.	c #CFC6D0",
"`.	c #85658A",
" +	c #DCD7DC",
".+	c #815F86",
"++	c #DED9DD",
"@+	c #CFC5CF",
"#+	c #7D5685",
"$+	c #DAD4D9",
"%+	c #DDD8DD",
"&+	c #DCD6DB",
"*+	c #826187",
"=+	c #7D5784",
"-+	c #7F5E85",
";+	c #D9D2D8",
">+	c #816086",
",+	c #DBD6DA",
"'+	c #7B5581",
")+	c #7A5481",
"!+	c #79527E",
"~+	c #77517C",
"  . + @       @ . # + $ + . @     @   .   #     . . ",
"%       & * % &       =     & * * &   * - * %       ",
"; & ; & > , ' ) ) ) ) ) ) ) ) ) ) ) ) ' , ! & & ; & ",
"~ { ] ^ / ( _ : : : : : : : : : : : : _ < [ } ] ~ ~ ",
"| | 1 2 3 4 5 6 6 6 6 6 6 6 6 6 6 6 6 5 4 7 2 8 9 9 ",
"0 a b c d e e e e e e e e e e e e e e e e d f g 0 0 ",
"h a ' i j j j j j j j j j j j j j j j j j j k ' l m ",
"m n ) o i i i i i i i i i i i i i i i i i i o ) p n ",
"n q ) r r r r r r r r r r r r r r r r r r r r ) q n ",
"s t ) u u u u u u v w x u u y z A u u u u u u ) B q ",
"C C ) D D D D D D z E F G H I E z D D D D D D ) t C ",
"J K ) L L L L L L M F E N O E P Q L L L L L L ) K C ",
"R S ) T T T T T T T U V E E N W T T T T T T T ) R R ",
"X X ) Y Y Y Y Y Y Y Z V E E `  .Y Y Y Y Y Y Y ) ..+.",
"@.@.) #.#.#.#.#.#.$.%.E &.*.E %.$.#.#.#.#.#.#.) +.@.",
"=.-.) ;.;.;.;.;.;.>.E ,.'.).%.E >.;.;.;.;.;.;.) !.=.",
"-.~.) {.{.{.{.{.{.].^./.{.{.(.^.].{.{.{.{.{.{.) -.-.",
"_._.) :.:.:.:.:.:.:.:.:.:.:.:.:.:.:.:.:.:.:.:.) _.<.",
"[.}.) |.|.|.|.|.|.|.|.|.|.|.|.|.|.|.|.|.|.|.|.) 1._.",
"}.}.2.3.4.4.4.4.4.4.4.4.4.4.4.4.4.4.4.4.4.4.5.6.}.}.",
"7.8.9.0.a.a.a.a.a.a.a.a.a.a.a.a.a.a.a.a.a.a.b.9.8.c.",
"7.d.e.2 f.g.g.g.g.g.g.g.g.g.g.g.g.g.g.g.g.f.h.e.7.7.",
"i.j.k.l.m.n.o.p.p.p.p.p.p.p.p.p.p.p.p.q.n.2 r.i.i.s.",
"t.u.t.v.w.x.y.) ) ) ) ) ) ) ) ) ) ) ) y.x.z.A.t.B.u.",
"v.v.C.v.v.D.E.F.F.F.F.F.F.F.F.F.F.F.F.E.D.C.v.v.v.v.",
"G.H.I.G.C.J.J.I.G.J.J.J.J.J.v.K.H.I.J.I.H.L.G.J.I.J.",
") ) ) ) ) ) ) ) ) ) ) ) ) ) ' ) ) ) ) ) ) ) ) ' ) ) ",
"M.M.$ + + @ . $ @ # # + $ $ @ $ + + . $ # . M.$ . M.",
"      *   N.    *     .   * *     *   .           . ",
"& O.* & > , ) ) ) ) ) ) ) ) ) ) ) ) ) ) , ! P.; P.; ",
"; ~ ~ ^ / Q.J.J.J.J.J.J.J.J.J.J.J.J.J.J.Q.[ } R.~ ~ ",
"~ { 1 2 S.J.J.J.J.J.J.J.J.J.J.J.J.J.J.J.J.S.2 8 { | ",
"a a b Q.J.J.J.J.J.J.J.J.J.J.J.J.J.J.J.J.J.J.Q.g a | ",
"m T.) J.J.J.J.J.J.J.J.J.J.J.J.J.J.J.J.J.J.J.J.) a l ",
"U.m ) J.J.J.J.J.J.J.J.J.J.J.J.J.J.J.J.J.J.J.J.) m U.",
"n n ) J.J.J.J.J.J.J.J.J.J.J.J.J.J.J.J.J.J.J.J.) n n ",
"t q ) J.J.J.J.J.J.V.W.X.J.J.Y.Z.`.J.J.J.J.J.J.) s t ",
"C C ) J.J.J.J.J.J.Z.E  +.+V.++E @+J.J.J.J.J.J.) C t ",
"#+K ) J.J.J.J.J.J.Y. +E $+%+E &+*+J.J.J.J.J.J.) J =+",
"S R ) J.J.J.J.J.J.J.-+;+E E $+>+J.J.J.J.J.J.J.) R =+",
"X S ) J.J.J.J.J.J.J.-+;+E E ,+*+J.J.J.J.J.J.J.) +.@.",
"..@.) J.J.J.J.J.J.Y. +E ;+$+E  +Y.J.J.J.J.J.J.) @.@.",
"=.'+) J.J.J.J.J.J.Z.E &+-+.+ +E Z.J.J.J.J.J.J.) =.'+",
"-.-.) J.J.J.J.J.J.X.@+*+J.J.Y.@+X.J.J.J.J.J.J.) _.)+",
"1.1.) J.J.J.J.J.J.J.J.J.J.J.J.J.J.J.J.J.J.J.J.) )+)+",
"}.[.) J.J.J.J.J.J.J.J.J.J.J.J.J.J.J.J.J.J.J.J.) _.1.",
"}.}.2.J.J.J.J.J.J.J.J.J.J.J.J.J.J.J.J.J.J.J.J.) }.}.",
"!+8.9.Q.J.J.J.J.J.J.J.J.J.J.J.J.J.J.J.J.J.J.Q.9.8.c.",
"7.7.e.2 S.J.J.J.J.J.J.J.J.J.J.J.J.J.J.J.J.S.h.e.7.s.",
"t.t.t.l.m.Q.J.J.J.J.J.J.J.J.J.J.J.J.J.J.Q.2 r.i.i.s.",
"v.u.~+u.w.x.y.) ) ) ) ) ) ) ) ) ) ) ) y.x.z.v.t.v.u.",
"v.K.v.v.I.D.E.F.F.F.F.F.F.F.F.F.F.F.F.E.D.v.I.G.v.v.",
"J.J.H.J.J.I.I.J.J.G.H.G.J.J.J.J.J.J.H.J.J.H.J.C.J.H.",
") ) ) ) ) ) ) ) ) ) ) ) ) ) ) ) ) ) ) ) ) ) ) ) ) ) "};
