/* XPM */
static char * depthI_xpm[] = {
"26 54 153 2",
"  	c #845B8B",
". 	c #845C8B",
"+ 	c #845C8C",
"@ 	c #855B8B",
"# 	c #855B8C",
"$ 	c #855C8B",
"% 	c #835B8B",
"& 	c #835B8A",
"* 	c #845B8A",
"= 	c #835C8B",
"- 	c #845C8A",
"; 	c #835A8A",
"> 	c #7A5082",
", 	c #673F70",
"' 	c #5C3566",
") 	c #7A5182",
"! 	c #835A89",
"~ 	c #825A89",
"{ 	c #825B89",
"] 	c #774C7F",
"^ 	c #643C6D",
"/ 	c #6D4874",
"( 	c #75507B",
"_ 	c #663D6F",
": 	c #774D7F",
"< 	c #825A88",
"[ 	c #7A5081",
"} 	c #633B6D",
"| 	c #734E7A",
"1 	c #795181",
"2 	c #825988",
"3 	c #815A88",
"4 	c #815988",
"5 	c #663F6F",
"6 	c #673E70",
"7 	c #805888",
"8 	c #815987",
"9 	c #805987",
"0 	c #805886",
"a 	c #805986",
"b 	c #7F5886",
"c 	c #7F5786",
"d 	c #7F5785",
"e 	c #7F5885",
"f 	c #7E5785",
"g 	c #77527D",
"h 	c #76517C",
"i 	c #7E5784",
"j 	c #7E5684",
"k 	c #C8B9CA",
"l 	c #D4C9D6",
"m 	c #77537D",
"n 	c #815F86",
"o 	c #E1D9E3",
"p 	c #E2DAE3",
"q 	c #7D5684",
"r 	c #7D5683",
"s 	c #E0D8E1",
"t 	c #F9F7F9",
"u 	c #DCD3DE",
"v 	c #78537E",
"w 	c #79557F",
"x 	c #EAE5EB",
"y 	c #FBFAFB",
"z 	c #E7E1E8",
"A 	c #7C5683",
"B 	c #7C5982",
"C 	c #EBE6EC",
"D 	c #E4DDE5",
"E 	c #7F5D85",
"F 	c #805E86",
"G 	c #EAE4EB",
"H 	c #E9E3EA",
"I 	c #78547E",
"J 	c #7C5682",
"K 	c #7C5583",
"L 	c #7C5582",
"M 	c #7D5A82",
"N 	c #F2EFF3",
"O 	c #F0ECF1",
"P 	c #997D9D",
"Q 	c #B19BB4",
"R 	c #F6F4F7",
"S 	c #7A5780",
"T 	c #7B5582",
"U 	c #7B5481",
"V 	c #7E5C84",
"W 	c #F3EFF3",
"X 	c #F1EDF2",
"Y 	c #A28AA6",
"Z 	c #D1C5D3",
"` 	c #ECE6EC",
" .	c #7B5482",
"..	c #7B5480",
"+.	c #F3F0F4",
"@.	c #FAF9FA",
"#.	c #FAF8FA",
"$.	c #E3DBE4",
"%.	c #7B5881",
"&.	c #7A5480",
"*.	c #836188",
"=.	c #F7F5F8",
"-.	c #D3C7D5",
";.	c #7A5381",
">.	c #795380",
",.	c #79537F",
"'.	c #BAA7BD",
").	c #AC95AF",
"!.	c #7A5380",
"~.	c #5D3768",
"{.	c #78527E",
"].	c #643C6C",
"^.	c #78527F",
"/.	c #77537E",
"(.	c #6F4976",
"_.	c #633C6D",
":.	c #78517D",
"<.	c #77517E",
"[.	c #6D4676",
"}.	c #61396A",
"|.	c #6E4677",
"1.	c #77527E",
"2.	c #77517D",
"3.	c #76517D",
"4.	c #6C4774",
"5.	c #633C6C",
"6.	c #5D3667",
"7.	c #6D4775",
"8.	c #76527D",
"9.	c #77527C",
"0.	c #76507C",
"a.	c #734E79",
"b.	c #724E78",
"c.	c #714D77",
"d.	c #75507C",
"e.	c #75517B",
"f.	c #76507B",
"g.	c #76517B",
"h.	c #75517C",
"i.	c #5E3768",
"j.	c #855C8C",
"k.	c #835C8A",
"l.	c #835A8B",
"m.	c #845A8A",
"n.	c #825A8A",
"o.	c #815888",
"p.	c #805887",
"q.	c #7D5685",
"r.	c #7D5784",
"s.	c #7B5581",
"t.	c #7A5481",
"u.	c #79527E",
"v.	c #77517C",
"  . + @       @ . # + $ + . @     @   .   #     . . ",
"%       & * % &       =     & * * &   * - * %       ",
"; & ; & > , ' ' ' ' ' ' ' ' ' ' ' ' ' ' , ) & & ; & ",
"! ~ { ] ^ / ( ( ( ( ( ( ( ( ( ( ( ( ( ( / _ : { ! ! ",
"< < [ } | ( ( ( ( ( ( ( ( ( ( ( ( ( ( ( ( | } 1 2 2 ",
"3 4 5 / ( ( ( ( ( ( ( ( ( ( ( ( ( ( ( ( ( ( / 6 3 3 ",
"7 4 ' ( ( ( ( ( ( ( ( ( ( ( ( ( ( ( ( ( ( ( ( ' 8 9 ",
"9 0 ' ( ( ( ( ( ( ( ( ( ( ( ( ( ( ( ( ( ( ( ( ' a 0 ",
"0 b ' ( ( ( ( ( ( ( ( ( ( ( ( ( ( ( ( ( ( ( ( ' b 0 ",
"c d ' ( ( ( ( ( ( ( ( ( ( ( ( ( ( ( ( ( ( ( ( ' e b ",
"f f ' ( ( ( g h ( ( ( ( ( ( ( ( ( ( h g h ( ( ' d f ",
"i j ' ( ( h k l m ( ( ( ( ( ( ( ( n o p m ( ( ' j f ",
"q r ' ( ( m s t u v ( ( ( ( ( ( w x y z h ( ( ' q q ",
"A A ' ( ( ( B C y D E ( ( ( ( F G y H I ( ( ( ' J K ",
"L L ' ( ( ( ( M N y O P ( g Q R y C S ( ( ( ( ' K L ",
"T U ' ( ( ( ( ( V W y X Y Z t y ` B ( ( ( ( ( '  .T ",
"U ..' ( ( ( ( ( ( B +.y t @.#.$.%.( ( ( ( ( ( ' U U ",
"&.&.' ( ( ( ( ( ( ( *.O #.=.-.g ( ( ( ( ( ( ( ' &.;.",
">.,.' ( ( ( ( ( ( ( ( n '.).h ( ( ( ( ( ( ( ( ' !.&.",
",.,.~.( ( ( ( ( ( ( ( ( ( ( ( ( ( ( ( ( ( ( ( ' ,.,.",
"{.v ]./ ( ( ( ( ( ( ( ( ( ( ( ( ( ( ( ( ( ( / ].v ^.",
"{./.(.} | ( ( ( ( ( ( ( ( ( ( ( ( ( ( ( ( | _.(.{.{.",
"g :.<.[.}./ ( ( ( ( ( ( ( ( ( ( ( ( ( ( / } |.g g 1.",
"2.3.2.h 4.5.6.' ' ' ' ' ' ' ' ' ' ' ' 6.5.7.8.2.9.3.",
"h h 0.h h a.b.c.c.c.c.c.c.c.c.c.c.c.c.b.a.0.h h h h ",
"d.e.f.d.0.( ( f.d.( ( ( ( ( h g.e.f.( f.e.h.d.( f.( ",
"' ' ' ' ' ' ' ' ' ' ' ' ' ' i.' ' ' ' ' ' ' ' i.' ' ",
"j.j.$ + + @ . $ @ # # + $ $ @ $ + + . $ # . j.$ . j.",
"      *   k.    *     .   * *     *   .           . ",
"& l.* & > , ' ' ' ' ' ' ' ' ' ' ' ' ' ' , ) m.; m.; ",
"; ! ! ] ^ / ( ( ( ( ( ( ( ( ( ( ( ( ( ( / _ : n.! ! ",
"! ~ [ } | ( ( ( ( ( ( ( ( ( ( ( ( ( ( ( ( | } 1 ~ < ",
"4 4 5 / ( ( ( ( ( ( ( ( ( ( ( ( ( ( ( ( ( ( / 6 4 < ",
"9 o.' ( ( ( ( ( ( ( ( ( ( ( ( ( ( ( ( ( ( ( ( ' 4 8 ",
"p.9 ' ( ( ( ( ( ( ( ( ( ( ( ( ( ( ( ( ( ( ( ( ' 9 p.",
"0 0 ' ( ( ( ( ( ( ( ( ( ( ( ( ( ( ( ( ( ( ( ( ' 0 0 ",
"d b ' ( ( ( ( ( ( ( ( ( ( ( ( ( ( ( ( ( ( ( ( ' c d ",
"f f ' ( ( ( g h ( ( ( ( ( ( ( ( ( ( h g h ( ( ' f d ",
"q.j ' ( ( h k l m ( ( ( ( ( ( ( ( n o p m ( ( ' i r.",
"r q ' ( ( m s t u v ( ( ( ( ( ( w x y z h ( ( ' q r.",
"A r ' ( ( ( B C y D E ( ( ( ( F G y H I ( ( ( ' K L ",
"J L ' ( ( ( ( M N y O P ( g Q R y C S ( ( ( ( ' L L ",
"T s.' ( ( ( ( ( V W y X Y Z t y ` B ( ( ( ( ( ' T s.",
"U U ' ( ( ( ( ( ( B +.y t @.#.$.%.( ( ( ( ( ( ' &.t.",
"!.!.' ( ( ( ( ( ( ( *.O #.=.-.g ( ( ( ( ( ( ( ' t.t.",
",.>.' ( ( ( ( ( ( ( ( n '.).h ( ( ( ( ( ( ( ( ' &.!.",
",.,.~.( ( ( ( ( ( ( ( ( ( ( ( ( ( ( ( ( ( ( ( ' ,.,.",
"u.v ]./ ( ( ( ( ( ( ( ( ( ( ( ( ( ( ( ( ( ( / ].v ^.",
"{.{.(.} | ( ( ( ( ( ( ( ( ( ( ( ( ( ( ( ( | _.(.{.1.",
"2.2.2.[.}./ ( ( ( ( ( ( ( ( ( ( ( ( ( ( / } |.g g 1.",
"h 3.v.3.4.5.6.' ' ' ' ' ' ' ' ' ' ' ' 6.5.7.h 2.h 3.",
"h g.h h f.a.b.c.c.c.c.c.c.c.c.c.c.c.c.b.a.h f.d.h h ",
"( ( e.( ( f.f.( ( d.e.d.( ( ( ( ( ( e.( ( e.( 0.( e.",
"' ' ' ' ' ' ' ' ' ' ' ' ' ' ' ' ' ' ' ' ' ' ' ' ' ' "};
