/* XPM */
static char * depthA_xpm[] = {
"26 54 245 2",
"  	c #845B8B",
". 	c #845C8B",
"+ 	c #845C8C",
"@ 	c #855B8B",
"# 	c #855B8C",
"$ 	c #855C8B",
"% 	c #835B8B",
"& 	c #835B8A",
"* 	c #845B8A",
"= 	c #835C8B",
"- 	c #845C8A",
"; 	c #835A8A",
"> 	c #7A5082",
", 	c #673F70",
"' 	c #5E3768",
") 	c #5C3566",
"! 	c #7A5182",
"~ 	c #835A89",
"{ 	c #825A89",
"] 	c #825B89",
"^ 	c #774C7F",
"/ 	c #643C6D",
"( 	c #8C5F94",
"_ 	c #A274A9",
": 	c #A578AD",
"< 	c #8D6095",
"[ 	c #663D6F",
"} 	c #774D7F",
"| 	c #825A88",
"1 	c #7A5081",
"2 	c #633B6D",
"3 	c #9D71A6",
"4 	c #A070A8",
"5 	c #9E6EA6",
"6 	c #9E6DA6",
"7 	c #9D70A6",
"8 	c #795181",
"9 	c #825988",
"0 	c #815A88",
"a 	c #815988",
"b 	c #663F6F",
"c 	c #8A5D93",
"d 	c #9D6DA5",
"e 	c #9D6CA5",
"f 	c #8A5D92",
"g 	c #673E70",
"h 	c #805888",
"i 	c #9B6BA3",
"j 	c #9C6BA4",
"k 	c #9A6BA3",
"l 	c #815987",
"m 	c #805987",
"n 	c #805886",
"o 	c #9B6CA3",
"p 	c #805986",
"q 	c #7F5886",
"r 	c #9A6AA2",
"s 	c #7F5786",
"t 	c #7F5785",
"u 	c #9969A1",
"v 	c #7F5885",
"w 	c #7E5785",
"x 	c #98689F",
"y 	c #996AA0",
"z 	c #9969A0",
"A 	c #98699F",
"B 	c #7E5784",
"C 	c #7E5684",
"D 	c #97689E",
"E 	c #97699E",
"F 	c #D5C3D8",
"G 	c #DFD0E1",
"H 	c #A075A6",
"I 	c #E9DEEA",
"J 	c #E9DFEA",
"K 	c #7D5684",
"L 	c #7D5683",
"M 	c #96679D",
"N 	c #E8DDE9",
"O 	c #FAF8FB",
"P 	c #E5D9E6",
"Q 	c #986A9F",
"R 	c #996BA0",
"S 	c #EFE8F0",
"T 	c #FCFAFC",
"U 	c #EDE5EE",
"V 	c #7C5683",
"W 	c #94669C",
"X 	c #996EA1",
"Y 	c #EFE9F1",
"Z 	c #EAE1EC",
"` 	c #9C71A3",
" .	c #9D73A4",
"..	c #FCFBFC",
"+.	c #EEE6EF",
"@.	c #976A9E",
"#.	c #7C5682",
"$.	c #7C5583",
"%.	c #7C5582",
"&.	c #93659B",
"*.	c #996DA0",
"=.	c #F5F1F6",
"-.	c #F3EEF4",
";.	c #AF8DB5",
">.	c #94679C",
",.	c #C2A7C6",
"'.	c #F8F5F9",
").	c #EFE9F0",
"!.	c #976B9F",
"~.	c #7B5582",
"{.	c #7B5481",
"].	c #92659A",
"^.	c #996FA1",
"/.	c #F4EFF5",
"(.	c #B698BB",
"_.	c #DBCCDD",
":.	c #FAF8FA",
"<.	c #F0E9F1",
"[.	c #986D9F",
"}.	c #7B5482",
"|.	c #7B5480",
"1.	c #916498",
"2.	c #976C9D",
"3.	c #F6F2F6",
"4.	c #FBFAFB",
"5.	c #FBF9FB",
"6.	c #966B9D",
"7.	c #7A5480",
"8.	c #906397",
"9.	c #9B72A1",
"0.	c #F9F6F9",
"a.	c #DBCDDE",
"b.	c #916598",
"c.	c #7A5381",
"d.	c #795380",
"e.	c #79537F",
"f.	c #8F6296",
"g.	c #99709F",
"h.	c #C7B0CA",
"i.	c #BBA0C0",
"j.	c #7A5380",
"k.	c #5D3768",
"l.	c #8C6092",
"m.	c #8E6295",
"n.	c #8B6093",
"o.	c #5D3668",
"p.	c #78527E",
"q.	c #78537E",
"r.	c #643C6C",
"s.	c #7E5385",
"t.	c #8D6194",
"u.	c #7D5285",
"v.	c #78527F",
"w.	c #77537E",
"x.	c #6F4976",
"y.	c #895E90",
"z.	c #8C6093",
"A.	c #633C6D",
"B.	c #77527D",
"C.	c #78517D",
"D.	c #77517E",
"E.	c #6D4676",
"F.	c #61396A",
"G.	c #7C5183",
"H.	c #885D90",
"I.	c #8B5F92",
"J.	c #885C8F",
"K.	c #6E4677",
"L.	c #77527E",
"M.	c #77517D",
"N.	c #76517D",
"O.	c #76517C",
"P.	c #6C4774",
"Q.	c #633C6C",
"R.	c #5D3667",
"S.	c #6D4775",
"T.	c #76527D",
"U.	c #77527C",
"V.	c #76507C",
"W.	c #734E79",
"X.	c #724E78",
"Y.	c #714D77",
"Z.	c #75507C",
"`.	c #75517B",
" +	c #76507B",
".+	c #75507B",
"++	c #76517B",
"@+	c #75517C",
"#+	c #855C8C",
"$+	c #835C8A",
"%+	c #835A8B",
"&+	c #845A8A",
"*+	c #6D4874",
"=+	c #825A8A",
"-+	c #734E7A",
";+	c #815888",
">+	c #805887",
",+	c #7D5685",
"'+	c #C8B9CA",
")+	c #D4C9D6",
"!+	c #77537D",
"~+	c #815F86",
"{+	c #E1D9E3",
"]+	c #E2DAE3",
"^+	c #7D5784",
"/+	c #E0D8E1",
"(+	c #F9F7F9",
"_+	c #DCD3DE",
":+	c #79557F",
"<+	c #EAE5EB",
"[+	c #E7E1E8",
"}+	c #7C5982",
"|+	c #EBE6EC",
"1+	c #E4DDE5",
"2+	c #7F5D85",
"3+	c #805E86",
"4+	c #EAE4EB",
"5+	c #E9E3EA",
"6+	c #78547E",
"7+	c #7D5A82",
"8+	c #F2EFF3",
"9+	c #F0ECF1",
"0+	c #997D9D",
"a+	c #B19BB4",
"b+	c #F6F4F7",
"c+	c #7A5780",
"d+	c #7B5581",
"e+	c #7E5C84",
"f+	c #F3EFF3",
"g+	c #F1EDF2",
"h+	c #A28AA6",
"i+	c #D1C5D3",
"j+	c #ECE6EC",
"k+	c #F3F0F4",
"l+	c #FAF9FA",
"m+	c #E3DBE4",
"n+	c #7B5881",
"o+	c #7A5481",
"p+	c #836188",
"q+	c #F7F5F8",
"r+	c #D3C7D5",
"s+	c #BAA7BD",
"t+	c #AC95AF",
"u+	c #79527E",
"v+	c #77517C",
"  . + @       @ . # + $ + . @     @   .   #     . . ",
"%       & * % &       =     & * * &   * - * %       ",
"; & ; & > , ' ) ) ) ) ) ) ) ) ) ) ) ) ' , ! & & ; & ",
"~ { ] ^ / ( _ : : : : : : : : : : : : _ < [ } ] ~ ~ ",
"| | 1 2 3 4 5 6 6 6 6 6 6 6 6 6 6 6 6 5 4 7 2 8 9 9 ",
"0 a b c d e e e e e e e e e e e e e e e e d f g 0 0 ",
"h a ' i j j j j j j j j j j j j j j j j j j k ' l m ",
"m n ) o i i i i i i i i i i i i i i i i i i o ) p n ",
"n q ) r r r r r r r r r r r r r r r r r r r r ) q n ",
"s t ) u u u u u u u u u u u u u u u u u u u u ) v q ",
"w w ) x x x y z x x x x x x x x x x z y A x x ) t w ",
"B C ) D D E F G y D D D D D D D D H I J y D D ) C w ",
"K L ) M M A N O P Q M M M M M M R S T U D M M ) K K ",
"V V ) W W W X Y T Z ` W W W W  .S ..+.@.W W W ) #.$.",
"%.%.) &.&.&.&.*.=...-.;.&.>.,.'.T ).!.&.&.&.&.) $.%.",
"~.{.) ].].].].].^.=.../.(._.:.T <.[.].].].].].) }.~.",
"{.|.) 1.1.1.1.1.1.2.3...O 4.5.J 6.1.1.1.1.1.1.) {.{.",
"7.7.) 8.8.8.8.8.8.8.9.-.5.0.a.b.8.8.8.8.8.8.8.) 7.c.",
"d.e.) f.f.f.f.f.f.f.f.g.h.i.8.f.f.f.f.f.f.f.f.) j.7.",
"e.e.k.l.m.m.m.m.m.m.m.m.m.m.m.m.m.m.m.m.m.m.n.o.e.e.",
"p.q.r.s.t.t.t.t.t.t.t.t.t.t.t.t.t.t.t.t.t.t.u.r.q.v.",
"p.w.x.2 y.z.z.z.z.z.z.z.z.z.z.z.z.z.z.z.z.y.A.x.p.p.",
"B.C.D.E.F.G.H.I.I.I.I.I.I.I.I.I.I.I.I.J.G.2 K.B.B.L.",
"M.N.M.O.P.Q.R.) ) ) ) ) ) ) ) ) ) ) ) R.Q.S.T.M.U.N.",
"O.O.V.O.O.W.X.Y.Y.Y.Y.Y.Y.Y.Y.Y.Y.Y.Y.X.W.V.O.O.O.O.",
"Z.`. +Z.V..+.+ +Z..+.+.+.+.+O.++`. +.+ +`.@+Z..+ +.+",
") ) ) ) ) ) ) ) ) ) ) ) ) ) ' ) ) ) ) ) ) ) ) ' ) ) ",
"#+#+$ + + @ . $ @ # # + $ $ @ $ + + . $ # . #+$ . #+",
"      *   $+    *     .   * *     *   .           . ",
"& %+* & > , ) ) ) ) ) ) ) ) ) ) ) ) ) ) , ! &+; &+; ",
"; ~ ~ ^ / *+.+.+.+.+.+.+.+.+.+.+.+.+.+.+*+[ } =+~ ~ ",
"~ { 1 2 -+.+.+.+.+.+.+.+.+.+.+.+.+.+.+.+.+-+2 8 { | ",
"a a b *+.+.+.+.+.+.+.+.+.+.+.+.+.+.+.+.+.+.+*+g a | ",
"m ;+) .+.+.+.+.+.+.+.+.+.+.+.+.+.+.+.+.+.+.+.+) a l ",
">+m ) .+.+.+.+.+.+.+.+.+.+.+.+.+.+.+.+.+.+.+.+) m >+",
"n n ) .+.+.+.+.+.+.+.+.+.+.+.+.+.+.+.+.+.+.+.+) n n ",
"t q ) .+.+.+.+.+.+.+.+.+.+.+.+.+.+.+.+.+.+.+.+) s t ",
"w w ) .+.+.+B.O..+.+.+.+.+.+.+.+.+.+O.B.O..+.+) w t ",
",+C ) .+.+O.'+)+!+.+.+.+.+.+.+.+.+~+{+]+!+.+.+) B ^+",
"L K ) .+.+!+/+(+_+q..+.+.+.+.+.+:+<+4.[+O..+.+) K ^+",
"V L ) .+.+.+}+|+4.1+2+.+.+.+.+3+4+4.5+6+.+.+.+) $.%.",
"#.%.) .+.+.+.+7+8+4.9+0+.+B.a+b+4.|+c+.+.+.+.+) %.%.",
"~.d+) .+.+.+.+.+e+f+4.g+h+i+(+4.j+}+.+.+.+.+.+) ~.d+",
"{.{.) .+.+.+.+.+.+}+k+4.(+l+:.m+n+.+.+.+.+.+.+) 7.o+",
"j.j.) .+.+.+.+.+.+.+p+9+:.q+r+B..+.+.+.+.+.+.+) o+o+",
"e.d.) .+.+.+.+.+.+.+.+~+s+t+O..+.+.+.+.+.+.+.+) 7.j.",
"e.e.k..+.+.+.+.+.+.+.+.+.+.+.+.+.+.+.+.+.+.+.+) e.e.",
"u+q.r.*+.+.+.+.+.+.+.+.+.+.+.+.+.+.+.+.+.+.+*+r.q.v.",
"p.p.x.2 -+.+.+.+.+.+.+.+.+.+.+.+.+.+.+.+.+-+A.x.p.L.",
"M.M.M.E.F.*+.+.+.+.+.+.+.+.+.+.+.+.+.+.+*+2 K.B.B.L.",
"O.N.v+N.P.Q.R.) ) ) ) ) ) ) ) ) ) ) ) R.Q.S.O.M.O.N.",
"O.++O.O. +W.X.Y.Y.Y.Y.Y.Y.Y.Y.Y.Y.Y.Y.X.W.O. +Z.O.O.",
".+.+`..+.+ + +.+.+Z.`.Z..+.+.+.+.+.+`..+.+`..+V..+`.",
") ) ) ) ) ) ) ) ) ) ) ) ) ) ) ) ) ) ) ) ) ) ) ) ) ) "};
