/* XPM */
static char * dframeATR_xpm[] = {
"5 27 55 1",
" 	c None",
".	c #5C3566",
"+	c #845B8A",
"@	c #835B8B",
"#	c #835A8B",
"$	c #835B8A",
"%	c #835A8A",
"&	c #835A89",
"*	c #825989",
"=	c #825A89",
"-	c #825988",
";	c #815988",
">	c #825A88",
",	c #815987",
"'	c #815888",
")	c #805887",
"!	c #815887",
"~	c #7F5885",
"{	c #7F5886",
"]	c #7F5785",
"^	c #7E5685",
"/	c #7E5785",
"(	c #7E5684",
"_	c #7E5784",
":	c #7D5784",
"<	c #7D5684",
"[	c #7C5583",
"}	c #7D5683",
"|	c #7C5683",
"1	c #7C5682",
"2	c #7D5682",
"3	c #7D5582",
"4	c #7C5582",
"5	c #7B5582",
"6	c #7B5481",
"7	c #7B5482",
"8	c #7A5481",
"9	c #7A5480",
"0	c #7A5380",
"a	c #79537F",
"b	c #795380",
"c	c #78527F",
"d	c #78527E",
"e	c #78537E",
"f	c #77527E",
"g	c #77517D",
"h	c #77517C",
"i	c #76527D",
"j	c #76517D",
"k	c #76517B",
"l	c #76517C",
"m	c #76507C",
"n	c #75507B",
"o	c #75517B",
"p	c #75507C",
".... ",
"+@#..",
"$%%%.",
"%%&&.",
"**=*.",
"-;>-.",
";,;'.",
")!,).",
")))).",
"~~{{.",
"]^]/.",
"^(_^.",
"((:<.",
"[}}|.",
"123|.",
"[454.",
"6657.",
"8986.",
"9009.",
"aab0.",
"cbaa.",
"dcee.",
"dfdd.",
"gfgg.",
"hihj.",
"kllm.",
"nomp."};
