/* XPM */
static char * dframeAT_xpm[] = {
"3 27 53 1",
" 	c #5C3566",
".	c #845C8C",
"+	c #845C8B",
"@	c #845B8B",
"#	c #835C8B",
"$	c #835B8B",
"%	c #825A8A",
"&	c #825B8A",
"*	c #815A89",
"=	c #815A8A",
"-	c #825A89",
";	c #805989",
">	c #815989",
",	c #805988",
"'	c #805887",
")	c #805987",
"!	c #7F5988",
"~	c #7F5987",
"{	c #805886",
"]	c #7F5886",
"^	c #7F5887",
"/	c #7E5785",
"(	c #7F5786",
"_	c #7E5885",
":	c #7D5786",
"<	c #7E5685",
"[	c #7D5685",
"}	c #7D5684",
"|	c #7D5784",
"1	c #7C5684",
"2	c #7C5583",
"3	c #7C5584",
"4	c #7B5583",
"5	c #7B5582",
"6	c #7A5582",
"7	c #7A5482",
"8	c #7B5482",
"9	c #7A5481",
"0	c #7A5480",
"a	c #795381",
"b	c #795380",
"c	c #795280",
"d	c #78537F",
"e	c #785380",
"f	c #785280",
"g	c #77527F",
"h	c #78527F",
"i	c #77517E",
"j	c #77527E",
"k	c #77527D",
"l	c #76517D",
"m	c #76507D",
"n	c #76517C",
"   ",
".+@",
"#$+",
"%&$",
"&&%",
"*=-",
"*;>",
",,,",
"')!",
"~{]",
"]^^",
"/(_",
":</",
"[[}",
"|1}",
"123",
"242",
"455",
"678",
"999",
"0aa",
"bcb",
"def",
"ggh",
"ijj",
"kli",
"mmn"};
