/* XPM */
static char * hideI_xpm[] = {
"26 54 123 2",
"  	c #845B8B",
". 	c #845C8B",
"+ 	c #845C8C",
"@ 	c #855B8B",
"# 	c #855B8C",
"$ 	c #855C8B",
"% 	c #835B8B",
"& 	c #835B8A",
"* 	c #845B8A",
"= 	c #835C8B",
"- 	c #845C8A",
"; 	c #835A8A",
"> 	c #7A5082",
", 	c #673F70",
"' 	c #5C3566",
") 	c #7A5182",
"! 	c #835A89",
"~ 	c #825A89",
"{ 	c #825B89",
"] 	c #774C7F",
"^ 	c #643C6D",
"/ 	c #6D4874",
"( 	c #75507B",
"_ 	c #663D6F",
": 	c #774D7F",
"< 	c #825A88",
"[ 	c #7A5081",
"} 	c #633B6D",
"| 	c #734E7A",
"1 	c #795181",
"2 	c #825988",
"3 	c #815A88",
"4 	c #815988",
"5 	c #663F6F",
"6 	c #673E70",
"7 	c #805888",
"8 	c #815987",
"9 	c #805987",
"0 	c #805886",
"a 	c #805986",
"b 	c #7F5886",
"c 	c #FFFFFF",
"d 	c #7F5786",
"e 	c #7F5785",
"f 	c #7F5885",
"g 	c #7E5785",
"h 	c #7E5784",
"i 	c #7E5684",
"j 	c #7D5684",
"k 	c #7D5683",
"l 	c #C8BACB",
"m 	c #C8B9CA",
"n 	c #7C5683",
"o 	c #78537E",
"p 	c #DFD7E0",
"q 	c #E2DAE3",
"r 	c #79557F",
"s 	c #7C5682",
"t 	c #7C5583",
"u 	c #7C5582",
"v 	c #836188",
"w 	c #F1EEF2",
"x 	c #F3F0F4",
"y 	c #846389",
"z 	c #7B5582",
"A 	c #7B5481",
"B 	c #95789A",
"C 	c #FCFCFC",
"D 	c #FDFCFD",
"E 	c #987C9C",
"F 	c #7B5482",
"G 	c #7B5480",
"H 	c #7A5480",
"I 	c #7A5381",
"J 	c #795380",
"K 	c #79537F",
"L 	c #7A5380",
"M 	c #5D3768",
"N 	c #78527E",
"O 	c #643C6C",
"P 	c #78527F",
"Q 	c #77537E",
"R 	c #6F4976",
"S 	c #633C6D",
"T 	c #77527D",
"U 	c #78517D",
"V 	c #77517E",
"W 	c #6D4676",
"X 	c #61396A",
"Y 	c #6E4677",
"Z 	c #77527E",
"` 	c #77517D",
" .	c #76517D",
"..	c #76517C",
"+.	c #6C4774",
"@.	c #633C6C",
"#.	c #5D3667",
"$.	c #6D4775",
"%.	c #76527D",
"&.	c #77527C",
"*.	c #76507C",
"=.	c #734E79",
"-.	c #724E78",
";.	c #714D77",
">.	c #75507C",
",.	c #75517B",
"'.	c #76507B",
").	c #76517B",
"!.	c #75517C",
"~.	c #5E3768",
"{.	c #855C8C",
"].	c #835C8A",
"^.	c #835A8B",
"/.	c #845A8A",
"(.	c #825A8A",
"_.	c #815888",
":.	c #805887",
"<.	c #7D5685",
"[.	c #7D5784",
"}.	c #7B5581",
"|.	c #7A5481",
"1.	c #79527E",
"2.	c #77517C",
"  . + @       @ . # + $ + . @     @   .   #     . . ",
"%       & * % &       =     & * * &   * - * %       ",
"; & ; & > , ' ' ' ' ' ' ' ' ' ' ' ' ' ' , ) & & ; & ",
"! ~ { ] ^ / ( ( ( ( ( ( ( ( ( ( ( ( ( ( / _ : { ! ! ",
"< < [ } | ( ( ( ( ( ( ( ( ( ( ( ( ( ( ( ( | } 1 2 2 ",
"3 4 5 / ( ( ( ( ( ( ( ( ( ( ( ( ( ( ( ( ( ( / 6 3 3 ",
"7 4 ' ( ( ( ( ( ( ( ( ( ( ( ( ( ( ( ( ( ( ( ( ' 8 9 ",
"9 0 ' ( ( ( ( ( ( ( ( ( ( ( ( ( ( ( ( ( ( ( ( ' a 0 ",
"0 b ' ( ( ( ( ( ( ( ( ( c c ( ( ( ( ( ( ( ( ( ' b 0 ",
"d e ' ( ( ( ( ( ( ( ( ( c c ( ( ( ( ( ( ( ( ( ' f b ",
"g g ' ( ( ( ( ( ( ( ( ( c c ( ( ( ( ( ( ( ( ( ' e g ",
"h i ' ( ( ( ( ( ( ( ( ( c c ( ( ( ( ( ( ( ( ( ' i g ",
"j k ' ( ( ( ( ( ( l c c c c c c m ( ( ( ( ( ( ' j j ",
"n n ' ( ( ( ( ( ( o p c c c c q r ( ( ( ( ( ( ' s t ",
"u u ' ( ( ( ( ( ( ( v w c c x y ( ( ( ( ( ( ( ' t u ",
"z A ' ( ( ( ( ( ( ( ( B C D E ( ( ( ( ( ( ( ( ' F z ",
"A G ' ( ( ( ( ( ( c c c c c c c c ( ( ( ( ( ( ' A A ",
"H H ' ( ( ( ( ( ( c c c c c c c c ( ( ( ( ( ( ' H I ",
"J K ' ( ( ( ( ( ( ( ( ( ( ( ( ( ( ( ( ( ( ( ( ' L H ",
"K K M ( ( ( ( ( ( ( ( ( ( ( ( ( ( ( ( ( ( ( ( ' K K ",
"N o O / ( ( ( ( ( ( ( ( ( ( ( ( ( ( ( ( ( ( / O o P ",
"N Q R } | ( ( ( ( ( ( ( ( ( ( ( ( ( ( ( ( | S R N N ",
"T U V W X / ( ( ( ( ( ( ( ( ( ( ( ( ( ( / } Y T T Z ",
"`  .` ..+.@.#.' ' ' ' ' ' ' ' ' ' ' ' #.@.$.%.` &. .",
"....*.....=.-.;.;.;.;.;.;.;.;.;.;.;.;.-.=.*.........",
">.,.'.>.*.( ( '.>.( ( ( ( ( ..).,.'.( '.,.!.>.( '.( ",
"' ' ' ' ' ' ' ' ' ' ' ' ' ' ~.' ' ' ' ' ' ' ' ~.' ' ",
"{.{.$ + + @ . $ @ # # + $ $ @ $ + + . $ # . {.$ . {.",
"      *   ].    *     .   * *     *   .           . ",
"& ^.* & > , ' ' ' ' ' ' ' ' ' ' ' ' ' ' , ) /.; /.; ",
"; ! ! ] ^ / ( ( ( ( ( ( ( ( ( ( ( ( ( ( / _ : (.! ! ",
"! ~ [ } | ( ( ( ( ( ( ( ( ( ( ( ( ( ( ( ( | } 1 ~ < ",
"4 4 5 / ( ( ( ( ( ( ( ( ( ( ( ( ( ( ( ( ( ( / 6 4 < ",
"9 _.' ( ( ( ( ( ( ( ( ( ( ( ( ( ( ( ( ( ( ( ( ' 4 8 ",
":.9 ' ( ( ( ( ( ( ( ( ( ( ( ( ( ( ( ( ( ( ( ( ' 9 :.",
"0 0 ' ( ( ( ( ( ( ( ( ( c c ( ( ( ( ( ( ( ( ( ' 0 0 ",
"e b ' ( ( ( ( ( ( ( ( ( c c ( ( ( ( ( ( ( ( ( ' d e ",
"g g ' ( ( ( ( ( ( ( ( ( c c ( ( ( ( ( ( ( ( ( ' g e ",
"<.i ' ( ( ( ( ( ( ( ( ( c c ( ( ( ( ( ( ( ( ( ' h [.",
"k j ' ( ( ( ( ( ( l c c c c c c m ( ( ( ( ( ( ' j [.",
"n k ' ( ( ( ( ( ( o p c c c c q r ( ( ( ( ( ( ' t u ",
"s u ' ( ( ( ( ( ( ( v w c c x y ( ( ( ( ( ( ( ' u u ",
"z }.' ( ( ( ( ( ( ( ( B C D E ( ( ( ( ( ( ( ( ' z }.",
"A A ' ( ( ( ( ( ( c c c c c c c c ( ( ( ( ( ( ' H |.",
"L L ' ( ( ( ( ( ( c c c c c c c c ( ( ( ( ( ( ' |.|.",
"K J ' ( ( ( ( ( ( ( ( ( ( ( ( ( ( ( ( ( ( ( ( ' H L ",
"K K M ( ( ( ( ( ( ( ( ( ( ( ( ( ( ( ( ( ( ( ( ' K K ",
"1.o O / ( ( ( ( ( ( ( ( ( ( ( ( ( ( ( ( ( ( / O o P ",
"N N R } | ( ( ( ( ( ( ( ( ( ( ( ( ( ( ( ( | S R N Z ",
"` ` ` W X / ( ( ( ( ( ( ( ( ( ( ( ( ( ( / } Y T T Z ",
".. .2. .+.@.#.' ' ' ' ' ' ' ' ' ' ' ' #.@.$...` .. .",
"..).....'.=.-.;.;.;.;.;.;.;.;.;.;.;.;.-.=...'.>.....",
"( ( ,.( ( '.'.( ( >.,.>.( ( ( ( ( ( ,.( ( ,.( *.( ,.",
"' ' ' ' ' ' ' ' ' ' ' ' ' ' ' ' ' ' ' ' ' ' ' ' ' ' "};
