/* XPM */
static char * maximizeI_xpm[] = {
"26 54 129 2",
"  	c #845B8B",
". 	c #845C8B",
"+ 	c #845C8C",
"@ 	c #855B8B",
"# 	c #855B8C",
"$ 	c #855C8B",
"% 	c #835B8B",
"& 	c #835B8A",
"* 	c #845B8A",
"= 	c #835C8B",
"- 	c #845C8A",
"; 	c #835A8A",
"> 	c #7A5082",
", 	c #673F70",
"' 	c #5C3566",
") 	c #7A5182",
"! 	c #835A89",
"~ 	c #825A89",
"{ 	c #825B89",
"] 	c #774C7F",
"^ 	c #643C6D",
"/ 	c #6D4874",
"( 	c #75507B",
"_ 	c #663D6F",
": 	c #774D7F",
"< 	c #825A88",
"[ 	c #7A5081",
"} 	c #633B6D",
"| 	c #734E7A",
"1 	c #795181",
"2 	c #825988",
"3 	c #815A88",
"4 	c #815988",
"5 	c #663F6F",
"6 	c #673E70",
"7 	c #805888",
"8 	c #815987",
"9 	c #805987",
"0 	c #805886",
"a 	c #B5A2B9",
"b 	c #FFFFFF",
"c 	c #805986",
"d 	c #7F5886",
"e 	c #B5A1B8",
"f 	c #7F5786",
"g 	c #7F5785",
"h 	c #88688D",
"i 	c #F6F4F7",
"j 	c #7F5885",
"k 	c #7E5785",
"l 	c #F0ECF1",
"m 	c #7E5784",
"n 	c #7E5684",
"o 	c #D6CBD8",
"p 	c #EEEAEF",
"q 	c #87678D",
"r 	c #B8A4BB",
"s 	c #7D5684",
"t 	c #7D5683",
"u 	c #A38AA7",
"v 	c #D3C7D5",
"w 	c #86668C",
"x 	c #B9A6BC",
"y 	c #7C5683",
"z 	c #88698E",
"A 	c #D9CEDA",
"B 	c #A68EAA",
"C 	c #7C5682",
"D 	c #7C5583",
"E 	c #7C5582",
"F 	c #D4C9D6",
"G 	c #7B5582",
"H 	c #7B5481",
"I 	c #EEE9EE",
"J 	c #7B5482",
"K 	c #7B5480",
"L 	c #7A5480",
"M 	c #BFADC1",
"N 	c #7A5381",
"O 	c #795380",
"P 	c #79537F",
"Q 	c #7A5380",
"R 	c #5D3768",
"S 	c #78527E",
"T 	c #78537E",
"U 	c #643C6C",
"V 	c #78527F",
"W 	c #77537E",
"X 	c #6F4976",
"Y 	c #633C6D",
"Z 	c #77527D",
"` 	c #78517D",
" .	c #77517E",
"..	c #6D4676",
"+.	c #61396A",
"@.	c #6E4677",
"#.	c #77527E",
"$.	c #77517D",
"%.	c #76517D",
"&.	c #76517C",
"*.	c #6C4774",
"=.	c #633C6C",
"-.	c #5D3667",
";.	c #6D4775",
">.	c #76527D",
",.	c #77527C",
"'.	c #76507C",
").	c #734E79",
"!.	c #724E78",
"~.	c #714D77",
"{.	c #75507C",
"].	c #75517B",
"^.	c #76507B",
"/.	c #76517B",
"(.	c #75517C",
"_.	c #5E3768",
":.	c #855C8C",
"<.	c #835C8A",
"[.	c #835A8B",
"}.	c #845A8A",
"|.	c #825A8A",
"1.	c #815888",
"2.	c #805887",
"3.	c #7D5685",
"4.	c #7D5784",
"5.	c #7B5581",
"6.	c #7A5481",
"7.	c #79527E",
"8.	c #77517C",
"  . + @       @ . # + $ + . @     @   .   #     . . ",
"%       & * % &       =     & * * &   * - * %       ",
"; & ; & > , ' ' ' ' ' ' ' ' ' ' ' ' ' ' , ) & & ; & ",
"! ~ { ] ^ / ( ( ( ( ( ( ( ( ( ( ( ( ( ( / _ : { ! ! ",
"< < [ } | ( ( ( ( ( ( ( ( ( ( ( ( ( ( ( ( | } 1 2 2 ",
"3 4 5 / ( ( ( ( ( ( ( ( ( ( ( ( ( ( ( ( ( ( / 6 3 3 ",
"7 4 ' ( ( ( ( ( ( ( ( ( ( ( ( ( ( ( ( ( ( ( ( ' 8 9 ",
"9 0 ' ( ( ( ( ( ( ( ( ( ( a b b b b b ( ( ( ( ' c 0 ",
"0 d ' ( ( ( ( ( ( ( ( ( ( ( e b b b b ( ( ( ( ' d 0 ",
"f g ' ( ( ( ( ( ( ( ( ( ( ( h i b b b ( ( ( ( ' j d ",
"k k ' ( ( ( ( ( ( ( ( ( ( h l b i b b ( ( ( ( ' g k ",
"m n ' ( ( ( ( ( ( ( ( ( ( o b p q r b ( ( ( ( ' n k ",
"s t ' ( ( ( ( ( ( ( ( ( ( u v w ( ( x ( ( ( ( ' s s ",
"y y ' ( ( ( ( x ( ( z A B ( ( ( ( ( ( ( ( ( ( ' C D ",
"E E ' ( ( ( ( b r h l b F ( ( ( ( ( ( ( ( ( ( ' D E ",
"G H ' ( ( ( ( b b i b I w ( ( ( ( ( ( ( ( ( ( ' J G ",
"H K ' ( ( ( ( b b b i w ( ( ( ( ( ( ( ( ( ( ( ' H H ",
"L L ' ( ( ( ( b b b b M ( ( ( ( ( ( ( ( ( ( ( ' L N ",
"O P ' ( ( ( ( b b b b b M ( ( ( ( ( ( ( ( ( ( ' Q L ",
"P P R ( ( ( ( ( ( ( ( ( ( ( ( ( ( ( ( ( ( ( ( ' P P ",
"S T U / ( ( ( ( ( ( ( ( ( ( ( ( ( ( ( ( ( ( / U T V ",
"S W X } | ( ( ( ( ( ( ( ( ( ( ( ( ( ( ( ( | Y X S S ",
"Z `  ...+./ ( ( ( ( ( ( ( ( ( ( ( ( ( ( / } @.Z Z #.",
"$.%.$.&.*.=.-.' ' ' ' ' ' ' ' ' ' ' ' -.=.;.>.$.,.%.",
"&.&.'.&.&.).!.~.~.~.~.~.~.~.~.~.~.~.~.!.).'.&.&.&.&.",
"{.].^.{.'.( ( ^.{.( ( ( ( ( &./.].^.( ^.].(.{.( ^.( ",
"' ' ' ' ' ' ' ' ' ' ' ' ' ' _.' ' ' ' ' ' ' ' _.' ' ",
":.:.$ + + @ . $ @ # # + $ $ @ $ + + . $ # . :.$ . :.",
"      *   <.    *     .   * *     *   .           . ",
"& [.* & > , ' ' ' ' ' ' ' ' ' ' ' ' ' ' , ) }.; }.; ",
"; ! ! ] ^ / ( ( ( ( ( ( ( ( ( ( ( ( ( ( / _ : |.! ! ",
"! ~ [ } | ( ( ( ( ( ( ( ( ( ( ( ( ( ( ( ( | } 1 ~ < ",
"4 4 5 / ( ( ( ( ( ( ( ( ( ( ( ( ( ( ( ( ( ( / 6 4 < ",
"9 1.' ( ( ( ( ( ( ( ( ( ( ( ( ( ( ( ( ( ( ( ( ' 4 8 ",
"2.9 ' ( ( ( ( ( ( ( ( ( ( a b b b b b ( ( ( ( ' 9 2.",
"0 0 ' ( ( ( ( ( ( ( ( ( ( ( e b b b b ( ( ( ( ' 0 0 ",
"g d ' ( ( ( ( ( ( ( ( ( ( ( h i b b b ( ( ( ( ' f g ",
"k k ' ( ( ( ( ( ( ( ( ( ( h l b i b b ( ( ( ( ' k g ",
"3.n ' ( ( ( ( ( ( ( ( ( ( o b p q r b ( ( ( ( ' m 4.",
"t s ' ( ( ( ( ( ( ( ( ( ( u v w ( ( x ( ( ( ( ' s 4.",
"y t ' ( ( ( ( x ( ( z A B ( ( ( ( ( ( ( ( ( ( ' D E ",
"C E ' ( ( ( ( b r h l b F ( ( ( ( ( ( ( ( ( ( ' E E ",
"G 5.' ( ( ( ( b b i b I w ( ( ( ( ( ( ( ( ( ( ' G 5.",
"H H ' ( ( ( ( b b b i w ( ( ( ( ( ( ( ( ( ( ( ' L 6.",
"Q Q ' ( ( ( ( b b b b M ( ( ( ( ( ( ( ( ( ( ( ' 6.6.",
"P O ' ( ( ( ( b b b b b M ( ( ( ( ( ( ( ( ( ( ' L Q ",
"P P R ( ( ( ( ( ( ( ( ( ( ( ( ( ( ( ( ( ( ( ( ' P P ",
"7.T U / ( ( ( ( ( ( ( ( ( ( ( ( ( ( ( ( ( ( / U T V ",
"S S X } | ( ( ( ( ( ( ( ( ( ( ( ( ( ( ( ( | Y X S #.",
"$.$.$...+./ ( ( ( ( ( ( ( ( ( ( ( ( ( ( / } @.Z Z #.",
"&.%.8.%.*.=.-.' ' ' ' ' ' ' ' ' ' ' ' -.=.;.&.$.&.%.",
"&./.&.&.^.).!.~.~.~.~.~.~.~.~.~.~.~.~.!.).&.^.{.&.&.",
"( ( ].( ( ^.^.( ( {.].{.( ( ( ( ( ( ].( ( ].( '.( ].",
"' ' ' ' ' ' ' ' ' ' ' ' ' ' ' ' ' ' ' ' ' ' ' ' ' ' "};
