/* XPM */
static char * maximizeA_xpm[] = {
"26 54 197 2",
"  	c #845B8B",
". 	c #845C8B",
"+ 	c #845C8C",
"@ 	c #855B8B",
"# 	c #855B8C",
"$ 	c #855C8B",
"% 	c #835B8B",
"& 	c #835B8A",
"* 	c #845B8A",
"= 	c #835C8B",
"- 	c #845C8A",
"; 	c #835A8A",
"> 	c #7A5082",
", 	c #673F70",
"' 	c #5E3768",
") 	c #5C3566",
"! 	c #7A5182",
"~ 	c #835A89",
"{ 	c #825A89",
"] 	c #825B89",
"^ 	c #774C7F",
"/ 	c #643C6D",
"( 	c #8C5F94",
"_ 	c #A274A9",
": 	c #A578AD",
"< 	c #8D6095",
"[ 	c #663D6F",
"} 	c #774D7F",
"| 	c #825A88",
"1 	c #7A5081",
"2 	c #633B6D",
"3 	c #9D71A6",
"4 	c #A070A8",
"5 	c #9E6EA6",
"6 	c #9E6DA6",
"7 	c #9D70A6",
"8 	c #795181",
"9 	c #825988",
"0 	c #815A88",
"a 	c #815988",
"b 	c #663F6F",
"c 	c #8A5D93",
"d 	c #9D6DA5",
"e 	c #9D6CA5",
"f 	c #8A5D92",
"g 	c #673E70",
"h 	c #805888",
"i 	c #9B6BA3",
"j 	c #9C6BA4",
"k 	c #9A6BA3",
"l 	c #815987",
"m 	c #805987",
"n 	c #805886",
"o 	c #9B6CA3",
"p 	c #C2A8C5",
"q 	c #EEEEEC",
"r 	c #805986",
"s 	c #7F5886",
"t 	c #9A6AA2",
"u 	c #C1A7C4",
"v 	c #7F5786",
"w 	c #7F5785",
"x 	c #9969A1",
"y 	c #A57CAB",
"z 	c #E9E6E7",
"A 	c #7F5885",
"B 	c #7E5785",
"C 	c #98689F",
"D 	c #A47BA9",
"E 	c #E5DFE3",
"F 	c #7E5784",
"G 	c #7E5684",
"H 	c #97689E",
"I 	c #D4C6D5",
"J 	c #E3DEE2",
"K 	c #A37AA8",
"L 	c #C1A9C4",
"M 	c #7D5684",
"N 	c #7D5683",
"O 	c #96679D",
"P 	c #B394B8",
"Q 	c #D2C3D3",
"R 	c #A178A7",
"S 	c #C2AAC4",
"T 	c #7C5683",
"U 	c #94669C",
"V 	c #C1AAC4",
"W 	c #A17AA7",
"X 	c #D5C8D5",
"Y 	c #B497B8",
"Z 	c #7C5682",
"` 	c #7C5583",
" .	c #7C5582",
"..	c #93659B",
"+.	c #BFA7C2",
"@.	c #A078A6",
"#.	c #E4DFE3",
"$.	c #7B5582",
"%.	c #7B5481",
"&.	c #92659A",
"*.	c #E8E5E7",
"=.	c #E2DDE1",
"-.	c #9E76A5",
";.	c #7B5482",
">.	c #7B5480",
",.	c #916498",
"'.	c #9D75A3",
").	c #7A5480",
"!.	c #906397",
"~.	c #C2ADC4",
"{.	c #7A5381",
"].	c #795380",
"^.	c #79537F",
"/.	c #8F6296",
"(.	c #7A5380",
"_.	c #5D3768",
":.	c #8C6092",
"<.	c #8E6295",
"[.	c #8B6093",
"}.	c #5D3668",
"|.	c #78527E",
"1.	c #78537E",
"2.	c #643C6C",
"3.	c #7E5385",
"4.	c #8D6194",
"5.	c #7D5285",
"6.	c #78527F",
"7.	c #77537E",
"8.	c #6F4976",
"9.	c #895E90",
"0.	c #8C6093",
"a.	c #633C6D",
"b.	c #77527D",
"c.	c #78517D",
"d.	c #77517E",
"e.	c #6D4676",
"f.	c #61396A",
"g.	c #7C5183",
"h.	c #885D90",
"i.	c #8B5F92",
"j.	c #885C8F",
"k.	c #6E4677",
"l.	c #77527E",
"m.	c #77517D",
"n.	c #76517D",
"o.	c #76517C",
"p.	c #6C4774",
"q.	c #633C6C",
"r.	c #5D3667",
"s.	c #6D4775",
"t.	c #76527D",
"u.	c #77527C",
"v.	c #76507C",
"w.	c #734E79",
"x.	c #724E78",
"y.	c #714D77",
"z.	c #75507C",
"A.	c #75517B",
"B.	c #76507B",
"C.	c #75507B",
"D.	c #76517B",
"E.	c #75517C",
"F.	c #855C8C",
"G.	c #835C8A",
"H.	c #835A8B",
"I.	c #845A8A",
"J.	c #6D4874",
"K.	c #825A8A",
"L.	c #734E7A",
"M.	c #815888",
"N.	c #805887",
"O.	c #B5A2B9",
"P.	c #FFFFFF",
"Q.	c #B5A1B8",
"R.	c #88688D",
"S.	c #F6F4F7",
"T.	c #F0ECF1",
"U.	c #7D5685",
"V.	c #D6CBD8",
"W.	c #EEEAEF",
"X.	c #87678D",
"Y.	c #B8A4BB",
"Z.	c #7D5784",
"`.	c #A38AA7",
" +	c #D3C7D5",
".+	c #86668C",
"++	c #B9A6BC",
"@+	c #88698E",
"#+	c #D9CEDA",
"$+	c #A68EAA",
"%+	c #D4C9D6",
"&+	c #7B5581",
"*+	c #EEE9EE",
"=+	c #7A5481",
"-+	c #BFADC1",
";+	c #79527E",
">+	c #77517C",
"  . + @       @ . # + $ + . @     @   .   #     . . ",
"%       & * % &       =     & * * &   * - * %       ",
"; & ; & > , ' ) ) ) ) ) ) ) ) ) ) ) ) ' , ! & & ; & ",
"~ { ] ^ / ( _ : : : : : : : : : : : : _ < [ } ] ~ ~ ",
"| | 1 2 3 4 5 6 6 6 6 6 6 6 6 6 6 6 6 5 4 7 2 8 9 9 ",
"0 a b c d e e e e e e e e e e e e e e e e d f g 0 0 ",
"h a ' i j j j j j j j j j j j j j j j j j j k ' l m ",
"m n ) o i i i i i i i i i p q q q q q i i i o ) r n ",
"n s ) t t t t t t t t t t t u q q q q t t t t ) s n ",
"v w ) x x x x x x x x x x x y z q q q x x x x ) A s ",
"B B ) C C C C C C C C C C D E q z q q C C C C ) w B ",
"F G ) H H H H H H H H H H I q J K L q H H H H ) G B ",
"M N ) O O O O O O O O O O P Q R O O S O O O O ) M M ",
"T T ) U U U U V U U W X Y U U U U U U U U U U ) Z ` ",
" . .) ........q +.@.#.q Q ....................) `  .",
"$.%.) &.&.&.&.q q *.q =.-.&.&.&.&.&.&.&.&.&.&.) ;.$.",
"%.>.) ,.,.,.,.q q q *.'.,.,.,.,.,.,.,.,.,.,.,.) %.%.",
").).) !.!.!.!.q q q q ~.!.!.!.!.!.!.!.!.!.!.!.) ).{.",
"].^.) /./././.q q q q q ~././././././././././.) (.).",
"^.^._.:.<.<.<.<.<.<.<.<.<.<.<.<.<.<.<.<.<.<.[.}.^.^.",
"|.1.2.3.4.4.4.4.4.4.4.4.4.4.4.4.4.4.4.4.4.4.5.2.1.6.",
"|.7.8.2 9.0.0.0.0.0.0.0.0.0.0.0.0.0.0.0.0.9.a.8.|.|.",
"b.c.d.e.f.g.h.i.i.i.i.i.i.i.i.i.i.i.i.j.g.2 k.b.b.l.",
"m.n.m.o.p.q.r.) ) ) ) ) ) ) ) ) ) ) ) r.q.s.t.m.u.n.",
"o.o.v.o.o.w.x.y.y.y.y.y.y.y.y.y.y.y.y.x.w.v.o.o.o.o.",
"z.A.B.z.v.C.C.B.z.C.C.C.C.C.o.D.A.B.C.B.A.E.z.C.B.C.",
") ) ) ) ) ) ) ) ) ) ) ) ) ) ' ) ) ) ) ) ) ) ) ' ) ) ",
"F.F.$ + + @ . $ @ # # + $ $ @ $ + + . $ # . F.$ . F.",
"      *   G.    *     .   * *     *   .           . ",
"& H.* & > , ) ) ) ) ) ) ) ) ) ) ) ) ) ) , ! I.; I.; ",
"; ~ ~ ^ / J.C.C.C.C.C.C.C.C.C.C.C.C.C.C.J.[ } K.~ ~ ",
"~ { 1 2 L.C.C.C.C.C.C.C.C.C.C.C.C.C.C.C.C.L.2 8 { | ",
"a a b J.C.C.C.C.C.C.C.C.C.C.C.C.C.C.C.C.C.C.J.g a | ",
"m M.) C.C.C.C.C.C.C.C.C.C.C.C.C.C.C.C.C.C.C.C.) a l ",
"N.m ) C.C.C.C.C.C.C.C.C.C.O.P.P.P.P.P.C.C.C.C.) m N.",
"n n ) C.C.C.C.C.C.C.C.C.C.C.Q.P.P.P.P.C.C.C.C.) n n ",
"w s ) C.C.C.C.C.C.C.C.C.C.C.R.S.P.P.P.C.C.C.C.) v w ",
"B B ) C.C.C.C.C.C.C.C.C.C.R.T.P.S.P.P.C.C.C.C.) B w ",
"U.G ) C.C.C.C.C.C.C.C.C.C.V.P.W.X.Y.P.C.C.C.C.) F Z.",
"N M ) C.C.C.C.C.C.C.C.C.C.`. +.+C.C.++C.C.C.C.) M Z.",
"T N ) C.C.C.C.++C.C.@+#+$+C.C.C.C.C.C.C.C.C.C.) `  .",
"Z  .) C.C.C.C.P.Y.R.T.P.%+C.C.C.C.C.C.C.C.C.C.)  . .",
"$.&+) C.C.C.C.P.P.S.P.*+.+C.C.C.C.C.C.C.C.C.C.) $.&+",
"%.%.) C.C.C.C.P.P.P.S..+C.C.C.C.C.C.C.C.C.C.C.) ).=+",
"(.(.) C.C.C.C.P.P.P.P.-+C.C.C.C.C.C.C.C.C.C.C.) =+=+",
"^.].) C.C.C.C.P.P.P.P.P.-+C.C.C.C.C.C.C.C.C.C.) ).(.",
"^.^._.C.C.C.C.C.C.C.C.C.C.C.C.C.C.C.C.C.C.C.C.) ^.^.",
";+1.2.J.C.C.C.C.C.C.C.C.C.C.C.C.C.C.C.C.C.C.J.2.1.6.",
"|.|.8.2 L.C.C.C.C.C.C.C.C.C.C.C.C.C.C.C.C.L.a.8.|.l.",
"m.m.m.e.f.J.C.C.C.C.C.C.C.C.C.C.C.C.C.C.J.2 k.b.b.l.",
"o.n.>+n.p.q.r.) ) ) ) ) ) ) ) ) ) ) ) r.q.s.o.m.o.n.",
"o.D.o.o.B.w.x.y.y.y.y.y.y.y.y.y.y.y.y.x.w.o.B.z.o.o.",
"C.C.A.C.C.B.B.C.C.z.A.z.C.C.C.C.C.C.A.C.C.A.C.v.C.A.",
") ) ) ) ) ) ) ) ) ) ) ) ) ) ) ) ) ) ) ) ) ) ) ) ) ) "};
