/* XPM */
static char * menuButtonA_xpm[] = {
"26 54 291 2",
"  	c #845B8B",
". 	c #845C8B",
"+ 	c #845C8C",
"@ 	c #855B8B",
"# 	c #855B8C",
"$ 	c #855C8B",
"% 	c #835B8B",
"& 	c #835B8A",
"* 	c #845B8A",
"= 	c #835C8B",
"- 	c #845C8A",
"; 	c #835A8A",
"> 	c #7A5082",
", 	c #673F70",
"' 	c #5E3768",
") 	c #5C3566",
"! 	c #7A5182",
"~ 	c #835A89",
"{ 	c #825A89",
"] 	c #825B89",
"^ 	c #774C7F",
"/ 	c #643C6D",
"( 	c #8C5F94",
"_ 	c #A274A9",
": 	c #A578AD",
"< 	c #8D6095",
"[ 	c #663D6F",
"} 	c #774D7F",
"| 	c #825A88",
"1 	c #7A5081",
"2 	c #633B6D",
"3 	c #9D71A6",
"4 	c #A070A8",
"5 	c #9E6EA6",
"6 	c #9E6DA6",
"7 	c #9D70A6",
"8 	c #795181",
"9 	c #825988",
"0 	c #815A88",
"a 	c #815988",
"b 	c #663F6F",
"c 	c #8A5D93",
"d 	c #9D6DA5",
"e 	c #9D6CA5",
"f 	c #8A5D92",
"g 	c #673E70",
"h 	c #805888",
"i 	c #9B6BA3",
"j 	c #9C6BA4",
"k 	c #9A6BA3",
"l 	c #815987",
"m 	c #805987",
"n 	c #805886",
"o 	c #9B6CA3",
"p 	c #B08AB6",
"q 	c #C3A6C7",
"r 	c #C3A7C8",
"s 	c #C4A8C9",
"t 	c #C5A9CA",
"u 	c #C5AACA",
"v 	c #C7ABCB",
"w 	c #A77CAE",
"x 	c #805986",
"y 	c #7F5886",
"z 	c #9A6AA2",
"A 	c #EADFEB",
"B 	c #FCFAFC",
"C 	c #FDFCFD",
"D 	c #FBF9FB",
"E 	c #FDFBFD",
"F 	c #FBFAFC",
"G 	c #D0BAD4",
"H 	c #7F5786",
"I 	c #7F5785",
"J 	c #9969A1",
"K 	c #CFB9D3",
"L 	c #EAE0EC",
"M 	c #EBE2ED",
"N 	c #E9DEEA",
"O 	c #E8DDEA",
"P 	c #E9DFEB",
"Q 	c #E7DBE9",
"R 	c #E7DCE9",
"S 	c #E6DBE8",
"T 	c #B593BB",
"U 	c #7F5885",
"V 	c #7E5785",
"W 	c #98689F",
"X 	c #9A6AA1",
"Y 	c #996AA0",
"Z 	c #9969A0",
"` 	c #98699F",
" .	c #7E5784",
"..	c #7E5684",
"+.	c #97689E",
"@.	c #7D5684",
"#.	c #7D5683",
"$.	c #96679D",
"%.	c #A881AE",
"&.	c #B594BA",
"*.	c #B493B9",
"=.	c #BA9BBE",
"-.	c #BFA2C3",
";.	c #BFA3C3",
">.	c #C1A6C5",
",.	c #BEA1C2",
"'.	c #9B6EA1",
").	c #7C5683",
"!.	c #94669C",
"~.	c #E8DFEA",
"{.	c #FAF7FA",
"].	c #F9F6F9",
"^.	c #FCFBFD",
"/.	c #FAF8FB",
"(.	c #B89ABD",
"_.	c #7C5682",
":.	c #7C5583",
"<.	c #7C5582",
"[.	c #93659B",
"}.	c #D1BDD4",
"|.	c #E9E0EB",
"1.	c #E8DEE9",
"2.	c #E5DAE7",
"3.	c #E3D7E5",
"4.	c #E7DDE9",
"5.	c #E4D9E6",
"6.	c #E4D8E6",
"7.	c #DED0E1",
"8.	c #A27BA9",
"9.	c #7B5582",
"0.	c #7B5481",
"a.	c #92659A",
"b.	c #93669B",
"c.	c #94689C",
"d.	c #7B5482",
"e.	c #7B5480",
"f.	c #916498",
"g.	c #7A5480",
"h.	c #906397",
"i.	c #B596B9",
"j.	c #D0BED3",
"k.	c #CAB4CD",
"l.	c #C5AEC9",
"m.	c #C4ACC8",
"n.	c #C6AEC9",
"o.	c #C2AAC6",
"p.	c #BEA3C2",
"q.	c #9970A0",
"r.	c #7A5381",
"s.	c #795380",
"t.	c #79537F",
"u.	c #8F6296",
"v.	c #E6DCE8",
"w.	c #FCFBFC",
"x.	c #FDFDFD",
"y.	c #FAF8FA",
"z.	c #BDA3C1",
"A.	c #7A5380",
"B.	c #5D3768",
"C.	c #8C6092",
"D.	c #8E6295",
"E.	c #B192B5",
"F.	c #CDB9D0",
"G.	c #CBB7CE",
"H.	c #CCB8CF",
"I.	c #D0BDD3",
"J.	c #D6C6D8",
"K.	c #DCCEDE",
"L.	c #DDD0DF",
"M.	c #E0D3E1",
"N.	c #DFD2E1",
"O.	c #A481AA",
"P.	c #8B6093",
"Q.	c #5D3668",
"R.	c #78527E",
"S.	c #78537E",
"T.	c #643C6C",
"U.	c #7E5385",
"V.	c #8D6194",
"W.	c #7D5285",
"X.	c #78527F",
"Y.	c #77537E",
"Z.	c #6F4976",
"`.	c #895E90",
" +	c #8C6093",
".+	c #633C6D",
"++	c #77527D",
"@+	c #78517D",
"#+	c #77517E",
"$+	c #6D4676",
"%+	c #61396A",
"&+	c #7C5183",
"*+	c #885D90",
"=+	c #8B5F92",
"-+	c #885C8F",
";+	c #6E4677",
">+	c #77527E",
",+	c #77517D",
"'+	c #76517D",
")+	c #76517C",
"!+	c #6C4774",
"~+	c #633C6C",
"{+	c #5D3667",
"]+	c #6D4775",
"^+	c #76527D",
"/+	c #77527C",
"(+	c #76507C",
"_+	c #734E79",
":+	c #724E78",
"<+	c #714D77",
"[+	c #75507C",
"}+	c #75517B",
"|+	c #76507B",
"1+	c #75507B",
"2+	c #76517B",
"3+	c #75517C",
"4+	c #855C8C",
"5+	c #835C8A",
"6+	c #835A8B",
"7+	c #845A8A",
"8+	c #6D4874",
"9+	c #825A8A",
"0+	c #734E7A",
"a+	c #815888",
"b+	c #805887",
"c+	c #927597",
"d+	c #AC95AF",
"e+	c #AD97B0",
"f+	c #AE98B1",
"g+	c #AF99B2",
"h+	c #AF9AB3",
"i+	c #B19CB4",
"j+	c #85658B",
"k+	c #E2DAE3",
"l+	c #FBFAFB",
"m+	c #FCFCFC",
"n+	c #FAF9FA",
"o+	c #BFAEC2",
"p+	c #BFADC1",
"q+	c #E3DBE4",
"r+	c #E4DDE6",
"s+	c #E1D9E2",
"t+	c #E0D8E1",
"u+	c #E1D9E3",
"v+	c #DED5DF",
"w+	c #DFD6E0",
"x+	c #DDD4DF",
"y+	c #9B81A0",
"z+	c #77537D",
"A+	c #7D5685",
"B+	c #7D5784",
"C+	c #8D6E92",
"D+	c #9E83A2",
"E+	c #9D83A1",
"F+	c #A48CA8",
"G+	c #AB94AE",
"H+	c #AB95AF",
"I+	c #A993AD",
"J+	c #7B5881",
"K+	c #F8F6F8",
"L+	c #F7F5F7",
"M+	c #F9F7F9",
"N+	c #A48BA8",
"O+	c #C4B4C7",
"P+	c #DBD2DD",
"Q+	c #DDD4DE",
"R+	c #DCD3DE",
"S+	c #D5CAD7",
"T+	c #88698E",
"U+	c #7B5581",
"V+	c #7A5481",
"W+	c #A28AA6",
"X+	c #C5B6C8",
"Y+	c #BDABC0",
"Z+	c #B7A4BA",
"`+	c #B6A2B9",
" @	c #B8A4BB",
".@	c #B4A0B7",
"+@	c #805E86",
"@@	c #9F86A3",
"#@	c #C2B1C5",
"$@	c #C0AFC2",
"%@	c #C0AFC3",
"&@	c #CDBFCF",
"*@	c #D4C9D6",
"=@	c #D6CBD8",
"-@	c #D9CEDA",
";@	c #D7CDD9",
">@	c #907295",
",@	c #79527E",
"'@	c #77517C",
"  . + @       @ . # + $ + . @     @   .   #     . . ",
"%       & * % &       =     & * * &   * - * %       ",
"; & ; & > , ' ) ) ) ) ) ) ) ) ) ) ) ) ' , ! & & ; & ",
"~ { ] ^ / ( _ : : : : : : : : : : : : _ < [ } ] ~ ~ ",
"| | 1 2 3 4 5 6 6 6 6 6 6 6 6 6 6 6 6 5 4 7 2 8 9 9 ",
"0 a b c d e e e e e e e e e e e e e e e e d f g 0 0 ",
"h a ' i j j j j j j j j j j j j j j j j j j k ' l m ",
"m n ) o i i i i p q r q q s t u v u w i i i o ) x n ",
"n y ) z z z z z A B C D D E E D F E G z z z z ) y n ",
"H I ) J J J J J K L M N O P P Q R S T J J J J ) U y ",
"V V ) W W W W W W X Y Z ` ` ` W ` W W W W W W ) I V ",
" ...) +.+.+.+.+.+.+.+.+.+.+.+.+.+.+.+.+.+.+.+.) ..V ",
"@.#.) $.$.$.$.$.%.&.*.*.*.=.-.;.>.,.'.$.$.$.$.) @.@.",
").).) !.!.!.!.!.~.{.F {.].D ^.D /./.(.!.!.!.!.) _.:.",
"<.<.) [.[.[.[.[.}.|.1.2.3.2.4.5.6.7.8.[.[.[.[.) :.<.",
"9.0.) a.a.a.a.a.b.c.a.a.a.a.a.a.a.a.a.a.a.a.a.) d.9.",
"0.e.) f.f.f.f.f.f.f.f.f.f.f.f.f.f.f.f.f.f.f.f.) 0.0.",
"g.g.) h.h.h.h.h.i.j.k.l.m.n.l.m.o.p.q.h.h.h.h.) g.r.",
"s.t.) u.u.u.u.u.v.w.x.y.y.^.x.D D F z.u.u.u.u.) A.g.",
"t.t.B.C.D.D.D.D.E.F.G.H.I.J.K.L.M.N.O.D.D.D.P.Q.t.t.",
"R.S.T.U.V.V.V.V.V.V.V.V.V.V.V.V.V.V.V.V.V.V.W.T.S.X.",
"R.Y.Z.2 `. + + + + + + + + + + + + + + + +`..+Z.R.R.",
"++@+#+$+%+&+*+=+=+=+=+=+=+=+=+=+=+=+=+-+&+2 ;+++++>+",
",+'+,+)+!+~+{+) ) ) ) ) ) ) ) ) ) ) ) {+~+]+^+,+/+'+",
")+)+(+)+)+_+:+<+<+<+<+<+<+<+<+<+<+<+<+:+_+(+)+)+)+)+",
"[+}+|+[+(+1+1+|+[+1+1+1+1+1+)+2+}+|+1+|+}+3+[+1+|+1+",
") ) ) ) ) ) ) ) ) ) ) ) ) ) ' ) ) ) ) ) ) ) ) ' ) ) ",
"4+4+$ + + @ . $ @ # # + $ $ @ $ + + . $ # . 4+$ . 4+",
"      *   5+    *     .   * *     *   .           . ",
"& 6+* & > , ) ) ) ) ) ) ) ) ) ) ) ) ) ) , ! 7+; 7+; ",
"; ~ ~ ^ / 8+1+1+1+1+1+1+1+1+1+1+1+1+1+1+8+[ } 9+~ ~ ",
"~ { 1 2 0+1+1+1+1+1+1+1+1+1+1+1+1+1+1+1+1+0+2 8 { | ",
"a a b 8+1+1+1+1+1+1+1+1+1+1+1+1+1+1+1+1+1+1+8+g a | ",
"m a+) 1+1+1+1+1+1+1+1+1+1+1+1+1+1+1+1+1+1+1+1+) a l ",
"b+m ) 1+1+1+1+1+c+d+e+d+d+f+g+h+i+h+j+1+1+1+1+) m b+",
"n n ) 1+1+1+1+1+k+l+m+y.y.w.w.y.n+w.o+1+1+1+1+) n n ",
"I y ) 1+1+1+1+1+p+q+r+s+t+k+u+v+w+x+y+1+1+1+1+) H I ",
"V V ) 1+1+1+1+1+1+z+++)+)+)+)+1+)+1+1+1+1+1+1+) V I ",
"A+..) 1+1+1+1+1+1+1+1+1+1+1+1+1+1+1+1+1+1+1+1+)  .B+",
"#.@.) 1+1+1+1+1+C+D+E+E+E+F+G+H+f+I+J+1+1+1+1+) @.B+",
").#.) 1+1+1+1+1+k+K+n+K+L+y.w.y.M+M+N+1+1+1+1+) :.<.",
"_.<.) 1+1+1+1+1+O+q+u+x+P+x+s+Q+R+S+T+1+1+1+1+) <.<.",
"9.U+) 1+1+1+1+1+)+S.1+1+1+1+1+1+1+1+1+1+1+1+1+) 9.U+",
"0.0.) 1+1+1+1+1+1+1+1+1+1+1+1+1+1+1+1+1+1+1+1+) g.V+",
"A.A.) 1+1+1+1+1+W+X+Y+Z+`+ @Z+`+.@f++@1+1+1+1+) V+V+",
"t.s.) 1+1+1+1+1+t+l+C M+M+w.C n+n+l+f+1+1+1+1+) g.A.",
"t.t.B.1+1+1+1+1+@@#@$@%@X+&@*@=@-@;@>@1+1+1+1+) t.t.",
",@S.T.8+1+1+1+1+1+1+1+1+1+1+1+1+1+1+1+1+1+1+8+T.S.X.",
"R.R.Z.2 0+1+1+1+1+1+1+1+1+1+1+1+1+1+1+1+1+0+.+Z.R.>+",
",+,+,+$+%+8+1+1+1+1+1+1+1+1+1+1+1+1+1+1+8+2 ;+++++>+",
")+'+'@'+!+~+{+) ) ) ) ) ) ) ) ) ) ) ) {+~+]+)+,+)+'+",
")+2+)+)+|+_+:+<+<+<+<+<+<+<+<+<+<+<+<+:+_+)+|+[+)+)+",
"1+1+}+1+1+|+|+1+1+[+}+[+1+1+1+1+1+1+}+1+1+}+1+(+1+}+",
") ) ) ) ) ) ) ) ) ) ) ) ) ) ) ) ) ) ) ) ) ) ) ) ) ) "};
