/* XPM */
static char * menuButtonI_xpm[] = {
"26 54 172 2",
"  	c #845B8B",
". 	c #845C8B",
"+ 	c #845C8C",
"@ 	c #855B8B",
"# 	c #855B8C",
"$ 	c #855C8B",
"% 	c #835B8B",
"& 	c #835B8A",
"* 	c #845B8A",
"= 	c #835C8B",
"- 	c #845C8A",
"; 	c #835A8A",
"> 	c #7A5082",
", 	c #673F70",
"' 	c #5C3566",
") 	c #7A5182",
"! 	c #835A89",
"~ 	c #825A89",
"{ 	c #825B89",
"] 	c #774C7F",
"^ 	c #643C6D",
"/ 	c #6D4874",
"( 	c #75507B",
"_ 	c #663D6F",
": 	c #774D7F",
"< 	c #825A88",
"[ 	c #7A5081",
"} 	c #633B6D",
"| 	c #734E7A",
"1 	c #795181",
"2 	c #825988",
"3 	c #815A88",
"4 	c #815988",
"5 	c #663F6F",
"6 	c #673E70",
"7 	c #805888",
"8 	c #815987",
"9 	c #805987",
"0 	c #805886",
"a 	c #927597",
"b 	c #AC95AF",
"c 	c #AD97B0",
"d 	c #AE98B1",
"e 	c #AF99B2",
"f 	c #AF9AB3",
"g 	c #B19CB4",
"h 	c #85658B",
"i 	c #805986",
"j 	c #7F5886",
"k 	c #E2DAE3",
"l 	c #FBFAFB",
"m 	c #FCFCFC",
"n 	c #FAF8FA",
"o 	c #FCFBFC",
"p 	c #FAF9FA",
"q 	c #BFAEC2",
"r 	c #7F5786",
"s 	c #7F5785",
"t 	c #BFADC1",
"u 	c #E3DBE4",
"v 	c #E4DDE6",
"w 	c #E1D9E2",
"x 	c #E0D8E1",
"y 	c #E1D9E3",
"z 	c #DED5DF",
"A 	c #DFD6E0",
"B 	c #DDD4DF",
"C 	c #9B81A0",
"D 	c #7F5885",
"E 	c #7E5785",
"F 	c #77537D",
"G 	c #77527D",
"H 	c #76517C",
"I 	c #7E5784",
"J 	c #7E5684",
"K 	c #7D5684",
"L 	c #7D5683",
"M 	c #8D6E92",
"N 	c #9E83A2",
"O 	c #9D83A1",
"P 	c #A48CA8",
"Q 	c #AB94AE",
"R 	c #AB95AF",
"S 	c #A993AD",
"T 	c #7B5881",
"U 	c #7C5683",
"V 	c #F8F6F8",
"W 	c #F7F5F7",
"X 	c #F9F7F9",
"Y 	c #A48BA8",
"Z 	c #7C5682",
"` 	c #7C5583",
" .	c #7C5582",
"..	c #C4B4C7",
"+.	c #DBD2DD",
"@.	c #DDD4DE",
"#.	c #DCD3DE",
"$.	c #D5CAD7",
"%.	c #88698E",
"&.	c #7B5582",
"*.	c #7B5481",
"=.	c #78537E",
"-.	c #7B5482",
";.	c #7B5480",
">.	c #7A5480",
",.	c #A28AA6",
"'.	c #C5B6C8",
").	c #BDABC0",
"!.	c #B7A4BA",
"~.	c #B6A2B9",
"{.	c #B8A4BB",
"].	c #B4A0B7",
"^.	c #805E86",
"/.	c #7A5381",
"(.	c #795380",
"_.	c #79537F",
":.	c #FDFCFD",
"<.	c #7A5380",
"[.	c #5D3768",
"}.	c #9F86A3",
"|.	c #C2B1C5",
"1.	c #C0AFC2",
"2.	c #C0AFC3",
"3.	c #CDBFCF",
"4.	c #D4C9D6",
"5.	c #D6CBD8",
"6.	c #D9CEDA",
"7.	c #D7CDD9",
"8.	c #907295",
"9.	c #78527E",
"0.	c #643C6C",
"a.	c #78527F",
"b.	c #77537E",
"c.	c #6F4976",
"d.	c #633C6D",
"e.	c #78517D",
"f.	c #77517E",
"g.	c #6D4676",
"h.	c #61396A",
"i.	c #6E4677",
"j.	c #77527E",
"k.	c #77517D",
"l.	c #76517D",
"m.	c #6C4774",
"n.	c #633C6C",
"o.	c #5D3667",
"p.	c #6D4775",
"q.	c #76527D",
"r.	c #77527C",
"s.	c #76507C",
"t.	c #734E79",
"u.	c #724E78",
"v.	c #714D77",
"w.	c #75507C",
"x.	c #75517B",
"y.	c #76507B",
"z.	c #76517B",
"A.	c #75517C",
"B.	c #5E3768",
"C.	c #855C8C",
"D.	c #835C8A",
"E.	c #835A8B",
"F.	c #845A8A",
"G.	c #825A8A",
"H.	c #815888",
"I.	c #805887",
"J.	c #7D5685",
"K.	c #7D5784",
"L.	c #7B5581",
"M.	c #7A5481",
"N.	c #79527E",
"O.	c #77517C",
"  . + @       @ . # + $ + . @     @   .   #     . . ",
"%       & * % &       =     & * * &   * - * %       ",
"; & ; & > , ' ' ' ' ' ' ' ' ' ' ' ' ' ' , ) & & ; & ",
"! ~ { ] ^ / ( ( ( ( ( ( ( ( ( ( ( ( ( ( / _ : { ! ! ",
"< < [ } | ( ( ( ( ( ( ( ( ( ( ( ( ( ( ( ( | } 1 2 2 ",
"3 4 5 / ( ( ( ( ( ( ( ( ( ( ( ( ( ( ( ( ( ( / 6 3 3 ",
"7 4 ' ( ( ( ( ( ( ( ( ( ( ( ( ( ( ( ( ( ( ( ( ' 8 9 ",
"9 0 ' ( ( ( ( ( a b c b b d e f g f h ( ( ( ( ' i 0 ",
"0 j ' ( ( ( ( ( k l m n n o o n p o q ( ( ( ( ' j 0 ",
"r s ' ( ( ( ( ( t u v w x k y z A B C ( ( ( ( ' D j ",
"E E ' ( ( ( ( ( ( F G H H H H ( H ( ( ( ( ( ( ' s E ",
"I J ' ( ( ( ( ( ( ( ( ( ( ( ( ( ( ( ( ( ( ( ( ' J E ",
"K L ' ( ( ( ( ( M N O O O P Q R d S T ( ( ( ( ' K K ",
"U U ' ( ( ( ( ( k V p V W n o n X X Y ( ( ( ( ' Z ` ",
" . .' ( ( ( ( ( ..u y B +.B w @.#.$.%.( ( ( ( ' `  .",
"&.*.' ( ( ( ( ( H =.( ( ( ( ( ( ( ( ( ( ( ( ( ' -.&.",
"*.;.' ( ( ( ( ( ( ( ( ( ( ( ( ( ( ( ( ( ( ( ( ' *.*.",
">.>.' ( ( ( ( ( ,.'.).!.~.{.!.~.].d ^.( ( ( ( ' >./.",
"(._.' ( ( ( ( ( x l :.X X o :.p p l d ( ( ( ( ' <.>.",
"_._.[.( ( ( ( ( }.|.1.2.'.3.4.5.6.7.8.( ( ( ( ' _._.",
"9.=.0./ ( ( ( ( ( ( ( ( ( ( ( ( ( ( ( ( ( ( / 0.=.a.",
"9.b.c.} | ( ( ( ( ( ( ( ( ( ( ( ( ( ( ( ( | d.c.9.9.",
"G e.f.g.h./ ( ( ( ( ( ( ( ( ( ( ( ( ( ( / } i.G G j.",
"k.l.k.H m.n.o.' ' ' ' ' ' ' ' ' ' ' ' o.n.p.q.k.r.l.",
"H H s.H H t.u.v.v.v.v.v.v.v.v.v.v.v.v.u.t.s.H H H H ",
"w.x.y.w.s.( ( y.w.( ( ( ( ( H z.x.y.( y.x.A.w.( y.( ",
"' ' ' ' ' ' ' ' ' ' ' ' ' ' B.' ' ' ' ' ' ' ' B.' ' ",
"C.C.$ + + @ . $ @ # # + $ $ @ $ + + . $ # . C.$ . C.",
"      *   D.    *     .   * *     *   .           . ",
"& E.* & > , ' ' ' ' ' ' ' ' ' ' ' ' ' ' , ) F.; F.; ",
"; ! ! ] ^ / ( ( ( ( ( ( ( ( ( ( ( ( ( ( / _ : G.! ! ",
"! ~ [ } | ( ( ( ( ( ( ( ( ( ( ( ( ( ( ( ( | } 1 ~ < ",
"4 4 5 / ( ( ( ( ( ( ( ( ( ( ( ( ( ( ( ( ( ( / 6 4 < ",
"9 H.' ( ( ( ( ( ( ( ( ( ( ( ( ( ( ( ( ( ( ( ( ' 4 8 ",
"I.9 ' ( ( ( ( ( a b c b b d e f g f h ( ( ( ( ' 9 I.",
"0 0 ' ( ( ( ( ( k l m n n o o n p o q ( ( ( ( ' 0 0 ",
"s j ' ( ( ( ( ( t u v w x k y z A B C ( ( ( ( ' r s ",
"E E ' ( ( ( ( ( ( F G H H H H ( H ( ( ( ( ( ( ' E s ",
"J.J ' ( ( ( ( ( ( ( ( ( ( ( ( ( ( ( ( ( ( ( ( ' I K.",
"L K ' ( ( ( ( ( M N O O O P Q R d S T ( ( ( ( ' K K.",
"U L ' ( ( ( ( ( k V p V W n o n X X Y ( ( ( ( ' `  .",
"Z  .' ( ( ( ( ( ..u y B +.B w @.#.$.%.( ( ( ( '  . .",
"&.L.' ( ( ( ( ( H =.( ( ( ( ( ( ( ( ( ( ( ( ( ' &.L.",
"*.*.' ( ( ( ( ( ( ( ( ( ( ( ( ( ( ( ( ( ( ( ( ' >.M.",
"<.<.' ( ( ( ( ( ,.'.).!.~.{.!.~.].d ^.( ( ( ( ' M.M.",
"_.(.' ( ( ( ( ( x l :.X X o :.p p l d ( ( ( ( ' >.<.",
"_._.[.( ( ( ( ( }.|.1.2.'.3.4.5.6.7.8.( ( ( ( ' _._.",
"N.=.0./ ( ( ( ( ( ( ( ( ( ( ( ( ( ( ( ( ( ( / 0.=.a.",
"9.9.c.} | ( ( ( ( ( ( ( ( ( ( ( ( ( ( ( ( | d.c.9.j.",
"k.k.k.g.h./ ( ( ( ( ( ( ( ( ( ( ( ( ( ( / } i.G G j.",
"H l.O.l.m.n.o.' ' ' ' ' ' ' ' ' ' ' ' o.n.p.H k.H l.",
"H z.H H y.t.u.v.v.v.v.v.v.v.v.v.v.v.v.u.t.H y.w.H H ",
"( ( x.( ( y.y.( ( w.x.w.( ( ( ( ( ( x.( ( x.( s.( x.",
"' ' ' ' ' ' ' ' ' ' ' ' ' ' ' ' ' ' ' ' ' ' ' ' ' ' "};
