/* XPM */
static char * minimizeA_xpm[] = {
"26 54 179 2",
"  	c #845B8B",
". 	c #845C8B",
"+ 	c #845C8C",
"@ 	c #855B8B",
"# 	c #855B8C",
"$ 	c #855C8B",
"% 	c #835B8B",
"& 	c #835B8A",
"* 	c #845B8A",
"= 	c #835C8B",
"- 	c #845C8A",
"; 	c #835A8A",
"> 	c #7A5082",
", 	c #673F70",
"' 	c #5E3768",
") 	c #5C3566",
"! 	c #7A5182",
"~ 	c #835A89",
"{ 	c #825A89",
"] 	c #825B89",
"^ 	c #774C7F",
"/ 	c #643C6D",
"( 	c #8C5F94",
"_ 	c #A274A9",
": 	c #A578AD",
"< 	c #8D6095",
"[ 	c #663D6F",
"} 	c #774D7F",
"| 	c #825A88",
"1 	c #7A5081",
"2 	c #633B6D",
"3 	c #9D71A6",
"4 	c #A070A8",
"5 	c #9E6EA6",
"6 	c #9E6DA6",
"7 	c #9D70A6",
"8 	c #795181",
"9 	c #825988",
"0 	c #815A88",
"a 	c #815988",
"b 	c #663F6F",
"c 	c #8A5D93",
"d 	c #9D6DA5",
"e 	c #9D6CA5",
"f 	c #8A5D92",
"g 	c #673E70",
"h 	c #805888",
"i 	c #9B6BA3",
"j 	c #9C6BA4",
"k 	c #9A6BA3",
"l 	c #815987",
"m 	c #805987",
"n 	c #805886",
"o 	c #9B6CA3",
"p 	c #805986",
"q 	c #7F5886",
"r 	c #9A6AA2",
"s 	c #EEEEEC",
"t 	c #7F5786",
"u 	c #7F5785",
"v 	c #9969A1",
"w 	c #7F5885",
"x 	c #7E5785",
"y 	c #98689F",
"z 	c #7E5784",
"A 	c #7E5684",
"B 	c #97689E",
"C 	c #7D5684",
"D 	c #7D5683",
"E 	c #96679D",
"F 	c #CBB9CD",
"G 	c #CBB8CD",
"H 	c #7C5683",
"I 	c #94669C",
"J 	c #96699E",
"K 	c #D9CFD9",
"L 	c #DBD2DB",
"M 	c #976A9E",
"N 	c #7C5682",
"O 	c #7C5583",
"P 	c #7C5582",
"Q 	c #93659B",
"R 	c #9C72A3",
"S 	c #E5E1E4",
"T 	c #E6E2E5",
"U 	c #9D74A4",
"V 	c #7B5582",
"W 	c #7B5481",
"X 	c #92659A",
"Y 	c #A785AD",
"Z 	c #ECEBEA",
"` 	c #ECECEA",
" .	c #A988AE",
"..	c #7B5482",
"+.	c #7B5480",
"@.	c #916498",
"#.	c #7A5480",
"$.	c #906397",
"%.	c #7A5381",
"&.	c #795380",
"*.	c #79537F",
"=.	c #8F6296",
"-.	c #7A5380",
";.	c #5D3768",
">.	c #8C6092",
",.	c #8E6295",
"'.	c #8B6093",
").	c #5D3668",
"!.	c #78527E",
"~.	c #78537E",
"{.	c #643C6C",
"].	c #7E5385",
"^.	c #8D6194",
"/.	c #7D5285",
"(.	c #78527F",
"_.	c #77537E",
":.	c #6F4976",
"<.	c #895E90",
"[.	c #8C6093",
"}.	c #633C6D",
"|.	c #77527D",
"1.	c #78517D",
"2.	c #77517E",
"3.	c #6D4676",
"4.	c #61396A",
"5.	c #7C5183",
"6.	c #885D90",
"7.	c #8B5F92",
"8.	c #885C8F",
"9.	c #6E4677",
"0.	c #77527E",
"a.	c #77517D",
"b.	c #76517D",
"c.	c #76517C",
"d.	c #6C4774",
"e.	c #633C6C",
"f.	c #5D3667",
"g.	c #6D4775",
"h.	c #76527D",
"i.	c #77527C",
"j.	c #76507C",
"k.	c #734E79",
"l.	c #724E78",
"m.	c #714D77",
"n.	c #75507C",
"o.	c #75517B",
"p.	c #76507B",
"q.	c #75507B",
"r.	c #76517B",
"s.	c #75517C",
"t.	c #855C8C",
"u.	c #835C8A",
"v.	c #835A8B",
"w.	c #845A8A",
"x.	c #6D4874",
"y.	c #825A8A",
"z.	c #734E7A",
"A.	c #815888",
"B.	c #805887",
"C.	c #FFFFFF",
"D.	c #7D5685",
"E.	c #7D5784",
"F.	c #C8BACB",
"G.	c #C8B9CA",
"H.	c #DFD7E0",
"I.	c #E2DAE3",
"J.	c #79557F",
"K.	c #836188",
"L.	c #F1EEF2",
"M.	c #F3F0F4",
"N.	c #846389",
"O.	c #7B5581",
"P.	c #95789A",
"Q.	c #FCFCFC",
"R.	c #FDFCFD",
"S.	c #987C9C",
"T.	c #7A5481",
"U.	c #79527E",
"V.	c #77517C",
"  . + @       @ . # + $ + . @     @   .   #     . . ",
"%       & * % &       =     & * * &   * - * %       ",
"; & ; & > , ' ) ) ) ) ) ) ) ) ) ) ) ) ' , ! & & ; & ",
"~ { ] ^ / ( _ : : : : : : : : : : : : _ < [ } ] ~ ~ ",
"| | 1 2 3 4 5 6 6 6 6 6 6 6 6 6 6 6 6 5 4 7 2 8 9 9 ",
"0 a b c d e e e e e e e e e e e e e e e e d f g 0 0 ",
"h a ' i j j j j j j j j j j j j j j j j j j k ' l m ",
"m n ) o i i i i i i i i i i i i i i i i i i o ) p n ",
"n q ) r r r r r r r r r s s r r r r r r r r r ) q n ",
"t u ) v v v v v v v v v s s v v v v v v v v v ) w q ",
"x x ) y y y y y y y y y s s y y y y y y y y y ) u x ",
"z A ) B B B B B B B B B s s B B B B B B B B B ) A x ",
"C D ) E E E E E E F s s s s s s G E E E E E E ) C C ",
"H H ) I I I I I I J K s s s s L M I I I I I I ) N O ",
"P P ) Q Q Q Q Q Q Q R S s s T U Q Q Q Q Q Q Q ) O P ",
"V W ) X X X X X X X X Y Z `  .X X X X X X X X ) ..V ",
"W +.) @.@.@.@.@.@.s s s s s s s s @.@.@.@.@.@.) W W ",
"#.#.) $.$.$.$.$.$.s s s s s s s s $.$.$.$.$.$.) #.%.",
"&.*.) =.=.=.=.=.=.=.=.=.=.=.=.=.=.=.=.=.=.=.=.) -.#.",
"*.*.;.>.,.,.,.,.,.,.,.,.,.,.,.,.,.,.,.,.,.,.'.).*.*.",
"!.~.{.].^.^.^.^.^.^.^.^.^.^.^.^.^.^.^.^.^.^./.{.~.(.",
"!._.:.2 <.[.[.[.[.[.[.[.[.[.[.[.[.[.[.[.[.<.}.:.!.!.",
"|.1.2.3.4.5.6.7.7.7.7.7.7.7.7.7.7.7.7.8.5.2 9.|.|.0.",
"a.b.a.c.d.e.f.) ) ) ) ) ) ) ) ) ) ) ) f.e.g.h.a.i.b.",
"c.c.j.c.c.k.l.m.m.m.m.m.m.m.m.m.m.m.m.l.k.j.c.c.c.c.",
"n.o.p.n.j.q.q.p.n.q.q.q.q.q.c.r.o.p.q.p.o.s.n.q.p.q.",
") ) ) ) ) ) ) ) ) ) ) ) ) ) ' ) ) ) ) ) ) ) ) ' ) ) ",
"t.t.$ + + @ . $ @ # # + $ $ @ $ + + . $ # . t.$ . t.",
"      *   u.    *     .   * *     *   .           . ",
"& v.* & > , ) ) ) ) ) ) ) ) ) ) ) ) ) ) , ! w.; w.; ",
"; ~ ~ ^ / x.q.q.q.q.q.q.q.q.q.q.q.q.q.q.x.[ } y.~ ~ ",
"~ { 1 2 z.q.q.q.q.q.q.q.q.q.q.q.q.q.q.q.q.z.2 8 { | ",
"a a b x.q.q.q.q.q.q.q.q.q.q.q.q.q.q.q.q.q.q.x.g a | ",
"m A.) q.q.q.q.q.q.q.q.q.q.q.q.q.q.q.q.q.q.q.q.) a l ",
"B.m ) q.q.q.q.q.q.q.q.q.q.q.q.q.q.q.q.q.q.q.q.) m B.",
"n n ) q.q.q.q.q.q.q.q.q.C.C.q.q.q.q.q.q.q.q.q.) n n ",
"u q ) q.q.q.q.q.q.q.q.q.C.C.q.q.q.q.q.q.q.q.q.) t u ",
"x x ) q.q.q.q.q.q.q.q.q.C.C.q.q.q.q.q.q.q.q.q.) x u ",
"D.A ) q.q.q.q.q.q.q.q.q.C.C.q.q.q.q.q.q.q.q.q.) z E.",
"D C ) q.q.q.q.q.q.F.C.C.C.C.C.C.G.q.q.q.q.q.q.) C E.",
"H D ) q.q.q.q.q.q.~.H.C.C.C.C.I.J.q.q.q.q.q.q.) O P ",
"N P ) q.q.q.q.q.q.q.K.L.C.C.M.N.q.q.q.q.q.q.q.) P P ",
"V O.) q.q.q.q.q.q.q.q.P.Q.R.S.q.q.q.q.q.q.q.q.) V O.",
"W W ) q.q.q.q.q.q.C.C.C.C.C.C.C.C.q.q.q.q.q.q.) #.T.",
"-.-.) q.q.q.q.q.q.C.C.C.C.C.C.C.C.q.q.q.q.q.q.) T.T.",
"*.&.) q.q.q.q.q.q.q.q.q.q.q.q.q.q.q.q.q.q.q.q.) #.-.",
"*.*.;.q.q.q.q.q.q.q.q.q.q.q.q.q.q.q.q.q.q.q.q.) *.*.",
"U.~.{.x.q.q.q.q.q.q.q.q.q.q.q.q.q.q.q.q.q.q.x.{.~.(.",
"!.!.:.2 z.q.q.q.q.q.q.q.q.q.q.q.q.q.q.q.q.z.}.:.!.0.",
"a.a.a.3.4.x.q.q.q.q.q.q.q.q.q.q.q.q.q.q.x.2 9.|.|.0.",
"c.b.V.b.d.e.f.) ) ) ) ) ) ) ) ) ) ) ) f.e.g.c.a.c.b.",
"c.r.c.c.p.k.l.m.m.m.m.m.m.m.m.m.m.m.m.l.k.c.p.n.c.c.",
"q.q.o.q.q.p.p.q.q.n.o.n.q.q.q.q.q.q.o.q.q.o.q.j.q.o.",
") ) ) ) ) ) ) ) ) ) ) ) ) ) ) ) ) ) ) ) ) ) ) ) ) ) "};
