/* XPM */
static char * restoreI_xpm[] = {
"26 54 127 2",
"  	c #845B8B",
". 	c #845C8B",
"+ 	c #845C8C",
"@ 	c #855B8B",
"# 	c #855B8C",
"$ 	c #855C8B",
"% 	c #835B8B",
"& 	c #835B8A",
"* 	c #845B8A",
"= 	c #835C8B",
"- 	c #845C8A",
"; 	c #835A8A",
"> 	c #7A5082",
", 	c #673F70",
"' 	c #5C3566",
") 	c #7A5182",
"! 	c #835A89",
"~ 	c #825A89",
"{ 	c #825B89",
"] 	c #774C7F",
"^ 	c #643C6D",
"/ 	c #6D4874",
"( 	c #75507B",
"_ 	c #663D6F",
": 	c #774D7F",
"< 	c #825A88",
"[ 	c #7A5081",
"} 	c #633B6D",
"| 	c #734E7A",
"1 	c #795181",
"2 	c #825988",
"3 	c #815A88",
"4 	c #815988",
"5 	c #663F6F",
"6 	c #673E70",
"7 	c #805888",
"8 	c #815987",
"9 	c #805987",
"0 	c #805886",
"a 	c #B9A6BC",
"b 	c #86668C",
"c 	c #D4C8D6",
"d 	c #A38AA7",
"e 	c #805986",
"f 	c #7F5886",
"g 	c #FFFFFF",
"h 	c #B8A4BB",
"i 	c #87678D",
"j 	c #EEEAEF",
"k 	c #D5C9D7",
"l 	c #7F5786",
"m 	c #7F5785",
"n 	c #F6F4F7",
"o 	c #F0ECF1",
"p 	c #88688D",
"q 	c #7F5885",
"r 	c #7E5785",
"s 	c #7E5784",
"t 	c #7E5684",
"u 	c #7D5684",
"v 	c #7D5683",
"w 	c #BFADC1",
"x 	c #7C5683",
"y 	c #B5A2B9",
"z 	c #7C5682",
"A 	c #7C5583",
"B 	c #7C5582",
"C 	c #7B5582",
"D 	c #7B5481",
"E 	c #7B5482",
"F 	c #7B5480",
"G 	c #EEE9EE",
"H 	c #7A5480",
"I 	c #7A5381",
"J 	c #795380",
"K 	c #79537F",
"L 	c #A68EAA",
"M 	c #D7CCD9",
"N 	c #88698E",
"O 	c #7A5380",
"P 	c #5D3768",
"Q 	c #78527E",
"R 	c #78537E",
"S 	c #643C6C",
"T 	c #78527F",
"U 	c #77537E",
"V 	c #6F4976",
"W 	c #633C6D",
"X 	c #77527D",
"Y 	c #78517D",
"Z 	c #77517E",
"` 	c #6D4676",
" .	c #61396A",
"..	c #6E4677",
"+.	c #77527E",
"@.	c #77517D",
"#.	c #76517D",
"$.	c #76517C",
"%.	c #6C4774",
"&.	c #633C6C",
"*.	c #5D3667",
"=.	c #6D4775",
"-.	c #76527D",
";.	c #77527C",
">.	c #76507C",
",.	c #734E79",
"'.	c #724E78",
").	c #714D77",
"!.	c #75507C",
"~.	c #75517B",
"{.	c #76507B",
"].	c #76517B",
"^.	c #75517C",
"/.	c #5E3768",
"(.	c #855C8C",
"_.	c #835C8A",
":.	c #835A8B",
"<.	c #845A8A",
"[.	c #825A8A",
"}.	c #815888",
"|.	c #805887",
"1.	c #7D5685",
"2.	c #7D5784",
"3.	c #7B5581",
"4.	c #7A5481",
"5.	c #79527E",
"6.	c #77517C",
"  . + @       @ . # + $ + . @     @   .   #     . . ",
"%       & * % &       =     & * * &   * - * %       ",
"; & ; & > , ' ' ' ' ' ' ' ' ' ' ' ' ' ' , ) & & ; & ",
"! ~ { ] ^ / ( ( ( ( ( ( ( ( ( ( ( ( ( ( / _ : { ! ! ",
"< < [ } | ( ( ( ( ( ( ( ( ( ( ( ( ( ( ( ( | } 1 2 2 ",
"3 4 5 / ( ( ( ( ( ( ( ( ( ( ( ( ( ( ( ( ( ( / 6 3 3 ",
"7 4 ' ( ( ( ( ( ( ( ( ( ( ( ( ( ( ( ( ( ( ( ( ' 8 9 ",
"9 0 ' ( ( ( ( ( ( ( ( ( ( a ( ( b c d ( ( ( ( ' e 0 ",
"0 f ' ( ( ( ( ( ( ( ( ( ( g h i j g k ( ( ( ( ' f 0 ",
"l m ' ( ( ( ( ( ( ( ( ( ( g g n g o p ( ( ( ( ' q f ",
"r r ' ( ( ( ( ( ( ( ( ( ( g g g n p ( ( ( ( ( ' m r ",
"s t ' ( ( ( ( ( ( ( ( ( ( g g g g a ( ( ( ( ( ' t r ",
"u v ' ( ( ( ( ( ( ( ( ( ( g g g g g w ( ( ( ( ' u u ",
"x x ' ( ( ( ( y g g g g g ( ( ( ( ( ( ( ( ( ( ' z A ",
"B B ' ( ( ( ( ( y g g g g ( ( ( ( ( ( ( ( ( ( ' A B ",
"C D ' ( ( ( ( ( b n g g g ( ( ( ( ( ( ( ( ( ( ' E C ",
"D F ' ( ( ( ( b G g n g g ( ( ( ( ( ( ( ( ( ( ' D D ",
"H H ' ( ( ( ( k g o p h g ( ( ( ( ( ( ( ( ( ( ' H I ",
"J K ' ( ( ( ( L M N ( ( a ( ( ( ( ( ( ( ( ( ( ' O H ",
"K K P ( ( ( ( ( ( ( ( ( ( ( ( ( ( ( ( ( ( ( ( ' K K ",
"Q R S / ( ( ( ( ( ( ( ( ( ( ( ( ( ( ( ( ( ( / S R T ",
"Q U V } | ( ( ( ( ( ( ( ( ( ( ( ( ( ( ( ( | W V Q Q ",
"X Y Z `  ./ ( ( ( ( ( ( ( ( ( ( ( ( ( ( / } ..X X +.",
"@.#.@.$.%.&.*.' ' ' ' ' ' ' ' ' ' ' ' *.&.=.-.@.;.#.",
"$.$.>.$.$.,.'.).).).).).).).).).).).).'.,.>.$.$.$.$.",
"!.~.{.!.>.( ( {.!.( ( ( ( ( $.].~.{.( {.~.^.!.( {.( ",
"' ' ' ' ' ' ' ' ' ' ' ' ' ' /.' ' ' ' ' ' ' ' /.' ' ",
"(.(.$ + + @ . $ @ # # + $ $ @ $ + + . $ # . (.$ . (.",
"      *   _.    *     .   * *     *   .           . ",
"& :.* & > , ' ' ' ' ' ' ' ' ' ' ' ' ' ' , ) <.; <.; ",
"; ! ! ] ^ / ( ( ( ( ( ( ( ( ( ( ( ( ( ( / _ : [.! ! ",
"! ~ [ } | ( ( ( ( ( ( ( ( ( ( ( ( ( ( ( ( | } 1 ~ < ",
"4 4 5 / ( ( ( ( ( ( ( ( ( ( ( ( ( ( ( ( ( ( / 6 4 < ",
"9 }.' ( ( ( ( ( ( ( ( ( ( ( ( ( ( ( ( ( ( ( ( ' 4 8 ",
"|.9 ' ( ( ( ( ( ( ( ( ( ( a ( ( b c d ( ( ( ( ' 9 |.",
"0 0 ' ( ( ( ( ( ( ( ( ( ( g h i j g k ( ( ( ( ' 0 0 ",
"m f ' ( ( ( ( ( ( ( ( ( ( g g n g o p ( ( ( ( ' l m ",
"r r ' ( ( ( ( ( ( ( ( ( ( g g g n p ( ( ( ( ( ' r m ",
"1.t ' ( ( ( ( ( ( ( ( ( ( g g g g a ( ( ( ( ( ' s 2.",
"v u ' ( ( ( ( ( ( ( ( ( ( g g g g g w ( ( ( ( ' u 2.",
"x v ' ( ( ( ( y g g g g g ( ( ( ( ( ( ( ( ( ( ' A B ",
"z B ' ( ( ( ( ( y g g g g ( ( ( ( ( ( ( ( ( ( ' B B ",
"C 3.' ( ( ( ( ( b n g g g ( ( ( ( ( ( ( ( ( ( ' C 3.",
"D D ' ( ( ( ( b G g n g g ( ( ( ( ( ( ( ( ( ( ' H 4.",
"O O ' ( ( ( ( k g o p h g ( ( ( ( ( ( ( ( ( ( ' 4.4.",
"K J ' ( ( ( ( L M N ( ( a ( ( ( ( ( ( ( ( ( ( ' H O ",
"K K P ( ( ( ( ( ( ( ( ( ( ( ( ( ( ( ( ( ( ( ( ' K K ",
"5.R S / ( ( ( ( ( ( ( ( ( ( ( ( ( ( ( ( ( ( / S R T ",
"Q Q V } | ( ( ( ( ( ( ( ( ( ( ( ( ( ( ( ( | W V Q +.",
"@.@.@.`  ./ ( ( ( ( ( ( ( ( ( ( ( ( ( ( / } ..X X +.",
"$.#.6.#.%.&.*.' ' ' ' ' ' ' ' ' ' ' ' *.&.=.$.@.$.#.",
"$.].$.$.{.,.'.).).).).).).).).).).).).'.,.$.{.!.$.$.",
"( ( ~.( ( {.{.( ( !.~.!.( ( ( ( ( ( ~.( ( ~.( >.( ~.",
"' ' ' ' ' ' ' ' ' ' ' ' ' ' ' ' ' ' ' ' ' ' ' ' ' ' "};
