/* XPM */
static char * restoreA_xpm[] = {
"26 54 189 2",
"  	c #845B8B",
". 	c #845C8B",
"+ 	c #845C8C",
"@ 	c #855B8B",
"# 	c #855B8C",
"$ 	c #855C8B",
"% 	c #835B8B",
"& 	c #835B8A",
"* 	c #845B8A",
"= 	c #835C8B",
"- 	c #845C8A",
"; 	c #835A8A",
"> 	c #7A5082",
", 	c #673F70",
"' 	c #5C3566",
") 	c #7A5182",
"! 	c #835A89",
"~ 	c #825A89",
"{ 	c #825B89",
"] 	c #774C7F",
"^ 	c #643C6D",
"/ 	c #8D6196",
"( 	c #A678AE",
"_ 	c #663D6F",
": 	c #774D7F",
"< 	c #825A88",
"[ 	c #7A5081",
"} 	c #633B6D",
"| 	c #A071A8",
"1 	c #A170A9",
"2 	c #9F6DA7",
"3 	c #A070A7",
"4 	c #795181",
"5 	c #825988",
"6 	c #815A88",
"7 	c #815988",
"8 	c #663F6F",
"9 	c #8B5F93",
"0 	c #9D6DA5",
"a 	c #9D6CA5",
"b 	c #9E6CA6",
"c 	c #673E70",
"d 	c #805888",
"e 	c #9E6EA6",
"f 	c #9C6BA4",
"g 	c #815987",
"h 	c #805987",
"i 	c #805886",
"j 	c #9B6BA3",
"k 	c #C4ACC7",
"l 	c #A67CAD",
"m 	c #D4C5D5",
"n 	c #B696BC",
"o 	c #805986",
"p 	c #7F5886",
"q 	c #9A6AA2",
"r 	c #EEEEEC",
"s 	c #C3AAC6",
"t 	c #A57CAB",
"u 	c #E4DEE3",
"v 	c #D4C5D6",
"w 	c #7F5786",
"x 	c #7F5785",
"y 	c #9969A1",
"z 	c #E9E6E7",
"A 	c #E5E0E4",
"B 	c #7F5885",
"C 	c #7E5785",
"D 	c #97689F",
"E 	c #9869A0",
"F 	c #E8E6E7",
"G 	c #A37BA9",
"H 	c #7E5784",
"I 	c #7E5684",
"J 	c #96679E",
"K 	c #C2AAC5",
"L 	c #7D5684",
"M 	c #7D5683",
"N 	c #95679D",
"O 	c #C5AFC7",
"P 	c #7C5683",
"Q 	c #95669C",
"R 	c #BEA5C1",
"S 	c #7C5682",
"T 	c #7C5583",
"U 	c #7C5582",
"V 	c #94669B",
"W 	c #7B5582",
"X 	c #7B5481",
"Y 	c #926499",
"Z 	c #93659A",
"` 	c #9E75A4",
" .	c #E8E5E7",
"..	c #7B5482",
"+.	c #7B5480",
"@.	c #916498",
"#.	c #9D75A3",
"$.	c #E2DDE1",
"%.	c #7A5480",
"&.	c #906397",
"*.	c #D1C3D2",
"=.	c #E4DFE3",
"-.	c #9D76A2",
";.	c #BEA6C0",
">.	c #7A5381",
",.	c #795380",
"'.	c #79537F",
").	c #8F6296",
"!.	c #B193B4",
"~.	c #D2C5D4",
"{.	c #BEA8C1",
"].	c #7A5380",
"^.	c #5D3768",
"/.	c #8E6295",
"(.	c #78527E",
"_.	c #78537E",
":.	c #643C6C",
"<.	c #7E5386",
"[.	c #8C6193",
"}.	c #8D6194",
"|.	c #7D5385",
"1.	c #78527F",
"2.	c #77537E",
"3.	c #6F4976",
"4.	c #885D8F",
"5.	c #8B6092",
"6.	c #633C6D",
"7.	c #77527D",
"8.	c #78517D",
"9.	c #77517E",
"0.	c #6D4676",
"a.	c #61396A",
"b.	c #7C5284",
"c.	c #8A5F91",
"d.	c #6E4677",
"e.	c #77527E",
"f.	c #77517D",
"g.	c #76517D",
"h.	c #76517C",
"i.	c #6C4774",
"j.	c #633C6C",
"k.	c #5D3667",
"l.	c #6D4775",
"m.	c #76527D",
"n.	c #77527C",
"o.	c #76507C",
"p.	c #734E79",
"q.	c #724E78",
"r.	c #714D77",
"s.	c #75507C",
"t.	c #75517B",
"u.	c #76507B",
"v.	c #75507B",
"w.	c #76517B",
"x.	c #75517C",
"y.	c #5E3768",
"z.	c #855C8C",
"A.	c #835C8A",
"B.	c #835A8B",
"C.	c #845A8A",
"D.	c #6D4874",
"E.	c #825A8A",
"F.	c #734E7A",
"G.	c #815888",
"H.	c #805887",
"I.	c #B9A6BC",
"J.	c #86668C",
"K.	c #D4C8D6",
"L.	c #A38AA7",
"M.	c #FFFFFF",
"N.	c #B8A4BB",
"O.	c #87678D",
"P.	c #EEEAEF",
"Q.	c #D5C9D7",
"R.	c #F6F4F7",
"S.	c #F0ECF1",
"T.	c #88688D",
"U.	c #7D5685",
"V.	c #7D5784",
"W.	c #BFADC1",
"X.	c #B5A2B9",
"Y.	c #7B5581",
"Z.	c #EEE9EE",
"`.	c #7A5481",
" +	c #A68EAA",
".+	c #D7CCD9",
"++	c #88698E",
"@+	c #79527E",
"#+	c #77517C",
"  . + @       @ . # + $ + . @     @   .   #     . . ",
"%       & * % &       =     & * * &   * - * %       ",
"; & ; & > , ' ' ' ' ' ' ' ' ' ' ' ' ' ' , ) & & ; & ",
"! ~ { ] ^ / ( ( ( ( ( ( ( ( ( ( ( ( ( ( / _ : { ! ! ",
"< < [ } | 1 2 2 2 2 2 2 2 2 2 2 2 2 2 2 1 3 } 4 5 5 ",
"6 7 8 9 0 a a a a a a b a a a b a a a a a 0 9 c 6 6 ",
"d 7 ' e f f f f f f f f f f f f f f f f f f e ' g h ",
"h i ' j j j j j j j j j j k j j l m n j j j j ' o i ",
"i p ' q q q q q q q q q q r s t u r v q q q q ' p i ",
"w x ' y y y y y y y y y y r r z r A t y y y y ' B p ",
"C C ' D E E E D E D D E D r r r F G D D D D E ' x C ",
"H I ' J J J J J J J J J J r r r r K J J J J J ' I C ",
"L M ' N N N N N N N N N N r r r r r O N N N N ' L L ",
"P P ' Q Q Q Q R r r r r r Q Q Q Q Q Q Q Q Q Q ' S T ",
"U U ' V V V V V R r r r r V V V V V V V V V V ' T U ",
"W X ' Y Y Y Z Y `  .r r r Y Y Z Y Y Y Y Y Y Y ' ..W ",
"X +.' @.@.@.@.#.$.r  .r r @.@.@.@.@.@.@.@.@.@.' X X ",
"%.%.' &.&.&.&.*.r =.-.;.r &.&.&.&.&.&.&.&.&.&.' %.>.",
",.'.' ).).).).!.~.-.).).{.).).).).).).).).).).' ].%.",
"'.'.^././././././././././././././././././././.' '.'.",
"(._.:.<.[.[.}.[.}.[.[.[.[.[.[.}.[.[.[.[.[.[.|.:._.1.",
"(.2.3.} 4.5.5.5.5.5.5.5.5.5.5.5.5.5.5.5.5.4.6.3.(.(.",
"7.8.9.0.a.b.c.c.c.c.c.c.c.c.c.c.c.c.c.c.b.} d.7.7.e.",
"f.g.f.h.i.j.k.' ' ' ' ' ' ' ' ' ' ' ' k.j.l.m.f.n.g.",
"h.h.o.h.h.p.q.r.r.r.r.r.r.r.r.r.r.r.r.q.p.o.h.h.h.h.",
"s.t.u.s.o.v.v.u.s.v.v.v.v.v.h.w.t.u.v.u.t.x.s.v.u.v.",
"' ' ' ' ' ' ' ' ' ' ' ' ' ' y.' ' ' ' ' ' ' ' y.' ' ",
"z.z.$ + + @ . $ @ # # + $ $ @ $ + + . $ # . z.$ . z.",
"      *   A.    *     .   * *     *   .           . ",
"& B.* & > , ' ' ' ' ' ' ' ' ' ' ' ' ' ' , ) C.; C.; ",
"; ! ! ] ^ D.v.v.v.v.v.v.v.v.v.v.v.v.v.v.D._ : E.! ! ",
"! ~ [ } F.v.v.v.v.v.v.v.v.v.v.v.v.v.v.v.v.F.} 4 ~ < ",
"7 7 8 D.v.v.v.v.v.v.v.v.v.v.v.v.v.v.v.v.v.v.D.c 7 < ",
"h G.' v.v.v.v.v.v.v.v.v.v.v.v.v.v.v.v.v.v.v.v.' 7 g ",
"H.h ' v.v.v.v.v.v.v.v.v.v.I.v.v.J.K.L.v.v.v.v.' h H.",
"i i ' v.v.v.v.v.v.v.v.v.v.M.N.O.P.M.Q.v.v.v.v.' i i ",
"x p ' v.v.v.v.v.v.v.v.v.v.M.M.R.M.S.T.v.v.v.v.' w x ",
"C C ' v.v.v.v.v.v.v.v.v.v.M.M.M.R.T.v.v.v.v.v.' C x ",
"U.I ' v.v.v.v.v.v.v.v.v.v.M.M.M.M.I.v.v.v.v.v.' H V.",
"M L ' v.v.v.v.v.v.v.v.v.v.M.M.M.M.M.W.v.v.v.v.' L V.",
"P M ' v.v.v.v.X.M.M.M.M.M.v.v.v.v.v.v.v.v.v.v.' T U ",
"S U ' v.v.v.v.v.X.M.M.M.M.v.v.v.v.v.v.v.v.v.v.' U U ",
"W Y.' v.v.v.v.v.J.R.M.M.M.v.v.v.v.v.v.v.v.v.v.' W Y.",
"X X ' v.v.v.v.J.Z.M.R.M.M.v.v.v.v.v.v.v.v.v.v.' %.`.",
"].].' v.v.v.v.Q.M.S.T.N.M.v.v.v.v.v.v.v.v.v.v.' `.`.",
"'.,.' v.v.v.v. +.+++v.v.I.v.v.v.v.v.v.v.v.v.v.' %.].",
"'.'.^.v.v.v.v.v.v.v.v.v.v.v.v.v.v.v.v.v.v.v.v.' '.'.",
"@+_.:.D.v.v.v.v.v.v.v.v.v.v.v.v.v.v.v.v.v.v.D.:._.1.",
"(.(.3.} F.v.v.v.v.v.v.v.v.v.v.v.v.v.v.v.v.F.6.3.(.e.",
"f.f.f.0.a.D.v.v.v.v.v.v.v.v.v.v.v.v.v.v.D.} d.7.7.e.",
"h.g.#+g.i.j.k.' ' ' ' ' ' ' ' ' ' ' ' k.j.l.h.f.h.g.",
"h.w.h.h.u.p.q.r.r.r.r.r.r.r.r.r.r.r.r.q.p.h.u.s.h.h.",
"v.v.t.v.v.u.u.v.v.s.t.s.v.v.v.v.v.v.t.v.v.t.v.o.v.t.",
"' ' ' ' ' ' ' ' ' ' ' ' ' ' ' ' ' ' ' ' ' ' ' ' ' ' "};
