/* XPM */
static char * rolldownA_xpm[] = {
"26 54 197 2",
"  	c #845B8B",
". 	c #845C8B",
"+ 	c #845C8C",
"@ 	c #855B8B",
"# 	c #855B8C",
"$ 	c #855C8B",
"% 	c #835B8B",
"& 	c #835B8A",
"* 	c #845B8A",
"= 	c #835C8B",
"- 	c #845C8A",
"; 	c #835A8A",
"> 	c #7A5382",
", 	c #643C6E",
"' 	c #5C3566",
") 	c #633D6D",
"! 	c #7A5381",
"~ 	c #835A89",
"{ 	c #825A89",
"] 	c #795381",
"^ 	c #5C3666",
"/ 	c #794D83",
"( 	c #94639C",
"_ 	c #9A6AA3",
": 	c #92629B",
"< 	c #744A7E",
"[ 	c #825A88",
"} 	c #643C6D",
"| 	c #7C5084",
"1 	c #9E6DA6",
"2 	c #74497D",
"3 	c #825988",
"4 	c #815A88",
"5 	c #815988",
"6 	c #98679F",
"7 	c #9D6CA5",
"8 	c #906299",
"9 	c #805888",
"0 	c #60396A",
"a 	c #9C6BA4",
"b 	c #9969A2",
"c 	c #815987",
"d 	c #805987",
"e 	c #805886",
"f 	c #61386B",
"g 	c #9B6AA3",
"h 	c #9A68A2",
"i 	c #805986",
"j 	c #7F5886",
"k 	c #61386A",
"l 	c #9A6AA1",
"m 	c #9968A0",
"n 	c #7F5786",
"o 	c #7F5785",
"p 	c #9969A0",
"q 	c #7F5885",
"r 	c #7E5785",
"s 	c #98689F",
"t 	c #97669E",
"u 	c #7E5784",
"v 	c #7E5684",
"w 	c #97689E",
"x 	c #A983AF",
"y 	c #E5DCE7",
"z 	c #E6DDE8",
"A 	c #96669D",
"B 	c #7D5684",
"C 	c #7D5683",
"D 	c #95679D",
"E 	c #C5ADC9",
"F 	c #FAFAFA",
"G 	c #94659C",
"H 	c #7C5683",
"I 	c #60386A",
"J 	c #94669C",
"K 	c #D5C5D8",
"L 	c #D8C8DB",
"M 	c #94679C",
"N 	c #93649B",
"O 	c #7C5682",
"P 	c #7C5583",
"Q 	c #7C5582",
"R 	c #93659B",
"S 	c #966A9E",
"T 	c #E3D9E5",
"U 	c #976A9F",
"V 	c #92639A",
"W 	c #7B5582",
"X 	c #7B5481",
"Y 	c #92659A",
"Z 	c #9C73A3",
"` 	c #EEE9EF",
" .	c #F0EBF1",
"..	c #9C74A3",
"+.	c #916399",
"@.	c #7B5482",
"#.	c #7B5480",
"$.	c #916498",
"%.	c #A480AA",
"&.	c #906297",
"*.	c #7A5480",
"=.	c #906397",
"-.	c #8F6196",
";.	c #795380",
">.	c #79537F",
",.	c #8F6296",
"'.	c #8E6095",
").	c #7A5380",
"!.	c #5F3869",
"~.	c #8E6295",
"{.	c #8D6193",
"].	c #78527E",
"^.	c #78537E",
"/.	c #5D3567",
"(.	c #895E91",
"_.	c #8D6194",
":.	c #855A8C",
"<.	c #78527F",
"[.	c #77537E",
"}.	c #603A6A",
"|.	c #764C7E",
"1.	c #8C6093",
"2.	c #71487A",
"3.	c #77527D",
"4.	c #78517D",
"5.	c #714B78",
"6.	c #5D3767",
"7.	c #885C8F",
"8.	c #8B5F92",
"9.	c #875C8F",
"0.	c #73497B",
"a.	c #704C78",
"b.	c #77527E",
"c.	c #77517D",
"d.	c #76517D",
"e.	c #704B76",
"f.	c #5F3A69",
"g.	c #5F3769",
"h.	c #77527C",
"i.	c #76517C",
"j.	c #76507C",
"k.	c #734E79",
"l.	c #724E78",
"m.	c #714D77",
"n.	c #75507C",
"o.	c #75517B",
"p.	c #76507B",
"q.	c #75507B",
"r.	c #76517B",
"s.	c #75517C",
"t.	c #5E3768",
"u.	c #855C8C",
"v.	c #835C8A",
"w.	c #835A8B",
"x.	c #7B5281",
"y.	c #845A8A",
"z.	c #7A5281",
"A.	c #674170",
"B.	c #734F7A",
"C.	c #714B77",
"D.	c #653F6E",
"E.	c #684270",
"F.	c #653E6D",
"G.	c #734D79",
"H.	c #704B77",
"I.	c #815888",
"J.	c #5D3768",
"K.	c #744F7B",
"L.	c #805887",
"M.	c #754F7B",
"N.	c #7D5685",
"O.	c #8D6F92",
"P.	c #DED7E0",
"Q.	c #DFD8E1",
"R.	c #7D5784",
"S.	c #B4A1B8",
"T.	c #B4A0B7",
"U.	c #CABDCC",
"V.	c #CDC1CF",
"W.	c #79557F",
"X.	c #DCD4DD",
"Y.	c #DFD7E0",
"Z.	c #7A5680",
"`.	c #7B5581",
" +	c #816087",
".+	c #EBE6EB",
"++	c #EDE9EE",
"@+	c #826187",
"#+	c #7A5481",
"$+	c #5E3667",
"%+	c #744F7A",
"&+	c #79527E",
"*+	c #714C77",
"=+	c #6A4471",
"-+	c #67416F",
";+	c #734E7A",
">+	c #77517C",
"  . + @       @ . # + $ + . @     @   .   #     . . ",
"%       & * % &       =     & * * &   * - * %       ",
"; & ; > , ' ' ' ' ' ' ' ' ' ' ' ' ' ' ' ' ) ! & ; & ",
"~ { ] ^ / ( _ _ _ _ _ _ _ _ _ _ _ _ _ _ : < ' ! ~ ~ ",
"[ [ } | 1 1 1 1 1 1 1 1 1 1 1 1 1 1 1 1 1 1 2 ) 3 3 ",
"4 5 ' 6 7 7 7 7 7 7 7 7 7 7 7 7 7 7 7 7 7 7 8 ' 4 4 ",
"9 5 0 a a a a a a a a a a a a a a a a a a a b ' c d ",
"d e f g g g g g g g g g g g g g g g g g g g h ' i e ",
"e j k l l l l l l l l l l l l l l l l l l l m ' j e ",
"n o k p p p p p p p p p p p p p p p p p p p 6 ' q j ",
"r r k s s s s s s s s s s s s s s s s s s s t ' o r ",
"u v k w w w w w x y z z z z z z y x w w w w A ' v r ",
"B C k D D D D D D E F F F F F F E D D D D D G ' B B ",
"H H I J J J J J J J K F F F F L M J J J J J N ' O P ",
"Q Q I R R R R R R R S T F F y U R R R R R R V ' P Q ",
"W X I Y Y Y Y Y Y Y Y Z `  ...Y Y Y Y Y Y Y +.' @.W ",
"X #.I $.$.$.$.$.$.$.$.$.%.%.$.$.$.$.$.$.$.$.&.' X X ",
"*.*.I =.=.=.=.=.=.=.=.=.=.=.=.=.=.=.=.=.=.=.-.' *.! ",
";.>.I ,.,.,.,.,.,.,.,.,.,.,.,.,.,.,.,.,.,.,.'.' ).*.",
">.>.!.~.~.~.~.~.~.~.~.~.~.~.~.~.~.~.~.~.~.~.{.' >.>.",
"].^./.(._._._._._._._._._._._._._._._._._._.:.' ^.<.",
"].[.}.|.1.1.1.1.1.1.1.1.1.1.1.1.1.1.1.1.1.1.2.}.].].",
"3.4.5.6.|.7.8.8.8.8.8.8.8.8.8.8.8.8.8.8.9.0.^ a.3.b.",
"c.d.c.e.f./.g.g.g.g.g.g.g.g.g.g.g.g.g.!.' }.a.c.h.d.",
"i.i.j.i.i.k.l.m.m.m.m.m.m.m.m.m.m.m.m.l.k.j.i.i.i.i.",
"n.o.p.n.j.q.q.p.n.q.q.q.q.q.i.r.o.p.q.p.o.s.n.q.p.q.",
"' ' ' ' ' ' ' ' ' ' ' ' ' ' t.' ' ' ' ' ' ' ' t.' ' ",
"u.u.$ + + @ . $ @ # # + $ $ @ $ + + . $ # . u.$ . u.",
"      *   v.    *     .   * *     *   .           . ",
"& w.* > , ' ' ' ' ' ' ' ' ' ' ' ' ' ' ' ' ) x.; y.; ",
"; ~ z.^ A.5.B.B.B.B.B.B.B.B.B.B.B.B.B.B.C.D.' z.~ ~ ",
"~ { } E.q.q.q.q.q.q.q.q.q.q.q.q.q.q.q.q.q.q.F.) { [ ",
"5 5 ' G.q.q.q.q.q.q.q.q.q.q.q.q.q.q.q.q.q.q.H.' 5 [ ",
"d I.J.q.q.q.q.q.q.q.q.q.q.q.q.q.q.q.q.q.q.q.K.' 5 c ",
"L.d t.q.q.q.q.q.q.q.q.q.q.q.q.q.q.q.q.q.q.q.M.' d L.",
"e e t.q.q.q.q.q.q.q.q.q.q.q.q.q.q.q.q.q.q.q.M.' e e ",
"o j t.q.q.q.q.q.q.q.q.q.q.q.q.q.q.q.q.q.q.q.M.' n o ",
"r r t.q.q.q.q.q.q.q.q.q.q.q.q.q.q.q.q.q.q.q.M.' r o ",
"N.v t.q.q.q.q.q.O.P.Q.Q.Q.Q.Q.Q.P.O.q.q.q.q.M.' u R.",
"C B t.q.q.q.q.q.q.S.F F F F F F T.q.q.q.q.q.M.' B R.",
"H C t.q.q.q.q.q.q.q.U.F F F F V.i.q.q.q.q.q.M.' P Q ",
"O Q t.q.q.q.q.q.q.q.W.X.F F Y.Z.q.q.q.q.q.q.M.' Q Q ",
"W `.t.q.q.q.q.q.q.q.q. +.+++@+q.q.q.q.q.q.q.M.' W `.",
"X X t.q.q.q.q.q.q.q.q.q.O.O.q.q.q.q.q.q.q.q.M.' *.#+",
").).t.q.q.q.q.q.q.q.q.q.q.q.q.q.q.q.q.q.q.q.M.' #+#+",
">.;.t.q.q.q.q.q.q.q.q.q.q.q.q.q.q.q.q.q.q.q.M.' *.).",
">.>.$+q.q.q.q.q.q.q.q.q.q.q.q.q.q.q.q.q.q.q.%+' >.>.",
"&+^.' k.q.q.q.q.q.q.q.q.q.q.q.q.q.q.q.q.q.q.*+' ^.<.",
"].].}.=+q.q.q.q.q.q.q.q.q.q.q.q.q.q.q.q.q.q.-+}.].b.",
"c.c.C.^ =+;+q.q.q.q.q.q.q.q.q.q.q.q.q.q.k.E.^ a.3.b.",
"i.d.>+H.f.' $+$+$+$+$+$+$+$+$+$+$+$+$+J.' }.H.c.i.d.",
"i.r.i.i.p.k.l.m.m.m.m.m.m.m.m.m.m.m.m.l.k.i.p.n.i.i.",
"q.q.o.q.q.p.p.q.q.n.o.n.q.q.q.q.q.q.o.q.q.o.q.j.q.o.",
"' ' ' ' ' ' ' ' ' ' ' ' ' ' ' ' ' ' ' ' ' ' ' ' ' ' "};
