/* XPM */
static char * rolldownI_xpm[] = {
"26 54 202 2",
"  	c #845B8B",
". 	c #845C8B",
"+ 	c #845C8C",
"@ 	c #855B8B",
"# 	c #855B8C",
"$ 	c #855C8B",
"% 	c #835B8B",
"& 	c #835B8A",
"* 	c #845B8A",
"= 	c #835C8B",
"- 	c #845C8A",
"; 	c #835A8A",
"> 	c #694272",
", 	c #5E3769",
"' 	c #5C3566",
") 	c #5D3768",
"! 	c #6A4371",
"~ 	c #835A89",
"{ 	c #825A89",
"] 	c #5C3666",
"^ 	c #6C4275",
"/ 	c #7B4D83",
"( 	c #7E5186",
"_ 	c #7A4C82",
": 	c #694073",
"< 	c #825A88",
"[ 	c #5E3768",
"} 	c #6D4376",
"| 	c #805187",
"1 	c #693F72",
"2 	c #825988",
"3 	c #815A88",
"4 	c #815988",
"5 	c #5C3466",
"6 	c #7C4E82",
"7 	c #7E5185",
"8 	c #774C7F",
"9 	c #805888",
"0 	c #7D5084",
"a 	c #7C4F83",
"b 	c #815987",
"c 	c #805987",
"d 	c #805886",
"e 	c #5F3768",
"f 	c #7C5083",
"g 	c #7C4F82",
"h 	c #805986",
"i 	c #7F5886",
"j 	c #7B4F82",
"k 	c #7B4E81",
"l 	c #7F5786",
"m 	c #7F5785",
"n 	c #794F80",
"o 	c #794E7F",
"p 	c #7F5885",
"q 	c #7E5785",
"r 	c #784F7F",
"s 	c #784E7F",
"t 	c #7E5784",
"u 	c #7E5684",
"v 	c #774E7E",
"w 	c #88648E",
"x 	c #C0AEC3",
"y 	c #774D7E",
"z 	c #7D5684",
"A 	c #7D5683",
"B 	c #764E7D",
"C 	c #A388A7",
"D 	c #D2C6D4",
"E 	c #A287A7",
"F 	c #764D7D",
"G 	c #7C5683",
"H 	c #5E3668",
"I 	c #744D7B",
"J 	c #B09BB4",
"K 	c #B39EB7",
"L 	c #754E7C",
"M 	c #744C7B",
"N 	c #7C5682",
"O 	c #7C5583",
"P 	c #7C5582",
"Q 	c #734D7A",
"R 	c #76517D",
"S 	c #BCABBF",
"T 	c #D1C6D3",
"U 	c #BFAEC2",
"V 	c #734C7A",
"W 	c #7B5582",
"X 	c #7B5481",
"Y 	c #724C79",
"Z 	c #7B5781",
"` 	c #C6B8C9",
" .	c #C8BACB",
"..	c #7C5982",
"+.	c #724B79",
"@.	c #7B5482",
"#.	c #7B5480",
"$.	c #5E3667",
"%.	c #704C77",
"&.	c #826288",
"*.	c #704B77",
"=.	c #7A5480",
"-.	c #6F4B76",
";.	c #6F4A76",
">.	c #7A5381",
",.	c #795380",
"'.	c #79537F",
").	c #6E4B75",
"!.	c #6E4A75",
"~.	c #7A5380",
"{.	c #5D3667",
"].	c #6D4B74",
"^.	c #6D4B73",
"/.	c #78527E",
"(.	c #78537E",
"_.	c #694971",
":.	c #6B4A72",
"<.	c #694770",
"[.	c #78527F",
"}.	c #77537E",
"|.	c #5C3667",
"1.	c #64406C",
"2.	c #6A4A71",
"3.	c #633F6B",
"4.	c #77527D",
"5.	c #78517D",
"6.	c #663F6D",
"7.	c #63406B",
"8.	c #68486F",
"9.	c #694970",
"0.	c #68476F",
"a.	c #623F6B",
"b.	c #643F6E",
"c.	c #77527E",
"d.	c #77517D",
"e.	c #663F6C",
"f.	c #5D3666",
"g.	c #5D3767",
"h.	c #77527C",
"i.	c #76517C",
"j.	c #76507C",
"k.	c #734E79",
"l.	c #724E78",
"m.	c #714D77",
"n.	c #75507C",
"o.	c #75517B",
"p.	c #76507B",
"q.	c #75507B",
"r.	c #76517B",
"s.	c #75517C",
"t.	c #855C8C",
"u.	c #835C8A",
"v.	c #835A8B",
"w.	c #7A5382",
"x.	c #643C6E",
"y.	c #633D6D",
"z.	c #7B5281",
"A.	c #845A8A",
"B.	c #7A5281",
"C.	c #674170",
"D.	c #714B78",
"E.	c #734F7A",
"F.	c #714B77",
"G.	c #653F6E",
"H.	c #643C6D",
"I.	c #684270",
"J.	c #653E6D",
"K.	c #734D79",
"L.	c #815888",
"M.	c #744F7B",
"N.	c #805887",
"O.	c #754F7B",
"P.	c #7D5685",
"Q.	c #8D6F92",
"R.	c #DED7E0",
"S.	c #DFD8E1",
"T.	c #7D5784",
"U.	c #B4A1B8",
"V.	c #FAFAFA",
"W.	c #B4A0B7",
"X.	c #CABDCC",
"Y.	c #CDC1CF",
"Z.	c #79557F",
"`.	c #DCD4DD",
" +	c #DFD7E0",
".+	c #7A5680",
"++	c #7B5581",
"@+	c #816087",
"#+	c #EBE6EB",
"$+	c #EDE9EE",
"%+	c #826187",
"&+	c #7A5481",
"*+	c #744F7A",
"=+	c #79527E",
"-+	c #714C77",
";+	c #603A6A",
">+	c #6A4471",
",+	c #67416F",
"'+	c #734E7A",
")+	c #704C78",
"!+	c #77517C",
"~+	c #5F3A69",
"  . + @       @ . # + $ + . @     @   .   #     . . ",
"%       & * % &       =     & * * &   * - * %       ",
"; & ; > , ' ' ' ' ' ' ' ' ' ' ' ' ' ' ' ' ) ! & ; & ",
"~ { > ] ^ / ( ( ( ( ( ( ( ( ( ( ( ( ( ( _ : ' ! ~ ~ ",
"< < [ } | | | | | | | | | | | | | | | | | | 1 ) 2 2 ",
"3 4 5 6 7 7 7 7 7 7 7 7 7 7 7 7 7 7 7 7 7 7 8 ' 3 3 ",
"9 4 [ 0 0 0 0 0 0 0 0 0 0 0 0 0 0 0 0 0 0 0 a ' b c ",
"c d e f f f f f f f f f f f f f f f f f f f g ' h d ",
"d i e j j j j j j j j j j j j j j j j j j j k ' i d ",
"l m e n n n n n n n n n n n n n n n n n n n o ' p i ",
"q q [ r r r r r r r r r r r r r r r r r r r s ' m q ",
"t u [ v v v v v w x x x x x x x x w v v v v y ' u q ",
"z A [ B B B B B B C D D D D D D E B B B B B F ' z z ",
"G G H I I I I I I I J D D D D K L I I I I I M ' N O ",
"P P H Q Q Q Q Q Q Q R S T T U R Q Q Q Q Q Q V ' O P ",
"W X H Y Y Y Y Y Y Y Y Z `  ...Y Y Y Y Y Y Y +.' @.W ",
"X #.$.%.%.%.%.%.%.%.%.%.&.&.%.%.%.%.%.%.%.%.*.' X X ",
"=.=.$.-.-.-.-.-.-.-.-.-.-.-.-.-.-.-.-.-.-.-.;.' =.>.",
",.'.$.).).).).).).).).).).).).).).).).).).).!.' ~.=.",
"'.'.{.].].].].].].].].].].].].].].].].].].].^.' '.'.",
"/.(.5 _.:.:.:.:.:.:.:.:.:.:.:.:.:.:.:.:.:.:.<.' (.[.",
"/.}.|.1.2.2.2.2.2.2.2.2.2.2.2.2.2.2.2.2.2.2.3.|././.",
"4.5.6.] 7.8.9.9.9.9.9.9.9.9.9.9.9.9.9.9.0.a.] b.4.c.",
"d.R d.e.|.' f.f.f.f.f.f.f.f.f.f.f.f.f.g.' {.b.d.h.R ",
"i.i.j.i.i.k.l.m.m.m.m.m.m.m.m.m.m.m.m.l.k.j.i.i.i.i.",
"n.o.p.n.j.q.q.p.n.q.q.q.q.q.i.r.o.p.q.p.o.s.n.q.p.q.",
"' ' ' ' ' ' ' ' ' ' ' ' ' ' [ ' ' ' ' ' ' ' ' [ ' ' ",
"t.t.$ + + @ . $ @ # # + $ $ @ $ + + . $ # . t.$ . t.",
"      *   u.    *     .   * *     *   .           . ",
"& v.* w.x.' ' ' ' ' ' ' ' ' ' ' ' ' ' ' ' y.z.; A.; ",
"; ~ B.] C.D.E.E.E.E.E.E.E.E.E.E.E.E.E.E.F.G.' B.~ ~ ",
"~ { H.I.q.q.q.q.q.q.q.q.q.q.q.q.q.q.q.q.q.q.J.y.{ < ",
"4 4 ' K.q.q.q.q.q.q.q.q.q.q.q.q.q.q.q.q.q.q.*.' 4 < ",
"c L.) q.q.q.q.q.q.q.q.q.q.q.q.q.q.q.q.q.q.q.M.' 4 b ",
"N.c [ q.q.q.q.q.q.q.q.q.q.q.q.q.q.q.q.q.q.q.O.' c N.",
"d d [ q.q.q.q.q.q.q.q.q.q.q.q.q.q.q.q.q.q.q.O.' d d ",
"m i [ q.q.q.q.q.q.q.q.q.q.q.q.q.q.q.q.q.q.q.O.' l m ",
"q q [ q.q.q.q.q.q.q.q.q.q.q.q.q.q.q.q.q.q.q.O.' q m ",
"P.u [ q.q.q.q.q.Q.R.S.S.S.S.S.S.R.Q.q.q.q.q.O.' t T.",
"A z [ q.q.q.q.q.q.U.V.V.V.V.V.V.W.q.q.q.q.q.O.' z T.",
"G A [ q.q.q.q.q.q.q.X.V.V.V.V.Y.i.q.q.q.q.q.O.' O P ",
"N P [ q.q.q.q.q.q.q.Z.`.V.V. +.+q.q.q.q.q.q.O.' P P ",
"W ++[ q.q.q.q.q.q.q.q.@+#+$+%+q.q.q.q.q.q.q.O.' W ++",
"X X [ q.q.q.q.q.q.q.q.q.Q.Q.q.q.q.q.q.q.q.q.O.' =.&+",
"~.~.[ q.q.q.q.q.q.q.q.q.q.q.q.q.q.q.q.q.q.q.O.' &+&+",
"'.,.[ q.q.q.q.q.q.q.q.q.q.q.q.q.q.q.q.q.q.q.O.' =.~.",
"'.'.$.q.q.q.q.q.q.q.q.q.q.q.q.q.q.q.q.q.q.q.*+' '.'.",
"=+(.' k.q.q.q.q.q.q.q.q.q.q.q.q.q.q.q.q.q.q.-+' (.[.",
"/./.;+>+q.q.q.q.q.q.q.q.q.q.q.q.q.q.q.q.q.q.,+;+/.c.",
"d.d.F.] >+'+q.q.q.q.q.q.q.q.q.q.q.q.q.q.k.I.] )+4.c.",
"i.R !+*.~+' $.$.$.$.$.$.$.$.$.$.$.$.$.) ' ;+*.d.i.R ",
"i.r.i.i.p.k.l.m.m.m.m.m.m.m.m.m.m.m.m.l.k.i.p.n.i.i.",
"q.q.o.q.q.p.p.q.q.n.o.n.q.q.q.q.q.q.o.q.q.o.q.j.q.o.",
"' ' ' ' ' ' ' ' ' ' ' ' ' ' ' ' ' ' ' ' ' ' ' ' ' ' "};
