/* XPM */
static char * rollupA_xpm[] = {
"26 54 199 2",
"  	c #845B8B",
". 	c #845C8B",
"+ 	c #845C8C",
"@ 	c #855B8B",
"# 	c #855B8C",
"$ 	c #855C8B",
"% 	c #835B8B",
"& 	c #835B8A",
"* 	c #845B8A",
"= 	c #835C8B",
"- 	c #845C8A",
"; 	c #835A8A",
"> 	c #734C7B",
", 	c #5E3769",
"' 	c #5C3566",
") 	c #5D3768",
"! 	c #744C7B",
"~ 	c #835A89",
"{ 	c #825A89",
"] 	c #724C7B",
"^ 	c #5C3666",
"/ 	c #794D83",
"( 	c #94639C",
"_ 	c #9A6AA3",
": 	c #92629B",
"< 	c #744A7E",
"[ 	c #734C7A",
"} 	c #825A88",
"| 	c #5E3768",
"1 	c #7C5084",
"2 	c #9E6DA6",
"3 	c #74497D",
"4 	c #825988",
"5 	c #815A88",
"6 	c #815988",
"7 	c #98679F",
"8 	c #9D6CA5",
"9 	c #906299",
"0 	c #805888",
"a 	c #60396A",
"b 	c #9C6BA4",
"c 	c #9969A2",
"d 	c #815987",
"e 	c #805987",
"f 	c #805886",
"g 	c #61386B",
"h 	c #9B6AA3",
"i 	c #9A68A2",
"j 	c #805986",
"k 	c #7F5886",
"l 	c #61386A",
"m 	c #9A6AA1",
"n 	c #9968A0",
"o 	c #7F5786",
"p 	c #7F5785",
"q 	c #9969A0",
"r 	c #AB84B1",
"s 	c #7F5885",
"t 	c #7E5785",
"u 	c #98689F",
"v 	c #A176A8",
"w 	c #EFE9F0",
"x 	c #F0ECF1",
"y 	c #97669E",
"z 	c #7E5784",
"A 	c #7E5684",
"B 	c #97689E",
"C 	c #9A6DA1",
"D 	c #E4D9E5",
"E 	c #FAFAFA",
"F 	c #E6DCE7",
"G 	c #9B6DA1",
"H 	c #96669D",
"I 	c #7D5684",
"J 	c #7D5683",
"K 	c #95679D",
"L 	c #D6C5D9",
"M 	c #D8C9DB",
"N 	c #95689D",
"O 	c #94659C",
"P 	c #7C5683",
"Q 	c #60386A",
"R 	c #94669C",
"S 	c #C5ADC9",
"T 	c #C4ACC9",
"U 	c #93649B",
"V 	c #7C5682",
"W 	c #7C5583",
"X 	c #7C5582",
"Y 	c #93659B",
"Z 	c #A680AC",
"` 	c #E5DBE6",
" .	c #E5DCE7",
"..	c #92639A",
"+.	c #7B5582",
"@.	c #7B5481",
"#.	c #92659A",
"$.	c #916399",
"%.	c #7B5482",
"&.	c #7B5480",
"*.	c #916498",
"=.	c #906297",
"-.	c #7A5480",
";.	c #906397",
">.	c #8F6196",
",.	c #7A5381",
"'.	c #795380",
").	c #79537F",
"!.	c #8F6296",
"~.	c #8E6095",
"{.	c #7A5380",
"].	c #5F3869",
"^.	c #8E6295",
"/.	c #8D6193",
"(.	c #78527E",
"_.	c #78537E",
":.	c #5D3567",
"<.	c #895E91",
"[.	c #8D6194",
"}.	c #855A8C",
"|.	c #78527F",
"1.	c #77537E",
"2.	c #5C3667",
"3.	c #764C7E",
"4.	c #8C6093",
"5.	c #71487A",
"6.	c #77527D",
"7.	c #78517D",
"8.	c #6C4673",
"9.	c #5D3767",
"0.	c #885C8F",
"a.	c #8B5F92",
"b.	c #875C8F",
"c.	c #73497B",
"d.	c #6B4674",
"e.	c #77527E",
"f.	c #77517D",
"g.	c #76517D",
"h.	c #6C4672",
"i.	c #5F3769",
"j.	c #5D3667",
"k.	c #77527C",
"l.	c #76517C",
"m.	c #76507C",
"n.	c #734E79",
"o.	c #724E78",
"p.	c #714D77",
"q.	c #75507C",
"r.	c #75517B",
"s.	c #76507B",
"t.	c #75507B",
"u.	c #76517B",
"v.	c #75517C",
"w.	c #855C8C",
"x.	c #835C8A",
"y.	c #835A8B",
"z.	c #845A8A",
"A.	c #734B7B",
"B.	c #674170",
"C.	c #714B78",
"D.	c #734F7A",
"E.	c #714B77",
"F.	c #653F6E",
"G.	c #684270",
"H.	c #653E6D",
"I.	c #734D79",
"J.	c #704B77",
"K.	c #815888",
"L.	c #744F7B",
"M.	c #805887",
"N.	c #754F7B",
"O.	c #8D6F92",
"P.	c #816087",
"Q.	c #EBE6EB",
"R.	c #EDE9EE",
"S.	c #826187",
"T.	c #7D5685",
"U.	c #79557F",
"V.	c #DCD4DD",
"W.	c #DFD7E0",
"X.	c #7A5680",
"Y.	c #7D5784",
"Z.	c #CABDCC",
"`.	c #CDC1CF",
" +	c #B4A1B8",
".+	c #B4A0B7",
"++	c #DED7E0",
"@+	c #DFD8E1",
"#+	c #7B5581",
"$+	c #7A5481",
"%+	c #5E3667",
"&+	c #744F7A",
"*+	c #79527E",
"=+	c #714C77",
"-+	c #6A4471",
";+	c #67416F",
">+	c #734E7A",
",+	c #77517C",
"'+	c #6B4673",
"  . + @       @ . # + $ + . @     @   .   #     . . ",
"%       & * % &       =     & * * &   * - * %       ",
"; & ; > , ' ' ' ' ' ' ' ' ' ' ' ' ' ' ' ' ) ! & ; & ",
"~ { ] ^ / ( _ _ _ _ _ _ _ _ _ _ _ _ _ _ : < ' [ ~ ~ ",
"} } | 1 2 2 2 2 2 2 2 2 2 2 2 2 2 2 2 2 2 2 3 ) 4 4 ",
"5 6 ' 7 8 8 8 8 8 8 8 8 8 8 8 8 8 8 8 8 8 8 9 ' 5 5 ",
"0 6 a b b b b b b b b b b b b b b b b b b b c ' d e ",
"e f g h h h h h h h h h h h h h h h h h h h i ' j f ",
"f k l m m m m m m m m m m m m m m m m m m m n ' k f ",
"o p l q q q q q q q q q r r q q q q q q q q 7 ' s k ",
"t t l u u u u u u u u v w x v u u u u u u u y ' p t ",
"z A l B B B B B B B C D E E F G B B B B B B H ' A t ",
"I J l K K K K K K K L E E E E M N K K K K K O ' I I ",
"P P Q R R R R R R S E E E E E E T R R R R R U ' V W ",
"X X Q Y Y Y Y Y Z `  . . . . . .` Z Y Y Y Y ..' W X ",
"+.@.Q #.#.#.#.#.#.#.#.#.#.#.#.#.#.#.#.#.#.#.$.' %.+.",
"@.&.Q *.*.*.*.*.*.*.*.*.*.*.*.*.*.*.*.*.*.*.=.' @.@.",
"-.-.Q ;.;.;.;.;.;.;.;.;.;.;.;.;.;.;.;.;.;.;.>.' -.,.",
"'.).Q !.!.!.!.!.!.!.!.!.!.!.!.!.!.!.!.!.!.!.~.' {.-.",
").).].^.^.^.^.^.^.^.^.^.^.^.^.^.^.^.^.^.^.^./.' ).).",
"(._.:.<.[.[.[.[.[.[.[.[.[.[.[.[.[.[.[.[.[.[.}.' _.|.",
"(.1.2.3.4.4.4.4.4.4.4.4.4.4.4.4.4.4.4.4.4.4.5.2.(.(.",
"6.7.8.9.3.0.a.a.a.a.a.a.a.a.a.a.a.a.a.a.b.c.^ d.6.e.",
"f.g.f.h.2.:.i.i.i.i.i.i.i.i.i.i.i.i.i.].' j.d.f.k.g.",
"l.l.m.l.l.n.o.p.p.p.p.p.p.p.p.p.p.p.p.o.n.m.l.l.l.l.",
"q.r.s.q.m.t.t.s.q.t.t.t.t.t.l.u.r.s.t.s.r.v.q.t.s.t.",
"' ' ' ' ' ' ' ' ' ' ' ' ' ' | ' ' ' ' ' ' ' ' | ' ' ",
"w.w.$ + + @ . $ @ # # + $ $ @ $ + + . $ # . w.$ . w.",
"      *   x.    *     .   * *     *   .           . ",
"& y.* > , ' ' ' ' ' ' ' ' ' ' ' ' ' ' ' ' ) ! ; z.; ",
"; ~ A.^ B.C.D.D.D.D.D.D.D.D.D.D.D.D.D.D.E.F.' > ~ ~ ",
"~ { | G.t.t.t.t.t.t.t.t.t.t.t.t.t.t.t.t.t.t.H.) { } ",
"6 6 ' I.t.t.t.t.t.t.t.t.t.t.t.t.t.t.t.t.t.t.J.' 6 } ",
"e K.) t.t.t.t.t.t.t.t.t.t.t.t.t.t.t.t.t.t.t.L.' 6 d ",
"M.e | t.t.t.t.t.t.t.t.t.t.t.t.t.t.t.t.t.t.t.N.' e M.",
"f f | t.t.t.t.t.t.t.t.t.t.t.t.t.t.t.t.t.t.t.N.' f f ",
"p k | t.t.t.t.t.t.t.t.t.O.O.t.t.t.t.t.t.t.t.N.' o p ",
"t t | t.t.t.t.t.t.t.t.P.Q.R.S.t.t.t.t.t.t.t.N.' t p ",
"T.A | t.t.t.t.t.t.t.U.V.E E W.X.t.t.t.t.t.t.N.' z Y.",
"J I | t.t.t.t.t.t.t.Z.E E E E `.l.t.t.t.t.t.N.' I Y.",
"P J | t.t.t.t.t.t. +E E E E E E .+t.t.t.t.t.N.' W X ",
"V X | t.t.t.t.t.O.++@+@+@+@+@+@+++O.t.t.t.t.N.' X X ",
"+.#+| t.t.t.t.t.t.t.t.t.t.t.t.t.t.t.t.t.t.t.N.' +.#+",
"@.@.| t.t.t.t.t.t.t.t.t.t.t.t.t.t.t.t.t.t.t.N.' -.$+",
"{.{.| t.t.t.t.t.t.t.t.t.t.t.t.t.t.t.t.t.t.t.N.' $+$+",
").'.| t.t.t.t.t.t.t.t.t.t.t.t.t.t.t.t.t.t.t.N.' -.{.",
").).%+t.t.t.t.t.t.t.t.t.t.t.t.t.t.t.t.t.t.t.&+' ).).",
"*+_.' n.t.t.t.t.t.t.t.t.t.t.t.t.t.t.t.t.t.t.=+' _.|.",
"(.(.2.-+t.t.t.t.t.t.t.t.t.t.t.t.t.t.t.t.t.t.;+2.(.e.",
"f.f.8.^ -+>+t.t.t.t.t.t.t.t.t.t.t.t.t.t.n.G.^ d.6.e.",
"l.g.,+8.2.' %+%+%+%+%+%+%+%+%+%+%+%+%+) ' j.'+f.l.g.",
"l.u.l.l.s.n.o.p.p.p.p.p.p.p.p.p.p.p.p.o.n.l.s.q.l.l.",
"t.t.r.t.t.s.s.t.t.q.r.q.t.t.t.t.t.t.r.t.t.r.t.m.t.r.",
"' ' ' ' ' ' ' ' ' ' ' ' ' ' ' ' ' ' ' ' ' ' ' ' ' ' "};
