/* XPM */
static char * rollupI_xpm[] = {
"26 54 200 2",
"  	c #845B8B",
". 	c #845C8B",
"+ 	c #845C8C",
"@ 	c #855B8B",
"# 	c #855B8C",
"$ 	c #855C8B",
"% 	c #835B8B",
"& 	c #835B8A",
"* 	c #845B8A",
"= 	c #835C8B",
"- 	c #845C8A",
"; 	c #835A8A",
"> 	c #6D4676",
", 	c #643C6E",
"' 	c #5C3566",
") 	c #633D6D",
"! 	c #6E4775",
"~ 	c #835A89",
"{ 	c #825A89",
"] 	c #5C3666",
"^ 	c #6C4275",
"/ 	c #7B4D83",
"( 	c #7E5186",
"_ 	c #7A4C82",
": 	c #694073",
"< 	c #825A88",
"[ 	c #643C6D",
"} 	c #6D4376",
"| 	c #805187",
"1 	c #693F72",
"2 	c #825988",
"3 	c #815A88",
"4 	c #815988",
"5 	c #7C4E82",
"6 	c #7E5185",
"7 	c #774C7F",
"8 	c #805888",
"9 	c #5E3768",
"0 	c #7D5084",
"a 	c #7C4F83",
"b 	c #815987",
"c 	c #805987",
"d 	c #805886",
"e 	c #5F3768",
"f 	c #7C5083",
"g 	c #7C4F82",
"h 	c #805986",
"i 	c #7F5886",
"j 	c #7B4F82",
"k 	c #7B4E81",
"l 	c #7F5786",
"m 	c #7F5785",
"n 	c #794F80",
"o 	c #89658F",
"p 	c #794E7F",
"q 	c #7F5885",
"r 	c #7E5785",
"s 	c #784F7F",
"t 	c #805A87",
"u 	c #C9B9CB",
"v 	c #CABBCD",
"w 	c #825B88",
"x 	c #784E7F",
"y 	c #7E5784",
"z 	c #7E5684",
"A 	c #774E7E",
"B 	c #7A5281",
"C 	c #BEABC1",
"D 	c #D2C6D5",
"E 	c #C1AFC4",
"F 	c #774D7E",
"G 	c #7D5684",
"H 	c #7D5683",
"I 	c #764E7D",
"J 	c #B19BB5",
"K 	c #D2C6D4",
"L 	c #B49FB8",
"M 	c #774F7E",
"N 	c #764D7D",
"O 	c #7C5683",
"P 	c #5E3668",
"Q 	c #744D7B",
"R 	c #A187A6",
"S 	c #A187A5",
"T 	c #744C7B",
"U 	c #7C5682",
"V 	c #7C5583",
"W 	c #7C5582",
"X 	c #734D7A",
"Y 	c #84638A",
"Z 	c #BEADC1",
"` 	c #BFAEC2",
" .	c #734C7A",
"..	c #7B5582",
"+.	c #7B5481",
"@.	c #724C79",
"#.	c #724B79",
"$.	c #7B5482",
"%.	c #7B5480",
"&.	c #5E3667",
"*.	c #704C77",
"=.	c #704B77",
"-.	c #7A5480",
";.	c #6F4B76",
">.	c #6F4A76",
",.	c #7A5381",
"'.	c #795380",
").	c #79537F",
"!.	c #6E4B75",
"~.	c #6E4A75",
"{.	c #7A5380",
"].	c #5D3667",
"^.	c #6D4B74",
"/.	c #6D4B73",
"(.	c #78527E",
"_.	c #78537E",
":.	c #694971",
"<.	c #6B4A72",
"[.	c #694770",
"}.	c #78527F",
"|.	c #77537E",
"1.	c #603A6A",
"2.	c #64406C",
"3.	c #6A4A71",
"4.	c #633F6B",
"5.	c #77527D",
"6.	c #78517D",
"7.	c #694270",
"8.	c #63406B",
"9.	c #68486F",
"0.	c #694970",
"a.	c #68476F",
"b.	c #623F6B",
"c.	c #674270",
"d.	c #77527E",
"e.	c #77517D",
"f.	c #76517D",
"g.	c #68426F",
"h.	c #5F3A69",
"i.	c #5D3666",
"j.	c #5D3767",
"k.	c #77527C",
"l.	c #76517C",
"m.	c #76507C",
"n.	c #734E79",
"o.	c #724E78",
"p.	c #714D77",
"q.	c #75507C",
"r.	c #75517B",
"s.	c #76507B",
"t.	c #75507B",
"u.	c #76517B",
"v.	c #75517C",
"w.	c #855C8C",
"x.	c #835C8A",
"y.	c #835A8B",
"z.	c #7A5382",
"A.	c #7B5281",
"B.	c #845A8A",
"C.	c #674170",
"D.	c #714B78",
"E.	c #734F7A",
"F.	c #714B77",
"G.	c #653F6E",
"H.	c #684270",
"I.	c #653E6D",
"J.	c #734D79",
"K.	c #815888",
"L.	c #5D3768",
"M.	c #744F7B",
"N.	c #805887",
"O.	c #754F7B",
"P.	c #8D6F92",
"Q.	c #816087",
"R.	c #EBE6EB",
"S.	c #EDE9EE",
"T.	c #826187",
"U.	c #7D5685",
"V.	c #79557F",
"W.	c #DCD4DD",
"X.	c #FAFAFA",
"Y.	c #DFD7E0",
"Z.	c #7A5680",
"`.	c #7D5784",
" +	c #CABDCC",
".+	c #CDC1CF",
"++	c #B4A1B8",
"@+	c #B4A0B7",
"#+	c #DED7E0",
"$+	c #DFD8E1",
"%+	c #7B5581",
"&+	c #7A5481",
"*+	c #744F7A",
"=+	c #79527E",
"-+	c #714C77",
";+	c #6A4471",
">+	c #67416F",
",+	c #734E7A",
"'+	c #704C78",
")+	c #77517C",
"  . + @       @ . # + $ + . @     @   .   #     . . ",
"%       & * % &       =     & * * &   * - * %       ",
"; & ; > , ' ' ' ' ' ' ' ' ' ' ' ' ' ' ' ' ) ! & ; & ",
"~ { > ] ^ / ( ( ( ( ( ( ( ( ( ( ( ( ( ( _ : ' ! ~ ~ ",
"< < [ } | | | | | | | | | | | | | | | | | | 1 ) 2 2 ",
"3 4 ' 5 6 6 6 6 6 6 6 6 6 6 6 6 6 6 6 6 6 6 7 ' 3 3 ",
"8 4 9 0 0 0 0 0 0 0 0 0 0 0 0 0 0 0 0 0 0 0 a ' b c ",
"c d e f f f f f f f f f f f f f f f f f f f g ' h d ",
"d i e j j j j j j j j j j j j j j j j j j j k ' i d ",
"l m e n n n n n n n n n o o n n n n n n n n p ' q i ",
"r r 9 s s s s s s s s t u v w s s s s s s s x ' m r ",
"y z 9 A A A A A A A B C D D E B A A A A A A F ' z r ",
"G H 9 I I I I I I I J K K K K L M I I I I I N ' G G ",
"O O P Q Q Q Q Q Q R K K K K K K S Q Q Q Q Q T ' U V ",
"W W P X X X X X Y Z ` ` ` ` ` ` Z Y X X X X  .' V W ",
"..+.P @.@.@.@.@.@.@.@.@.@.@.@.@.@.@.@.@.@.@.#.' $...",
"+.%.&.*.*.*.*.*.*.*.*.*.*.*.*.*.*.*.*.*.*.*.=.' +.+.",
"-.-.&.;.;.;.;.;.;.;.;.;.;.;.;.;.;.;.;.;.;.;.>.' -.,.",
"'.).&.!.!.!.!.!.!.!.!.!.!.!.!.!.!.!.!.!.!.!.~.' {.-.",
").).].^.^.^.^.^.^.^.^.^.^.^.^.^.^.^.^.^.^.^./.' ).).",
"(._.' :.<.<.<.<.<.<.<.<.<.<.<.<.<.<.<.<.<.<.[.' _.}.",
"(.|.1.2.3.3.3.3.3.3.3.3.3.3.3.3.3.3.3.3.3.3.4.1.(.(.",
"5.6.7.] 8.9.0.0.0.0.0.0.0.0.0.0.0.0.0.0.a.b.] c.5.d.",
"e.f.e.g.h.' i.i.i.i.i.i.i.i.i.i.i.i.i.j.' 1.c.e.k.f.",
"l.l.m.l.l.n.o.p.p.p.p.p.p.p.p.p.p.p.p.o.n.m.l.l.l.l.",
"q.r.s.q.m.t.t.s.q.t.t.t.t.t.l.u.r.s.t.s.r.v.q.t.s.t.",
"' ' ' ' ' ' ' ' ' ' ' ' ' ' 9 ' ' ' ' ' ' ' ' 9 ' ' ",
"w.w.$ + + @ . $ @ # # + $ $ @ $ + + . $ # . w.$ . w.",
"      *   x.    *     .   * *     *   .           . ",
"& y.* z., ' ' ' ' ' ' ' ' ' ' ' ' ' ' ' ' ) A.; B.; ",
"; ~ B ] C.D.E.E.E.E.E.E.E.E.E.E.E.E.E.E.F.G.' B ~ ~ ",
"~ { [ H.t.t.t.t.t.t.t.t.t.t.t.t.t.t.t.t.t.t.I.) { < ",
"4 4 ' J.t.t.t.t.t.t.t.t.t.t.t.t.t.t.t.t.t.t.=.' 4 < ",
"c K.L.t.t.t.t.t.t.t.t.t.t.t.t.t.t.t.t.t.t.t.M.' 4 b ",
"N.c 9 t.t.t.t.t.t.t.t.t.t.t.t.t.t.t.t.t.t.t.O.' c N.",
"d d 9 t.t.t.t.t.t.t.t.t.t.t.t.t.t.t.t.t.t.t.O.' d d ",
"m i 9 t.t.t.t.t.t.t.t.t.P.P.t.t.t.t.t.t.t.t.O.' l m ",
"r r 9 t.t.t.t.t.t.t.t.Q.R.S.T.t.t.t.t.t.t.t.O.' r m ",
"U.z 9 t.t.t.t.t.t.t.V.W.X.X.Y.Z.t.t.t.t.t.t.O.' y `.",
"H G 9 t.t.t.t.t.t.t. +X.X.X.X..+l.t.t.t.t.t.O.' G `.",
"O H 9 t.t.t.t.t.t.++X.X.X.X.X.X.@+t.t.t.t.t.O.' V W ",
"U W 9 t.t.t.t.t.P.#+$+$+$+$+$+$+#+P.t.t.t.t.O.' W W ",
"..%+9 t.t.t.t.t.t.t.t.t.t.t.t.t.t.t.t.t.t.t.O.' ..%+",
"+.+.9 t.t.t.t.t.t.t.t.t.t.t.t.t.t.t.t.t.t.t.O.' -.&+",
"{.{.9 t.t.t.t.t.t.t.t.t.t.t.t.t.t.t.t.t.t.t.O.' &+&+",
").'.9 t.t.t.t.t.t.t.t.t.t.t.t.t.t.t.t.t.t.t.O.' -.{.",
").).&.t.t.t.t.t.t.t.t.t.t.t.t.t.t.t.t.t.t.t.*+' ).).",
"=+_.' n.t.t.t.t.t.t.t.t.t.t.t.t.t.t.t.t.t.t.-+' _.}.",
"(.(.1.;+t.t.t.t.t.t.t.t.t.t.t.t.t.t.t.t.t.t.>+1.(.d.",
"e.e.F.] ;+,+t.t.t.t.t.t.t.t.t.t.t.t.t.t.n.H.] '+5.d.",
"l.f.)+=.h.' &.&.&.&.&.&.&.&.&.&.&.&.&.L.' 1.=.e.l.f.",
"l.u.l.l.s.n.o.p.p.p.p.p.p.p.p.p.p.p.p.o.n.l.s.q.l.l.",
"t.t.r.t.t.s.s.t.t.q.r.q.t.t.t.t.t.t.r.t.t.r.t.m.t.r.",
"' ' ' ' ' ' ' ' ' ' ' ' ' ' ' ' ' ' ' ' ' ' ' ' ' ' "};
