/* XPM */
static char * titleIS_xpm[] = {
"3 34 54 1",
" 	c #845C8B",
".	c #845B8B",
"+	c #845B8A",
"@	c #835B8A",
"#	c #835C8A",
"$	c #825B8A",
"%	c #825B89",
"&	c #835B89",
"*	c #825A89",
"=	c #815A88",
"-	c #825A88",
";	c #815988",
">	c #815987",
",	c #805987",
"'	c #805887",
")	c #805986",
"!	c #805886",
"~	c #7F5886",
"{	c #7F5885",
"]	c #7E5885",
"^	c #7F5786",
"/	c #7F5785",
"(	c #7E5785",
"_	c #7D5784",
":	c #7E5784",
"<	c #7D5684",
"[	c #7D5683",
"}	c #7C5683",
"|	c #7C5583",
"1	c #7C5582",
"2	c #7B5582",
"3	c #7B5581",
"4	c #7A5481",
"5	c #7B5481",
"6	c #7A5480",
"7	c #7A5580",
"8	c #7A5380",
"9	c #79547F",
"0	c #7A537F",
"a	c #79537F",
"b	c #78527F",
"c	c #79527E",
"d	c #78537E",
"e	c #78527E",
"f	c #77527E",
"g	c #77517D",
"h	c #77527D",
"i	c #76517C",
"j	c #76517D",
"k	c #76517B",
"l	c #75517B",
"m	c #75507B",
"n	c #5C3566",
"o	c #5B3565",
" .+",
"@#+",
"@$@",
"%&$",
"**%",
"=--",
"==;",
">>>",
",',",
")',",
"!~)",
"{]^",
"{//",
"(_:",
"<__",
"<<[",
"[}}",
"}}|",
"121",
"223",
"345",
"674",
"666",
"890",
"aaa",
"bac",
"dde",
"fee",
"ggh",
"ihj",
"iii",
"kll",
"kmm",
"nno"};
